<svg xmlns="http://www.w3.org/2000/svg" width="60" height="59" viewBox="0 0 60 59">
    <g fill="none" fill-rule="evenodd">
        <path d="M0 0h60v60H0z"/>
        <path fill="#5C6373" d="M42.992 5.822h-3.165v4.953a3.66 3.66 0 1 1-7.322 0V5.822H18.267v4.953a3.658 3.658 0 0 1-3.658 3.66 3.66 3.66 0 0 1-3.66-3.66V5.822H7.782a7.122 7.122 0 0 0-7.12 7.12v36.99a7.12 7.12 0 0 0 7.12 7.121l26.814-.003a16.162 16.162 0 0 1-4.375-11.076c0-8.957 7.26-16.22 16.217-16.22 1.265 0 2.494.148 3.673.422l.003-17.237a7.12 7.12 0 0 0-7.123-7.117zm-21.56 39.31H6.202a1.681 1.681 0 1 1 0-3.363h15.23a1.681 1.681 0 1 1 0 3.363zm0-10.827H6.202a1.681 1.681 0 1 1 0-3.363h15.23a1.681 1.681 0 1 1 0 3.363zM44.576 22.73H6.202a1.681 1.681 0 1 1 0-3.363h38.374a1.681 1.681 0 1 1 0 3.363z"/>
        <path fill="#5C6373" d="M16.786 10.073a2.177 2.177 0 1 1-4.354 0V2.754a2.177 2.177 0 1 1 4.354 0v7.319zM38.346 10.073a2.177 2.177 0 0 1-2.177 2.177 2.174 2.174 0 0 1-2.174-2.177V2.754a2.176 2.176 0 1 1 4.351 0v7.319z"/>
        <path fill="#005EB8" d="M46.44 33.05c-7.14 0-12.923 5.786-12.923 12.924 0 7.136 5.786 12.923 12.923 12.923 7.139 0 12.924-5.786 12.924-12.923 0-7.136-5.789-12.924-12.924-12.924zm4.95 15.412h-5.947c-.198 0-.387-.04-.557-.11-.006-.003-.015-.003-.021-.009a1.49 1.49 0 0 1-.216-.118 80.033 80.033 0 0 1-.037-.018c-.048-.034-.094-.077-.136-.116-.028-.021-.058-.04-.082-.067-.025-.024-.046-.058-.067-.082-.04-.046-.082-.088-.113-.137-.009-.012-.012-.021-.018-.036a1.376 1.376 0 0 1-.119-.22l-.009-.02a1.476 1.476 0 0 1-.11-.557v-5.947a1.487 1.487 0 0 1 2.974 0v4.463h4.464c.82 0 1.487.666 1.487 1.487a1.496 1.496 0 0 1-1.493 1.487z"/>
    </g>
</svg>
