<svg width="100" height="100" viewBox="0 0 100 100" fill="none" xmlns="http://www.w3.org/2000/svg">
<path fill-rule="evenodd" clip-rule="evenodd" d="M50 100C77.6142 100 100 77.6142 100 50C100 22.3858 77.6142 0 50 0C22.3858 0 0 22.3858 0 50C0 77.6142 22.3858 100 50 100Z" fill="#EEF2F4"/>
<mask id="mask0" mask-type="alpha" maskUnits="userSpaceOnUse" x="0" y="0" width="100" height="100">
<path fill-rule="evenodd" clip-rule="evenodd" d="M50 100C77.6142 100 100 77.6142 100 50C100 22.3858 77.6142 0 50 0C22.3858 0 0 22.3858 0 50C0 77.6142 22.3858 100 50 100Z" fill="white"/>
</mask>
<g mask="url(#mask0)">
<path d="M51.5767 21C73.5873 21 63.2169 51.6878 75.0688 59.0952C72.1058 63.5397 64.9101 67.9841 57.5026 69.254C61.7355 90.2063 88.1905 80.0476 88.1905 100.153H12C12 80.0476 38.455 90.2063 42.6878 69.4656C35.2804 67.9841 28.0847 63.5397 25.1217 59.3069C36.7619 51.8995 23.4286 29.4656 41.2063 25.6561C42.6878 23.963 45.6508 21 51.5767 21Z" fill="#B1B5BF"/>
</g>
</svg>
