<svg width="100" height="100" viewBox="0 0 100 100" fill="none" xmlns="http://www.w3.org/2000/svg">
<g id="avatar">
<path id="Mask" fill-rule="evenodd" clip-rule="evenodd" d="M50 100C77.6142 100 100 77.6142 100 50C100 22.3858 77.6142 0 50 0C22.3858 0 0 22.3858 0 50C0 77.6142 22.3858 100 50 100Z" fill="#EEF2F4"/>
<mask id="mask0" mask-type="alpha" maskUnits="userSpaceOnUse" x="0" y="0" width="100" height="100">
<path id="Mask_2" fill-rule="evenodd" clip-rule="evenodd" d="M50 100C77.6142 100 100 77.6142 100 50C100 22.3858 77.6142 0 50 0C22.3858 0 0 22.3858 0 50C0 77.6142 22.3858 100 50 100Z" fill="white"/>
</mask>
<g mask="url(#mask0)">
<path id="Fill 1" fill-rule="evenodd" clip-rule="evenodd" d="M75.809 80.1494L63.0402 76.9557L61.9527 72.6088C65.3683 69.2244 67.7089 64.5777 68.4027 59.8121C70.2964 59.2777 71.762 57.6558 72.0151 55.6183L72.8495 48.9528C73.0276 47.5465 72.5933 46.1215 71.6589 45.0559C71.112 44.4278 70.4214 43.9559 69.6589 43.6653L69.9651 37.3871L71.212 36.1371C73.0902 34.1403 74.6464 30.7184 71.3933 25.75C68.8933 21.9375 64.6464 20 58.7653 20C56.4466 20 51.106 20 46.131 23.3406C31.9342 23.6375 29.9998 30.2344 29.9998 36.6654C29.9998 38.1622 30.3623 41.531 30.603 43.5653C29.7467 43.8372 28.9654 44.3372 28.3592 45.0216C27.4123 46.0997 26.9686 47.5309 27.1499 48.9528L27.9842 55.6184C28.2561 57.7902 29.9061 59.5028 31.9936 59.909C32.6842 64.4934 34.9029 68.9906 38.1248 72.3154L36.9655 76.9591L24.1967 80.1529C15.8344 82.2404 10 89.712 10 98.3344C10 99.2531 10.7469 100 11.6656 100H88.3309C89.2496 100 89.9965 99.2469 89.9965 98.3282C89.9996 89.7122 84.1652 82.241 75.8093 80.1498L75.809 80.1494Z" fill="#B1B5BF"/>
</g>
</g>
</svg>
