<svg width="70" height="70" viewBox="0 0 70 70" fill="none" xmlns="http://www.w3.org/2000/svg">
<path fill-rule="evenodd" clip-rule="evenodd" d="M35 70C54.33 70 70 54.33 70 35C70 15.67 54.33 0 35 0C15.67 0 0 15.67 0 35C0 54.33 15.67 70 35 70Z" fill="#F45063"/>
<path fill-rule="evenodd" clip-rule="evenodd" d="M34.1946 44.6198L33.6199 44.5369C31.3256 44.206 29.227 43.0598 27.7106 41.3091C26.1928 39.5575 25.3553 37.3172 25.352 35.0017V26.125C25.352 25.7008 25.6971 25.3557 26.1213 25.3557H30.5597C30.9838 25.3557 31.329 25.7008 31.329 26.125C31.329 26.5492 30.9838 26.8943 30.5597 26.8943H26.8906V35.0017C26.8906 37.8905 28.4439 40.581 30.9445 42.0226C33.4447 43.467 36.5518 43.467 39.0515 42.023C41.5521 40.581 43.1059 37.8905 43.1059 35.0017V26.8943H39.4368C39.0122 26.8943 38.6675 26.5492 38.6675 26.125C38.6675 25.7008 39.0122 25.3557 39.4368 25.3557H43.8752C44.0783 25.3557 44.2766 25.4376 44.4196 25.5806C44.5626 25.7235 44.6445 25.9219 44.6445 26.125V35.0007C44.6407 37.3172 43.8027 39.5575 42.2854 41.3091C40.7695 43.0598 38.6708 44.206 36.3766 44.5369L35.7877 44.6217L35.7683 45.2168C35.6987 47.3297 36.4415 49.3573 37.8598 50.9239L37.9607 51.0162C39.2725 51.9971 40.9371 52.3465 42.5325 51.973C49.3745 50.8903 53.462 42.5003 53.462 35.0026C53.4653 28.5717 50.2096 22.7064 44.7515 19.3124C39.2948 15.9161 32.5944 15.5871 26.8286 18.4314L26.7846 18.4551C26.5995 18.5635 26.376 18.5895 26.1729 18.5289C25.9693 18.4678 25.798 18.322 25.7037 18.1327C25.61 17.9414 25.6001 17.7165 25.6749 17.5186C25.752 17.3184 25.9092 17.1583 26.1062 17.0788L26.1568 17.0561C28.8899 15.6983 31.9364 14.9972 34.9956 15H34.998C40.3406 15 45.3636 17.0802 49.143 20.8572C52.9199 24.637 55.0002 29.6605 55.0002 35.0022C55.0002 43.0712 50.6915 52.2717 42.7177 53.4269C42.2201 53.4917 41.7036 53.5244 41.1445 53.5254C39.5708 53.6092 38.0492 53.0997 36.8524 52.0994C35.2934 50.7554 34.4105 48.4337 34.2277 45.1992L34.1946 44.6198ZM19.0905 47.2029C18.0362 48.2548 17.7237 49.8242 18.2942 51.1995C18.8628 52.5762 20.1931 53.4658 21.6839 53.4658V53.4653C22.6492 53.4653 23.5942 53.0738 24.2778 52.3907C24.9609 51.7066 25.3529 50.7611 25.3529 49.7963C25.3529 48.3064 24.4634 46.9756 23.0876 46.4075C21.7118 45.837 20.142 46.149 19.0905 47.2029ZM26.8059 48.6994C27.3205 51.0949 26.0706 53.5567 23.8342 54.5533C21.5963 55.5508 18.93 54.833 17.495 52.847C16.0582 50.8634 16.2116 48.1081 17.8596 46.2948L18.2175 45.901L17.9396 45.4465C15.6454 41.6979 14.6417 37.2255 15.1142 32.8543C15.5886 28.4846 17.5258 24.3308 20.569 21.1579L20.604 21.1186C20.7394 20.9544 20.9392 20.8535 21.1522 20.8412C21.1669 20.8403 21.1821 20.8398 21.1967 20.8398C21.3946 20.8398 21.5873 20.9165 21.7293 21.0524C21.8832 21.2001 21.9698 21.4079 21.9665 21.619C21.9632 21.8326 21.8695 22.0375 21.7109 22.181L21.6744 22.2165C18.8741 25.1347 17.0888 28.9562 16.6471 32.977C16.2031 36.9963 17.1139 41.1142 19.2126 44.573L19.5085 45.0611L20.0492 44.8769C20.5837 44.6942 21.1371 44.5971 21.6943 44.5891V44.5886C24.1414 44.5938 26.2898 46.3072 26.8059 48.6994Z" fill="white"/>
<path d="M33.6199 44.5369L33.602 44.6606L33.602 44.6607L33.6199 44.5369ZM34.1946 44.6198L34.3194 44.6126L34.3136 44.5106L34.2124 44.4961L34.1946 44.6198ZM27.7106 41.3091L27.8051 41.2273L27.8051 41.2273L27.7106 41.3091ZM25.352 35.0017H25.227V35.0019L25.352 35.0017ZM26.8906 26.8943V26.7693H26.7656V26.8943H26.8906ZM30.9445 42.0226L31.0071 41.9143L31.007 41.9143L30.9445 42.0226ZM39.0515 42.023L38.989 41.9148L38.9889 41.9148L39.0515 42.023ZM43.1059 26.8943H43.2309V26.7693H43.1059V26.8943ZM44.4196 25.5806L44.3312 25.6689L44.4196 25.5806ZM44.6445 35.0007L44.7695 35.001V35.0007H44.6445ZM42.2854 41.3091L42.1909 41.2273L42.1909 41.2273L42.2854 41.3091ZM36.3766 44.5369L36.3944 44.6607L36.3945 44.6606L36.3766 44.5369ZM35.7877 44.6217L35.7699 44.4979L35.6662 44.5129L35.6627 44.6176L35.7877 44.6217ZM35.7683 45.2168L35.8932 45.2209L35.8932 45.2208L35.7683 45.2168ZM37.8598 50.9239L37.7668 51.0082L37.7754 51.0161L37.8598 50.9239ZM37.9607 51.0162L37.8759 51.1089L37.8858 51.1163L37.9607 51.0162ZM42.5325 51.973L42.513 51.8492L42.504 51.8513L42.5325 51.973ZM53.462 35.0026L53.337 35.0026V35.0026H53.462ZM44.7515 19.3124L44.6854 19.4185L44.6855 19.4186L44.7515 19.3124ZM26.8286 18.4314L26.7733 18.3192L26.7694 18.3213L26.8286 18.4314ZM26.7846 18.4551L26.7253 18.3449L26.7214 18.3472L26.7846 18.4551ZM26.1729 18.5289L26.137 18.6486L26.1372 18.6487L26.1729 18.5289ZM25.7037 18.1327L25.5915 18.1877L25.5918 18.1883L25.7037 18.1327ZM25.6749 17.5186L25.5582 17.4737L25.5579 17.4744L25.6749 17.5186ZM26.1062 17.0788L26.153 17.1948L26.1573 17.1929L26.1062 17.0788ZM26.1568 17.0561L26.208 17.1702L26.2124 17.168L26.1568 17.0561ZM34.9956 15L34.9955 15.125H34.9956V15ZM49.143 20.8572L49.2314 20.7689L49.2313 20.7688L49.143 20.8572ZM42.7177 53.4269L42.7338 53.5508L42.7356 53.5506L42.7177 53.4269ZM41.1445 53.5254L41.1443 53.4002L41.1378 53.4005L41.1445 53.5254ZM36.8524 52.0994L36.7708 52.1941L36.7722 52.1953L36.8524 52.0994ZM34.2277 45.1992L34.3525 45.1922L34.3525 45.1921L34.2277 45.1992ZM18.2942 51.1995L18.4097 51.1518L18.4096 51.1516L18.2942 51.1995ZM19.0905 47.2029L19.1788 47.2914L19.179 47.2912L19.0905 47.2029ZM21.6839 53.4658V53.5908H21.8089V53.4658H21.6839ZM21.6839 53.4653V53.3403H21.5589V53.4653H21.6839ZM24.2778 52.3907L24.3661 52.4791L24.3662 52.479L24.2778 52.3907ZM23.0876 46.4075L23.0397 46.523L23.0399 46.5231L23.0876 46.4075ZM23.8342 54.5533L23.7833 54.4391L23.7833 54.4391L23.8342 54.5533ZM26.8059 48.6994L26.9281 48.6731L26.9281 48.673L26.8059 48.6994ZM17.495 52.847L17.5964 52.7738L17.5963 52.7737L17.495 52.847ZM17.8596 46.2948L17.9521 46.3789L17.9521 46.3789L17.8596 46.2948ZM18.2175 45.901L18.31 45.985L18.373 45.9157L18.3241 45.8357L18.2175 45.901ZM17.9396 45.4465L18.0462 45.3813L18.0462 45.3812L17.9396 45.4465ZM15.1142 32.8543L14.9899 32.8408L14.9899 32.8409L15.1142 32.8543ZM20.569 21.1579L20.6593 21.2445L20.6623 21.2411L20.569 21.1579ZM20.604 21.1186L20.6974 21.2019L20.7005 21.1981L20.604 21.1186ZM21.1522 20.8412L21.1595 20.966L21.1603 20.9659L21.1522 20.8412ZM21.7293 21.0524L21.8159 20.9622L21.8158 20.962L21.7293 21.0524ZM21.9665 21.619L21.8415 21.6171V21.6171L21.9665 21.619ZM21.7109 22.181L21.627 22.0882L21.6237 22.0915L21.7109 22.181ZM21.6744 22.2165L21.5872 22.1269L21.5842 22.13L21.6744 22.2165ZM16.6471 32.977L16.7714 32.9907L16.7714 32.9906L16.6471 32.977ZM19.2126 44.573L19.3195 44.5082L19.3195 44.5082L19.2126 44.573ZM19.5085 45.0611L19.4016 45.1259L19.4537 45.2118L19.5488 45.1794L19.5085 45.0611ZM20.0492 44.8769L20.0895 44.9953L20.0896 44.9952L20.0492 44.8769ZM21.6943 44.5891L21.6961 44.7141L21.8193 44.7123V44.5891H21.6943ZM21.6943 44.5886L21.6946 44.4636L21.5693 44.4634V44.5886H21.6943ZM33.602 44.6607L34.1768 44.7435L34.2124 44.4961L33.6377 44.4132L33.602 44.6607ZM27.6161 41.391C29.1522 43.1644 31.2781 44.3254 33.602 44.6606L33.6377 44.4132C31.3732 44.0866 29.3017 42.9553 27.8051 41.2273L27.6161 41.391ZM25.227 35.0019C25.2303 37.3474 26.0787 39.6166 27.6161 41.391L27.8051 41.2273C26.3069 39.4983 25.4803 37.287 25.477 35.0015L25.227 35.0019ZM25.227 26.125V35.0017H25.477V26.125H25.227ZM26.1213 25.2307C25.6281 25.2307 25.227 25.6318 25.227 26.125H25.477C25.477 25.7698 25.7661 25.4807 26.1213 25.4807V25.2307ZM30.5597 25.2307H26.1213V25.4807H30.5597V25.2307ZM31.454 26.125C31.454 25.6318 31.0529 25.2307 30.5597 25.2307V25.4807C30.9148 25.4807 31.204 25.7698 31.204 26.125H31.454ZM30.5597 27.0193C31.0529 27.0193 31.454 26.6182 31.454 26.125H31.204C31.204 26.4801 30.9148 26.7693 30.5597 26.7693V27.0193ZM26.8906 27.0193H30.5597V26.7693H26.8906V27.0193ZM27.0156 35.0017V26.8943H26.7656V35.0017H27.0156ZM31.007 41.9143C28.5451 40.4951 27.0156 37.8459 27.0156 35.0017H26.7656C26.7656 37.9352 28.3427 40.6669 30.8821 42.1309L31.007 41.9143ZM38.9889 41.9148C36.5279 43.3364 33.4685 43.3364 31.0071 41.9143L30.882 42.1308C33.4209 43.5976 36.5756 43.5976 39.114 42.1313L38.9889 41.9148ZM42.9809 35.0017C42.9809 37.8459 41.4509 40.4951 38.989 41.9148L39.1139 42.1313C41.6533 40.6669 43.2309 37.9352 43.2309 35.0017H42.9809ZM42.9809 26.8943V35.0017H43.2309V26.8943H42.9809ZM39.4368 27.0193H43.1059V26.7693H39.4368V27.0193ZM38.5425 26.125C38.5425 26.6182 38.9431 27.0193 39.4368 27.0193V26.7693C39.0812 26.7693 38.7925 26.4802 38.7925 26.125H38.5425ZM39.4368 25.2307C38.9431 25.2307 38.5425 25.6318 38.5425 26.125H38.7925C38.7925 25.7698 39.0812 25.4807 39.4368 25.4807V25.2307ZM43.8752 25.2307H39.4368V25.4807H43.8752V25.2307ZM44.508 25.4922C44.3414 25.3256 44.1112 25.2307 43.8752 25.2307V25.4807C44.0453 25.4807 44.2118 25.5495 44.3312 25.6689L44.508 25.4922ZM44.7695 26.125C44.7695 25.8889 44.6745 25.6587 44.508 25.4922L44.3312 25.6689C44.4506 25.7883 44.5195 25.9549 44.5195 26.125H44.7695ZM44.7695 35.0007V26.125H44.5195V35.0007H44.7695ZM42.3799 41.391C43.9168 39.6166 44.7656 37.3474 44.7695 35.001L44.5195 35.0005C44.5157 37.287 43.6886 39.4983 42.1909 41.2273L42.3799 41.391ZM36.3945 44.6606C38.7184 44.3254 40.8443 43.1644 42.3799 41.3909L42.1909 41.2273C40.6947 42.9553 38.6233 44.0866 36.3588 44.4132L36.3945 44.6606ZM35.8055 44.7454L36.3944 44.6607L36.3588 44.4132L35.7699 44.4979L35.8055 44.7454ZM35.8932 45.2208L35.9126 44.6257L35.6627 44.6176L35.6433 45.2127L35.8932 45.2208ZM37.9525 50.84C36.5559 49.2975 35.8247 47.3014 35.8932 45.2209L35.6433 45.2127C35.5727 47.3579 36.327 49.4172 37.7672 51.0078L37.9525 50.84ZM38.0451 50.924L37.9443 50.8317L37.7754 51.0161L37.8763 51.1084L38.0451 50.924ZM42.504 51.8513C40.9446 52.2164 39.3179 51.875 38.0355 50.9161L37.8858 51.1163C39.2272 52.1193 40.9296 52.4767 42.561 52.0947L42.504 51.8513ZM53.337 35.0026C53.337 38.7307 52.3203 42.6803 50.4554 45.8297C48.5904 48.9794 45.8856 51.3158 42.513 51.8495L42.5521 52.0965C46.0214 51.5474 48.7814 49.1475 50.6706 45.9571C52.5599 42.7664 53.587 38.7722 53.587 35.0026H53.337ZM44.6855 19.4186C50.1068 22.7897 53.3403 28.6148 53.337 35.0026L53.587 35.0027C53.5903 28.5285 50.3123 22.6231 44.8175 19.2063L44.6855 19.4186ZM26.8839 18.5435C32.611 15.7183 39.2655 16.0451 44.6854 19.4185L44.8175 19.2063C39.3241 15.7871 32.5779 15.4558 26.7733 18.3193L26.8839 18.5435ZM26.8438 18.5652L26.8878 18.5415L26.7694 18.3213L26.7254 18.345L26.8438 18.5652ZM26.1372 18.6487C26.3733 18.7192 26.6326 18.6889 26.8477 18.5629L26.7214 18.3472C26.5663 18.438 26.3787 18.4599 26.2086 18.4091L26.1372 18.6487ZM25.5918 18.1883C25.7013 18.4083 25.9 18.5775 26.137 18.6486L26.2088 18.4092C26.0387 18.3581 25.8946 18.2357 25.8157 18.077L25.5918 18.1883ZM25.5579 17.4744C25.471 17.7045 25.4825 17.9653 25.5915 18.1877L25.816 18.0776C25.7375 17.9175 25.7291 17.7286 25.7918 17.5628L25.5579 17.4744ZM26.0593 16.9629C25.83 17.0555 25.6477 17.2414 25.5582 17.4737L25.7915 17.5636C25.8563 17.3953 25.9884 17.2612 26.153 17.1947L26.0593 16.9629ZM26.1056 16.942L26.055 16.9648L26.1573 17.1929L26.208 17.1701L26.1056 16.942ZM34.9957 14.875C31.9175 14.8722 28.8519 15.5776 26.1012 16.9441L26.2124 17.168C28.9279 15.819 31.9552 15.1222 34.9955 15.125L34.9957 14.875ZM34.998 14.875H34.9956V15.125H34.998V14.875ZM49.2313 20.7688C45.4285 16.9684 40.3737 14.875 34.998 14.875V15.125C40.3074 15.125 45.2987 17.1921 49.0546 20.9456L49.2313 20.7688ZM55.1252 35.0022C55.1252 29.6274 53.0318 24.5721 49.2314 20.7689L49.0545 20.9456C52.8081 24.702 54.8752 29.6937 54.8752 35.0022H55.1252ZM42.7356 53.5506C46.7698 52.9662 49.8691 50.3469 51.9563 46.8716C54.043 43.397 55.1252 39.0569 55.1252 35.0022H54.8752C54.8752 39.0165 53.803 43.3112 51.742 46.7429C49.6814 50.1739 46.6393 52.7325 42.6997 53.3032L42.7356 53.5506ZM41.1447 53.6504C41.7086 53.6494 42.2305 53.6164 42.7338 53.5508L42.7015 53.3029C42.2097 53.367 41.6985 53.3994 41.1443 53.4004L41.1447 53.6504ZM36.7722 52.1953C37.9933 53.2159 39.5459 53.7357 41.1511 53.6502L41.1378 53.4005C39.5957 53.4827 38.1051 52.9836 36.9326 52.0035L36.7722 52.1953ZM34.1029 45.2063C34.2865 48.4557 35.1746 50.818 36.7708 52.1941L36.934 52.0047C35.4122 50.6927 34.5344 48.4117 34.3525 45.1922L34.1029 45.2063ZM34.0698 44.6269L34.1029 45.2064L34.3525 45.1921L34.3194 44.6126L34.0698 44.6269ZM18.4096 51.1516C17.8586 49.8231 18.1603 48.3075 19.1788 47.2914L19.0022 47.1144C17.912 48.2021 17.5888 49.8254 18.1787 51.2474L18.4096 51.1516ZM21.6839 53.3408C20.2436 53.3408 18.959 52.4817 18.4097 51.1518L18.1786 51.2472C18.7666 52.6708 20.1425 53.5908 21.6839 53.5908V53.3408ZM21.5589 53.4653V53.4658H21.8089V53.4653H21.5589ZM24.1894 52.3022C23.5292 52.962 22.616 53.3403 21.6839 53.3403V53.5903C22.6824 53.5903 23.6591 53.1856 24.3661 52.4791L24.1894 52.3022ZM25.2279 49.7963C25.2279 50.7279 24.8492 51.6416 24.1893 52.3023L24.3662 52.479C25.0727 51.7715 25.4779 50.7943 25.4779 49.7963H25.2279ZM23.0399 46.5231C24.3688 47.0718 25.2279 48.357 25.2279 49.7963H25.4779C25.4779 48.2559 24.5579 46.8794 23.1353 46.292L23.0399 46.5231ZM19.179 47.2912C20.1946 46.2732 21.7106 45.9719 23.0397 46.523L23.1355 46.2921C21.713 45.7022 20.0893 46.0249 19.002 47.1146L19.179 47.2912ZM23.8851 54.6674C26.1756 53.6468 27.4551 51.1264 26.9281 48.6731L26.6837 48.7256C27.1859 51.0634 25.9657 53.4666 23.7833 54.4391L23.8851 54.6674ZM17.3937 52.9202C18.8633 54.9542 21.5932 55.689 23.8851 54.6674L23.7833 54.4391C21.5995 55.4125 18.9967 54.7119 17.5964 52.7738L17.3937 52.9202ZM17.7671 46.2108C16.0793 48.0677 15.9222 50.8888 17.3938 52.9204L17.5963 52.7737C16.1942 50.838 16.3439 48.1484 17.9521 46.3789L17.7671 46.2108ZM18.125 45.8169L17.7671 46.2108L17.9521 46.3789L18.31 45.985L18.125 45.8169ZM17.8329 45.5117L18.1108 45.9662L18.3241 45.8357L18.0462 45.3813L17.8329 45.5117ZM14.9899 32.8409C14.5145 37.2395 15.5243 41.7396 17.833 45.5117L18.0462 45.3812C15.7664 41.6562 14.769 37.2114 15.2385 32.8678L14.9899 32.8409ZM20.4788 21.0714C17.4165 24.2642 15.4673 28.4437 14.9899 32.8408L15.2385 32.8678C15.7099 28.5256 17.6351 24.3974 20.6592 21.2445L20.4788 21.0714ZM20.5107 21.0354L20.4757 21.0747L20.6623 21.2411L20.6973 21.2018L20.5107 21.0354ZM21.145 20.7164C20.8975 20.7307 20.6653 20.8478 20.5076 21.0391L20.7005 21.1981C20.8136 21.0609 20.9809 20.9763 21.1595 20.966L21.145 20.7164ZM21.1967 20.7148C21.1795 20.7148 21.1616 20.7153 21.1442 20.7165L21.1603 20.9659C21.1722 20.9652 21.1847 20.9648 21.1967 20.9648V20.7148ZM21.8158 20.962C21.6502 20.8036 21.4264 20.7148 21.1967 20.7148V20.9648C21.3628 20.9648 21.5244 21.0293 21.6429 21.1427L21.8158 20.962ZM22.0915 21.621C22.0954 21.375 21.9947 21.1338 21.8159 20.9622L21.6428 21.1425C21.7717 21.2663 21.8443 21.4408 21.8415 21.6171L22.0915 21.621ZM21.7947 22.2737C21.9788 22.1072 22.0877 21.8695 22.0915 21.621L21.8415 21.6171C21.8388 21.7956 21.7602 21.9679 21.627 22.0883L21.7947 22.2737ZM21.7616 22.306L21.7981 22.2705L21.6237 22.0915L21.5872 22.127L21.7616 22.306ZM16.7714 32.9906C17.2101 28.9972 18.9834 25.2014 21.7646 22.3031L21.5842 22.13C18.7649 25.068 16.9676 28.9151 16.5229 32.9633L16.7714 32.9906ZM19.3195 44.5082C17.2351 41.0729 16.3303 36.9827 16.7714 32.9907L16.5229 32.9632C16.0758 37.01 16.9928 41.1555 19.1058 44.6378L19.3195 44.5082ZM19.6154 44.9963L19.3195 44.5082L19.1057 44.6378L19.4016 45.1259L19.6154 44.9963ZM20.0089 44.7586L19.4682 44.9428L19.5488 45.1794L20.0895 44.9953L20.0089 44.7586ZM21.6925 44.4641C21.1219 44.4724 20.5554 44.5717 20.0087 44.7587L20.0896 44.9952C20.6119 44.8167 21.1523 44.7219 21.6961 44.7141L21.6925 44.4641ZM21.5693 44.5886V44.5891H21.8193V44.5886H21.5693ZM26.9281 48.673C26.3994 46.2225 24.1996 44.469 21.6946 44.4636L21.694 44.7136C24.0833 44.7187 26.1802 46.3918 26.6837 48.7257L26.9281 48.673Z" fill="white"/>
</svg>
