<svg width="70" height="70" viewBox="0 0 70 70" fill="none" xmlns="http://www.w3.org/2000/svg">
<path fill-rule="evenodd" clip-rule="evenodd" d="M35 70C54.33 70 70 54.33 70 35C70 15.67 54.33 0 35 0C15.67 0 0 15.67 0 35C0 54.33 15.67 70 35 70Z" fill="#F45063"/>
<path fill-rule="evenodd" clip-rule="evenodd" d="M54.4107 51.7471C52.8986 51.2452 51.4886 50.4788 50.2453 49.4812C53.2131 46.7799 54.9334 42.9728 54.998 38.9596C55.0646 34.9484 53.4714 31.0869 50.5952 28.2878C50.5431 28.219 50.4807 28.1566 50.4119 28.1045H50.3619C49.5018 27.2714 48.5437 26.5487 47.5045 25.9552C47.4587 25.9177 47.4087 25.8865 47.3545 25.8636C46.0653 25.1742 44.6762 24.6848 43.2391 24.414C42.5373 22.4958 41.4355 20.7505 40.0068 19.2906C39.6819 18.9636 39.155 18.9615 38.828 19.2864C38.501 19.6113 38.499 20.1382 38.8239 20.4652C41.2273 22.8998 42.5664 26.1861 42.5477 29.6063C42.529 33.0261 41.1544 36.3002 38.726 38.7075C36.2976 41.1151 33.0131 42.4605 29.5934 42.4501H29.2851C29.1373 42.448 28.9894 42.4855 28.8603 42.5584C25.5092 44.2849 21.6044 44.5848 18.0306 43.3914C19.3552 42.7354 20.5777 41.894 21.6628 40.8922C21.8315 40.7235 21.9189 40.4902 21.9044 40.2508C21.8877 40.0154 21.7731 39.7967 21.5878 39.6509C18.6574 37.3371 16.8726 33.865 16.6997 30.135C16.5248 26.4049 17.9764 22.7831 20.6797 20.2069H20.738C21.519 19.4425 22.3958 18.7823 23.3455 18.2408H23.3955C25.3886 17.1557 27.6317 16.6142 29.8996 16.6705C32.1676 16.7267 34.3815 17.3807 36.3163 18.5657C36.7016 18.724 37.1431 18.5741 37.3534 18.2158C37.5638 17.8576 37.4763 17.3995 37.1493 17.1412C32.6986 14.4233 27.1359 14.2837 22.5539 16.7746L22.5122 16.7913C21.4751 17.3723 20.5129 18.0784 19.6465 18.8906H19.5965C19.5298 18.9406 19.4715 18.9989 19.4215 19.0656C16.537 21.8647 14.9417 25.7344 15.0084 29.7519C15.0771 33.7715 16.8036 37.583 19.7798 40.284C18.5343 41.2775 17.1243 42.0439 15.6144 42.55C15.2749 42.6437 15.0292 42.9395 15.0021 43.2914C14.9771 43.6434 15.175 43.9745 15.4978 44.1162C17.6513 45.2221 20.0401 45.7927 22.462 45.7823C24.1011 45.7802 25.7298 45.5178 27.2855 44.9992C28.4394 47.4318 30.2492 49.4936 32.5089 50.9557C32.6422 51.0432 32.7984 51.089 32.9588 51.089C33.2399 51.0911 33.5044 50.9495 33.6586 50.7142C33.7794 50.5288 33.8231 50.2997 33.7752 50.0831C33.7294 49.8665 33.5961 49.6749 33.4086 49.5562C31.4363 48.2878 29.8493 46.505 28.8184 44.3994C28.8984 44.3595 28.9783 44.3221 29.0583 44.2848L29.0583 44.2848C29.1783 44.2288 29.2982 44.1728 29.4182 44.1079H29.5682C34.0147 44.1162 38.2199 42.0856 40.9811 38.6013C43.7428 35.1149 44.7549 30.558 43.7302 26.2302C44.7112 26.4864 45.6567 26.8613 46.546 27.3466L46.621 27.3966C47.5582 27.9172 48.4266 28.5566 49.2035 29.296L49.2618 29.346C51.9672 31.9222 53.421 35.5462 53.2481 39.2805C53.0732 43.0126 51.2883 46.4846 48.3538 48.7986C48.1684 48.9568 48.0622 49.188 48.0622 49.4317C48.0622 49.6754 48.1684 49.9065 48.3538 50.0648C49.4264 51.0687 50.6385 51.9101 51.9527 52.5641C48.3788 53.7595 44.4718 53.4575 41.123 51.731C40.9335 51.6498 40.7273 51.6206 40.5232 51.6477H40.4232C39.007 51.6477 37.5991 51.4144 36.2579 50.9562C36.0475 50.875 35.8122 50.8833 35.6059 50.9791C35.4018 51.0728 35.2436 51.2478 35.1707 51.4623C35.0978 51.6768 35.1123 51.9122 35.2165 52.1121C35.3185 52.3141 35.4997 52.4641 35.7163 52.5307C37.2346 53.0368 38.8237 53.2889 40.4232 53.2805H40.5648C42.7308 54.3801 45.1259 54.9508 47.5541 54.9466C49.9763 54.957 52.3651 54.3864 54.5183 53.2805C54.8182 53.1284 54.9973 52.8119 54.9744 52.4787C54.9494 52.1433 54.7287 51.8559 54.41 51.7476L54.4107 51.7471ZM29.5934 36.2021C29.8141 36.2021 30.0265 36.1146 30.1828 35.9584C30.339 35.8022 30.4264 35.5898 30.4264 35.369V29.9542H35.8413C36.3015 29.9542 36.6743 29.5814 36.6743 29.1211C36.6743 28.6608 36.3015 28.288 35.8413 28.288H30.4264V22.8732C30.4264 22.4129 30.0536 22.0401 29.5934 22.0401C29.1331 22.0401 28.7603 22.4129 28.7603 22.8732V28.288H23.3454C22.8852 28.288 22.5124 28.6608 22.5124 29.1211C22.5124 29.5814 22.8852 29.9542 23.3454 29.9542H28.7603V35.369C28.7603 35.5898 28.8477 35.8022 29.004 35.9584C29.1602 36.1147 29.3726 36.2021 29.5934 36.2021ZM41.4291 41.8603C41.5853 42.0166 41.6728 42.229 41.6728 42.4498L41.6727 42.4497C41.6727 42.7871 41.4707 43.0912 41.1583 43.2203C40.848 43.3474 40.4898 43.2766 40.2503 43.0391C40.0129 42.7996 39.942 42.4414 40.0691 42.1311C40.1982 41.8187 40.5023 41.6167 40.8397 41.6167C41.0605 41.6167 41.2729 41.7041 41.4291 41.8603ZM45.0051 42.4498C45.0051 42.229 44.9176 42.0166 44.7614 41.8603C44.6052 41.7041 44.3927 41.6167 44.172 41.6167C43.8346 41.6167 43.5305 41.8187 43.4014 42.1311C43.2743 42.4414 43.3451 42.7996 43.5826 43.0391C43.8221 43.2766 44.1803 43.3474 44.4906 43.2203C44.803 43.0912 45.005 42.7871 45.005 42.4497L45.0051 42.4498ZM48.0937 41.8603C48.2499 42.0166 48.3373 42.229 48.3373 42.4498L48.3373 42.4497C48.3373 42.7871 48.1353 43.0912 47.8229 43.2203C47.5126 43.3474 47.1544 43.2766 46.9149 43.0391C46.6774 42.7996 46.6066 42.4414 46.7337 42.1311C46.8628 41.8187 47.1669 41.6167 47.5043 41.6167C47.725 41.6167 47.9375 41.7041 48.0937 41.8603Z" fill="white"/>
</svg>
