<svg width="70" height="70" viewBox="0 0 70 70" fill="none" xmlns="http://www.w3.org/2000/svg">
<path fill-rule="evenodd" clip-rule="evenodd" d="M35 70C54.33 70 70 54.33 70 35C70 15.67 54.33 0 35 0C15.67 0 0 15.67 0 35C0 54.33 15.67 70 35 70Z" fill="#F45063"/>
<path fill-rule="evenodd" clip-rule="evenodd" d="M18.5878 55H50.4872L50.4872 54.9999C51.9243 54.9999 53.0732 53.8699 53.0732 52.4589V17.5391C53.0732 16.1281 51.9243 15 50.4872 15L44.344 15.0015V15H24.6264V15H18.5859C17.1489 15 16 16.1281 16 17.5392L16.0019 52.4609C16.0019 53.8719 17.1508 55 18.5878 55ZM25.6468 16.4049H42.6922C42.7271 16.409 42.7631 16.4111 42.8003 16.4111H50.4872C51.1323 16.4111 51.6361 16.9039 51.6361 17.5392V52.4609C51.6361 53.0943 51.1342 53.589 50.4872 53.589H18.5879C17.9409 53.589 17.4371 53.0942 17.4371 52.459V17.5392C17.4371 16.9039 17.9409 16.4111 18.5879 16.4111L25.5557 16.4093C25.5868 16.4093 25.6172 16.4078 25.6468 16.4049ZM26.3533 34.5122H26.2177C26.0133 34.5122 25.8777 34.3602 25.7404 34.1312L23.9034 30.6984C23.6991 30.3174 23.8347 29.8594 24.1077 29.6304C24.4476 29.4015 24.8562 29.5534 25.0605 29.8594L26.4906 32.5303L31.4589 27.8775C31.7319 27.5715 32.2074 27.6485 32.4118 27.9545C32.6848 28.2605 32.6161 28.7935 32.343 29.0225L26.7615 34.287C26.6928 34.4349 26.4885 34.5119 26.3529 34.5119L26.3533 34.5122ZM39.1521 25.7317H49.4352C49.8638 25.7317 50.1482 25.5371 50.1463 25.2439C50.1463 24.952 49.8618 24.7561 49.4332 24.7561H39.1521C38.7254 24.7561 38.439 24.9507 38.439 25.2439C38.439 25.5358 38.7235 25.7317 39.1521 25.7317ZM49.4352 30.6098H39.1521C38.7235 30.6098 38.439 30.4139 38.439 30.122C38.439 29.8288 38.7254 29.6341 39.1521 29.6341H49.4332C49.8618 29.6341 50.1463 29.83 50.1463 30.122C50.1482 30.3658 49.8638 30.6098 49.4352 30.6098ZM39.1521 35.4878H49.4352C49.8638 35.4878 50.1482 35.2919 50.1463 35C50.1463 34.7081 49.8618 34.5122 49.4332 34.5122H39.1521C38.7254 34.5122 38.439 34.7068 38.439 35C38.439 35.2919 38.7235 35.4878 39.1521 35.4878ZM49.4352 39.3902H39.1521C38.7235 39.3902 38.439 39.1944 38.439 38.9024C38.439 38.6092 38.7254 38.4146 39.1521 38.4146H49.4332C49.8618 38.4146 50.1463 38.6105 50.1463 38.9024C50.1482 39.1943 49.8638 39.3902 49.4352 39.3902ZM39.1521 44.2683H49.4352C49.8638 44.2683 50.1482 44.0244 50.1463 43.7805C50.1463 43.4886 49.8618 43.2927 49.4332 43.2927H39.1521C38.7254 43.2927 38.439 43.4873 38.439 43.7805C38.439 44.0724 38.7235 44.2683 39.1521 44.2683ZM49.4352 49.1463H39.1521C38.7235 49.1463 38.439 48.9504 38.439 48.6585C38.439 48.3653 38.7254 48.1707 39.1521 48.1707H49.4332C49.8618 48.1707 50.1463 48.3666 50.1463 48.6585C50.1482 48.9517 49.8638 49.1463 49.4352 49.1463ZM24.0088 38.2698C25.3331 39.0403 26.7277 39.3902 28.1927 39.3902L28.1925 39.3902C28.8907 39.3902 29.6575 39.3194 30.4243 39.0384C31.6453 38.7105 32.7711 38.0969 33.7186 37.2671L33.7379 37.6284C33.7379 38.0989 34.1815 38.4146 34.6251 38.4146C35.1583 38.4146 35.5145 38.0215 35.5122 37.6284L35.3866 35.282C35.4064 35.2494 35.426 35.2167 35.4454 35.1838C35.5206 34.9942 35.5345 34.7839 35.4759 34.5975C35.5115 34.4868 35.5222 34.367 35.5023 34.2472C35.4381 33.7815 35.1203 33.4703 34.8025 33.5486L34.7041 33.5633C34.6245 33.5457 34.5389 33.5366 34.4481 33.5366C34.2313 33.5366 34.0436 33.5889 33.8974 33.683L32.1927 33.9361C31.8107 34.0144 31.5554 34.4018 31.6196 34.7892C31.6822 35.1766 31.9375 35.4878 32.2552 35.4878L32.2552 35.4878H32.3194L33.6131 35.2958L33.6154 35.3386C32.6992 36.4942 31.4215 37.3085 30.0058 37.7076C28.1927 38.199 26.3795 37.9179 24.7756 37.0078C23.1717 36.0958 22.0567 34.5547 21.5678 32.8033C21.2881 31.6828 21.2177 30.6312 21.4974 29.5108C21.5677 29.1608 21.2881 28.7402 20.9399 28.6695C20.5917 28.5988 20.1731 28.8798 20.1027 29.2297C19.8249 30.5605 19.8249 31.962 20.1731 33.2239C20.7324 35.3272 22.127 37.1493 24.0088 38.2698ZM35.6561 32.5608H35.5165C35.1667 32.4895 34.8857 32.0658 34.9564 31.7133C35.1667 30.654 35.1667 29.5253 34.8857 28.466C33.9051 24.7256 30.1223 22.5374 26.4101 23.5257C24.9263 23.9288 23.6758 24.7525 22.7703 25.9216L22.7711 25.9365L24.0589 25.7438C24.382 25.6655 24.7051 25.9766 24.7704 26.4423C24.8357 26.8298 24.5762 27.2172 24.1878 27.2955L22.4317 27.5584C22.2885 27.6372 22.1169 27.6829 21.9349 27.6829C21.8682 27.6829 21.8016 27.6758 21.7366 27.6624L21.5996 27.6829H21.5343C21.2112 27.6829 20.9517 27.3718 20.8881 26.9843C20.8687 26.8691 20.878 26.7539 20.9109 26.6468C20.8563 26.462 20.8712 26.255 20.9452 26.068C20.9634 26.0359 20.9817 26.004 21.0003 25.9723L20.878 23.6563C20.878 23.1915 21.2319 22.883 21.6724 22.8049C22.202 22.8049 22.5535 23.1154 22.6426 23.502L22.6662 23.9506C23.6289 23.1053 24.7833 22.489 26.0583 22.1157C30.4719 20.9158 35.025 23.5988 36.2159 28.0443C36.5657 29.3155 36.5657 30.6561 36.2866 31.9966C36.2159 32.3491 35.9367 32.561 35.6558 32.561L35.6561 32.5608ZM20.592 49.1463H33.847C34.2615 49.1463 34.5384 48.8718 34.5366 48.4583V43.9807C34.5366 43.569 34.2615 43.2927 33.847 43.2927H20.592C20.1794 43.2927 19.9024 43.5672 19.9024 43.9807V48.4583C19.9024 48.87 20.1775 49.1463 20.592 49.1463ZM33.1574 47.7685H21.2831V44.6688H33.1574V47.7685Z" fill="white"/>
<path d="M50.4872 55V55.15H50.5816L50.6224 55.0649L50.4872 55ZM50.4872 54.9999V54.8499H50.3929L50.352 54.935L50.4872 54.9999ZM50.4872 15V14.85H50.4872L50.4872 15ZM44.344 15.0015H44.194V15.1515L44.3441 15.1515L44.344 15.0015ZM44.344 15H44.494V14.85H44.344V15ZM24.6264 15V14.85H24.4764V15H24.6264ZM24.6264 15V15.15H24.7764V15H24.6264ZM16 17.5392H15.85V17.5392L16 17.5392ZM16.0019 52.4609H16.1519V52.4609L16.0019 52.4609ZM42.6922 16.4049L42.7097 16.2559L42.701 16.2549H42.6922V16.4049ZM25.6468 16.4049V16.2549H25.6394L25.6321 16.2556L25.6468 16.4049ZM18.5879 16.4111V16.5611H18.5879L18.5879 16.4111ZM25.5557 16.4093V16.2593H25.5556L25.5557 16.4093ZM26.3533 34.5122V34.6622H26.8042L26.4431 34.3921L26.3533 34.5122ZM25.7404 34.1312L25.6079 34.2021L25.6117 34.2084L25.7404 34.1312ZM23.9034 30.6984L24.0356 30.6276L24.0356 30.6275L23.9034 30.6984ZM24.1077 29.6304L24.0239 29.506L24.0173 29.5105L24.0113 29.5155L24.1077 29.6304ZM25.0605 29.8594L25.1928 29.7886L25.1893 29.7822L25.1853 29.7761L25.0605 29.8594ZM26.4906 32.5303L26.3584 32.6011L26.4506 32.7733L26.5932 32.6398L26.4906 32.5303ZM31.4589 27.8775L31.5619 27.9874L31.5708 27.9774L31.4589 27.8775ZM32.4118 27.9545L32.287 28.0378L32.2928 28.0465L32.2998 28.0544L32.4118 27.9545ZM32.343 29.0225L32.2465 28.9073L32.2401 28.9134L32.343 29.0225ZM26.7615 34.287L26.6586 34.1779L26.6376 34.1976L26.6254 34.2238L26.7615 34.287ZM26.3529 34.5119V34.3619H25.902L26.263 34.632L26.3529 34.5119ZM50.1463 25.2439H49.9963L49.9963 25.2449L50.1463 25.2439ZM50.1463 30.122H49.9963L49.9963 30.1231L50.1463 30.122ZM50.1463 35H49.9963L49.9963 35.001L50.1463 35ZM50.1463 38.9024H49.9963L49.9963 38.9034L50.1463 38.9024ZM50.1463 43.7805H49.9963L49.9963 43.7817L50.1463 43.7805ZM50.1463 48.6585H49.9963L49.9963 48.6595L50.1463 48.6585ZM28.1927 39.3902V39.5402L28.2539 39.2533L28.1927 39.3902ZM24.0088 38.2698L23.9321 38.3987L23.9334 38.3994L24.0088 38.2698ZM28.1925 39.3902V39.2402L28.1313 39.5271L28.1925 39.3902ZM30.4243 39.0384L30.3852 38.893L30.3726 38.8976L30.4243 39.0384ZM33.7186 37.2671L33.8684 37.259L33.8519 36.9509L33.6198 37.1542L33.7186 37.2671ZM33.7379 37.6284H33.8881L33.8877 37.6204L33.7379 37.6284ZM35.5122 37.6284L35.6623 37.6275L35.662 37.6204L35.5122 37.6284ZM35.3866 35.282L35.2584 35.2041L35.2343 35.2437L35.2368 35.29L35.3866 35.282ZM35.4454 35.1838L35.5746 35.26L35.5805 35.25L35.5848 35.2392L35.4454 35.1838ZM35.4759 34.5975L35.3331 34.5516L35.3186 34.597L35.3328 34.6424L35.4759 34.5975ZM35.5023 34.2472L35.3537 34.2677L35.3543 34.2718L35.5023 34.2472ZM34.8025 33.5486L34.8246 33.6977L34.8384 33.6943L34.8025 33.5486ZM34.7041 33.5633L34.6718 33.7097L34.6988 33.7157L34.7261 33.7116L34.7041 33.5633ZM33.8974 33.683L33.9194 33.8314L33.9514 33.8266L33.9786 33.8091L33.8974 33.683ZM32.1927 33.9361L32.1706 33.7875L32.1625 33.7891L32.1927 33.9361ZM31.6196 34.7892L31.7677 34.7653L31.7676 34.7647L31.6196 34.7892ZM32.2552 35.4878V35.6378L32.3027 35.3455L32.2552 35.4878ZM32.2552 35.4878V35.3378L32.2078 35.6301L32.2552 35.4878ZM32.3194 35.4878V35.6378H32.3305L32.3415 35.6362L32.3194 35.4878ZM33.6131 35.2958L33.7628 35.2878L33.754 35.1232L33.591 35.1474L33.6131 35.2958ZM33.6154 35.3386L33.7329 35.4318L33.7682 35.3873L33.7651 35.3306L33.6154 35.3386ZM30.0058 37.7076L30.045 37.8524L30.0465 37.852L30.0058 37.7076ZM24.7756 37.0078L24.7014 37.1382L24.7015 37.1382L24.7756 37.0078ZM21.5678 32.8033L21.4222 32.8396L21.4233 32.8436L21.5678 32.8033ZM21.4974 29.5108L21.6431 29.5471L21.6444 29.5403L21.4974 29.5108ZM20.9399 28.6695L20.9697 28.5225L20.9697 28.5225L20.9399 28.6695ZM20.1027 29.2297L20.2496 29.2604L20.2498 29.2593L20.1027 29.2297ZM20.1731 33.2239L20.3181 33.1854L20.3177 33.184L20.1731 33.2239ZM35.5165 32.5608L35.4866 32.7077L35.5014 32.7108H35.5165V32.5608ZM35.6561 32.5608L35.7445 32.6819L36.1158 32.4108H35.6561V32.5608ZM34.9564 31.7133L35.1035 31.7428L35.1036 31.7425L34.9564 31.7133ZM34.8857 28.466L34.7406 28.5041L34.7407 28.5045L34.8857 28.466ZM26.4101 23.5257L26.3715 23.3807L26.3708 23.3809L26.4101 23.5257ZM22.7703 25.9216L22.6517 25.8298L22.6176 25.8738L22.6205 25.9295L22.7703 25.9216ZM22.7711 25.9365L22.6213 25.9444L22.63 26.1093L22.7933 26.0849L22.7711 25.9365ZM24.0589 25.7438L24.0812 25.8927L24.0943 25.8895L24.0589 25.7438ZM24.7704 26.4423L24.6218 26.4632L24.6225 26.4673L24.7704 26.4423ZM24.1878 27.2955L24.2101 27.444L24.2175 27.4425L24.1878 27.2955ZM22.4317 27.5584L22.4095 27.41L22.3829 27.414L22.3593 27.427L22.4317 27.5584ZM21.9349 27.6829L21.9349 27.8329H21.9349V27.6829ZM21.7366 27.6624L21.7668 27.5155L21.7407 27.5101L21.7143 27.5141L21.7366 27.6624ZM21.5996 27.6829V27.8329H21.6108L21.6218 27.8313L21.5996 27.6829ZM20.8881 26.9843L21.0361 26.96L21.036 26.9594L20.8881 26.9843ZM20.9109 26.6468L21.0543 26.6908L21.0675 26.6477L21.0547 26.6043L20.9109 26.6468ZM20.9452 26.068L20.8147 25.994L20.8096 26.0031L20.8057 26.0128L20.9452 26.068ZM21.0003 25.9723L21.1298 26.048L21.1525 26.0092L21.1501 25.9644L21.0003 25.9723ZM20.878 23.6563H20.7278L20.7283 23.6642L20.878 23.6563ZM21.6724 22.8049V22.6549H21.6592L21.6462 22.6572L21.6724 22.8049ZM22.6426 23.502L22.7924 23.4941L22.7917 23.4811L22.7887 23.4684L22.6426 23.502ZM22.6662 23.9506L22.5165 23.9585L22.5328 24.2674L22.7652 24.0633L22.6662 23.9506ZM26.0583 22.1157L26.0189 21.971L26.0161 21.9718L26.0583 22.1157ZM36.2159 28.0443L36.071 28.0832L36.0712 28.0841L36.2159 28.0443ZM36.2866 31.9966L36.1397 31.9661L36.1395 31.9671L36.2866 31.9966ZM35.6558 32.561L35.5673 32.4398L35.196 32.711H35.6558V32.561ZM34.5366 48.4583H34.3866L34.3866 48.459L34.5366 48.4583ZM21.2831 47.7685H21.1331V47.9185H21.2831V47.7685ZM33.1574 47.7685V47.9185H33.3074V47.7685H33.1574ZM21.2831 44.6688V44.5188H21.1331V44.6688H21.2831ZM33.1574 44.6688H33.3074V44.5188H33.1574V44.6688ZM50.4872 54.85H18.5878V55.15H50.4872V54.85ZM50.352 54.935L50.352 54.9351L50.6224 55.0649L50.6225 55.0648L50.352 54.935ZM52.9232 52.4589C52.9232 53.7847 51.8439 54.8499 50.4872 54.8499V55.1499C52.0047 55.1499 53.2232 53.9552 53.2232 52.4589H52.9232ZM52.9232 17.5391V52.4589H53.2232V17.5391H52.9232ZM50.4872 15.15C51.844 15.15 52.9232 16.2135 52.9232 17.5391H53.2232C53.2232 16.0427 52.0045 14.85 50.4872 14.85V15.15ZM44.3441 15.1515L50.4873 15.15L50.4872 14.85L44.344 14.8515L44.3441 15.1515ZM44.194 15V15.0015H44.494V15H44.194ZM24.6264 15.15H44.344V14.85H24.6264V15.15ZM24.7764 15V15H24.4764V15H24.7764ZM18.5859 15.15H24.6264V14.85H18.5859V15.15ZM16.15 17.5392C16.15 16.2136 17.2291 15.15 18.5859 15.15V14.85C17.0686 14.85 15.85 16.0427 15.85 17.5392H16.15ZM16.1519 52.4609L16.15 17.5392L15.85 17.5392L15.8519 52.4609L16.1519 52.4609ZM18.5878 54.85C17.231 54.85 16.1519 53.7865 16.1519 52.4609H15.8519C15.8519 53.9573 17.0706 55.15 18.5878 55.15V54.85ZM42.6922 16.2549H25.6468V16.5549H42.6922V16.2549ZM42.8003 16.2611C42.7688 16.2611 42.7386 16.2593 42.7097 16.2559L42.6746 16.5539C42.7156 16.5587 42.7575 16.5611 42.8003 16.5611V16.2611ZM50.4872 16.2611H42.8003V16.5611H50.4872V16.2611ZM51.7861 17.5392C51.7861 16.8184 51.2124 16.2611 50.4872 16.2611V16.5611C51.0522 16.5611 51.4861 16.9895 51.4861 17.5392H51.7861ZM51.7861 52.4609V17.5392H51.4861V52.4609H51.7861ZM50.4872 53.739C51.2146 53.739 51.7861 53.1796 51.7861 52.4609H51.4861C51.4861 53.009 51.0538 53.439 50.4872 53.439V53.739ZM18.5879 53.739H50.4872V53.439H18.5879V53.739ZM17.2871 52.459C17.2871 53.1797 17.8606 53.739 18.5879 53.739V53.439C18.0211 53.439 17.5871 53.0088 17.5871 52.459H17.2871ZM17.2871 17.5392V52.459H17.5871V17.5392H17.2871ZM18.5879 16.2611C17.861 16.2611 17.2871 16.8182 17.2871 17.5392H17.5871C17.5871 16.9897 18.0209 16.5611 18.5879 16.5611V16.2611ZM25.5556 16.2593L18.5878 16.2611L18.5879 16.5611L25.5557 16.5593L25.5556 16.2593ZM25.6321 16.2556C25.6076 16.258 25.5821 16.2593 25.5557 16.2593V16.5593C25.5915 16.5593 25.6268 16.5576 25.6614 16.5542L25.6321 16.2556ZM26.2177 34.6622H26.3533V34.3622H26.2177V34.6622ZM25.6117 34.2084C25.7485 34.4363 25.923 34.6622 26.2177 34.6622V34.3622C26.1037 34.3622 26.007 34.2841 25.869 34.054L25.6117 34.2084ZM23.7711 30.7692L25.6081 34.202L25.8726 34.0604L24.0356 30.6276L23.7711 30.7692ZM24.0113 29.5155C23.6897 29.7853 23.5299 30.3193 23.7712 30.7693L24.0356 30.6275C23.8683 30.3156 23.9797 29.9336 24.2041 29.7454L24.0113 29.5155ZM25.1853 29.7761C24.9476 29.4202 24.4504 29.2187 24.0239 29.506L24.1915 29.7548C24.4448 29.5842 24.7648 29.6867 24.9358 29.9427L25.1853 29.7761ZM26.6229 32.4595L25.1928 29.7886L24.9283 29.9302L26.3584 32.6011L26.6229 32.4595ZM31.3564 27.768L26.3881 32.4208L26.5932 32.6398L31.5615 27.987L31.3564 27.768ZM32.5365 27.8712C32.2846 27.494 31.6934 27.3894 31.347 27.7777L31.5708 27.9774C31.7705 27.7536 32.1303 27.8031 32.287 28.0378L32.5365 27.8712ZM32.4394 29.1374C32.6132 28.9916 32.7119 28.7604 32.7316 28.5302C32.7515 28.2986 32.6935 28.045 32.5237 27.8547L32.2998 28.0544C32.403 28.1701 32.4472 28.3359 32.4327 28.5045C32.4181 28.6746 32.3459 28.8243 32.2467 28.9075L32.4394 29.1374ZM26.8644 34.3961L32.446 29.1316L32.2401 28.9134L26.6586 34.1779L26.8644 34.3961ZM26.3529 34.6619C26.4455 34.6619 26.553 34.6365 26.6486 34.5895C26.7433 34.5428 26.8438 34.4659 26.8975 34.3502L26.6254 34.2238C26.6105 34.256 26.5744 34.2916 26.516 34.3204C26.4583 34.3488 26.3959 34.3619 26.3529 34.3619V34.6619ZM26.4431 34.3921L26.4427 34.3918L26.263 34.632L26.2634 34.6323L26.4431 34.3921ZM49.4352 25.5817H39.1521V25.8817H49.4352V25.5817ZM49.9963 25.2449C49.9969 25.3359 49.9557 25.4135 49.8674 25.474C49.7749 25.5374 49.629 25.5817 49.4352 25.5817V25.8817C49.67 25.8817 49.8806 25.8287 50.037 25.7215C50.1975 25.6114 50.2976 25.4451 50.2963 25.2429L49.9963 25.2449ZM49.4332 24.9061C49.6268 24.9061 49.7728 24.9506 49.8657 25.0143C49.9547 25.0753 49.9963 25.1533 49.9963 25.2439H50.2963C50.2963 25.0426 50.1957 24.8767 50.0353 24.7668C49.8788 24.6595 49.6683 24.6061 49.4332 24.6061V24.9061ZM39.1521 24.9061H49.4332V24.6061H39.1521V24.9061ZM38.589 25.2439C38.589 25.1529 38.6309 25.0749 38.7201 25.0139C38.8133 24.9503 38.9594 24.9061 39.1521 24.9061V24.6061C38.9181 24.6061 38.7077 24.6592 38.551 24.7662C38.3903 24.8759 38.289 25.0417 38.289 25.2439H38.589ZM39.1521 25.5817C38.9586 25.5817 38.8125 25.5372 38.7196 25.4735C38.6306 25.4125 38.589 25.3345 38.589 25.2439H38.289C38.289 25.4452 38.3897 25.6111 38.5501 25.721C38.7066 25.8283 38.9171 25.8817 39.1521 25.8817V25.5817ZM39.1521 30.7598H49.4352V30.4598H39.1521V30.7598ZM38.289 30.122C38.289 30.3233 38.3897 30.4891 38.5501 30.5991C38.7066 30.7063 38.9171 30.7598 39.1521 30.7598V30.4598C38.9586 30.4598 38.8125 30.4152 38.7196 30.3516C38.6306 30.2906 38.589 30.2125 38.589 30.122H38.289ZM39.1521 29.4841C38.9181 29.4841 38.7077 29.5372 38.551 29.6442C38.3903 29.7539 38.289 29.9198 38.289 30.122H38.589C38.589 30.0309 38.6309 29.9529 38.7201 29.892C38.8133 29.8284 38.9594 29.7841 39.1521 29.7841V29.4841ZM49.4332 29.4841H39.1521V29.7841H49.4332V29.4841ZM50.2963 30.122C50.2963 29.9206 50.1957 29.7548 50.0353 29.6449C49.8788 29.5376 49.6683 29.4841 49.4332 29.4841V29.7841C49.6268 29.7841 49.7728 29.8287 49.8657 29.8923C49.9547 29.9533 49.9963 30.0314 49.9963 30.122H50.2963ZM49.4352 30.7598C49.6773 30.7598 49.8877 30.6909 50.041 30.5782C50.1927 30.4667 50.2978 30.3036 50.2963 30.1208L49.9963 30.1231C49.9968 30.1842 49.9606 30.265 49.8633 30.3364C49.7678 30.4067 49.6216 30.4598 49.4352 30.4598V30.7598ZM49.4352 35.3378H39.1521V35.6378H49.4352V35.3378ZM49.9963 35.001C49.9969 35.0912 49.9559 35.1689 49.8673 35.2297C49.7747 35.2933 49.6288 35.3378 49.4352 35.3378V35.6378C49.6702 35.6378 49.8807 35.5844 50.0371 35.477C50.1974 35.3669 50.2976 35.2007 50.2963 34.999L49.9963 35.001ZM49.4332 34.6622C49.6268 34.6622 49.7728 34.7067 49.8657 34.7704C49.9547 34.8314 49.9963 34.9094 49.9963 35H50.2963C50.2963 34.7987 50.1957 34.6328 50.0353 34.5229C49.8788 34.4156 49.6683 34.3622 49.4332 34.3622V34.6622ZM39.1521 34.6622H49.4332V34.3622H39.1521V34.6622ZM38.589 35C38.589 34.909 38.6309 34.831 38.7201 34.77C38.8133 34.7064 38.9594 34.6622 39.1521 34.6622V34.3622C38.9181 34.3622 38.7077 34.4153 38.551 34.5223C38.3903 34.632 38.289 34.7978 38.289 35H38.589ZM39.1521 35.3378C38.9586 35.3378 38.8125 35.2933 38.7196 35.2296C38.6306 35.1686 38.589 35.0906 38.589 35H38.289C38.289 35.2013 38.3897 35.3672 38.5501 35.4771C38.7066 35.5844 38.9171 35.6378 39.1521 35.6378V35.3378ZM39.1521 39.5402H49.4352V39.2402H39.1521V39.5402ZM38.289 38.9024C38.289 39.1038 38.3897 39.2696 38.5501 39.3795C38.7066 39.4868 38.9171 39.5402 39.1521 39.5402V39.2402C38.9586 39.2402 38.8125 39.1957 38.7196 39.1321C38.6306 39.0711 38.589 38.993 38.589 38.9024H38.289ZM39.1521 38.2646C38.9181 38.2646 38.7077 38.3177 38.551 38.4247C38.3903 38.5344 38.289 38.7003 38.289 38.9024H38.589C38.589 38.8114 38.6309 38.7334 38.7201 38.6725C38.8133 38.6089 38.9594 38.5646 39.1521 38.5646V38.2646ZM49.4332 38.2646H39.1521V38.5646H49.4332V38.2646ZM50.2963 38.9024C50.2963 38.7011 50.1957 38.5353 50.0353 38.4253C49.8788 38.3181 49.6683 38.2646 49.4332 38.2646V38.5646C49.6268 38.5646 49.7728 38.6091 49.8657 38.6728C49.9547 38.7338 49.9963 38.8118 49.9963 38.9024H50.2963ZM49.4352 39.5402C49.6702 39.5402 49.8807 39.4868 50.0371 39.3795C50.1974 39.2694 50.2976 39.1031 50.2963 38.9015L49.9963 38.9034C49.9969 38.9936 49.9559 39.0713 49.8673 39.1322C49.7747 39.1957 49.6288 39.2402 49.4352 39.2402V39.5402ZM49.4352 44.1183H39.1521V44.4183H49.4352V44.1183ZM49.9963 43.7817C49.9968 43.8427 49.9606 43.9235 49.8633 43.995C49.7678 44.0652 49.6216 44.1183 49.4352 44.1183V44.4183C49.6773 44.4183 49.8877 44.3494 50.041 44.2367C50.1927 44.1252 50.2978 43.9621 50.2963 43.7793L49.9963 43.7817ZM49.4332 43.4427C49.6268 43.4427 49.7728 43.4872 49.8657 43.5508C49.9547 43.6118 49.9963 43.6899 49.9963 43.7805H50.2963C50.2963 43.5792 50.1957 43.4133 50.0353 43.3034C49.8788 43.1961 49.6683 43.1427 49.4332 43.1427V43.4427ZM39.1521 43.4427H49.4332V43.1427H39.1521V43.4427ZM38.589 43.7805C38.589 43.6895 38.6309 43.6114 38.7201 43.5505C38.8133 43.4869 38.9594 43.4427 39.1521 43.4427V43.1427C38.9181 43.1427 38.7077 43.1958 38.551 43.3028C38.3903 43.4124 38.289 43.5783 38.289 43.7805H38.589ZM39.1521 44.1183C38.9586 44.1183 38.8125 44.0738 38.7196 44.0101C38.6306 43.9491 38.589 43.8711 38.589 43.7805H38.289C38.289 43.9818 38.3897 44.1477 38.5501 44.2576C38.7066 44.3649 38.9171 44.4183 39.1521 44.4183V44.1183ZM39.1521 49.2963H49.4352V48.9963H39.1521V49.2963ZM38.289 48.6585C38.289 48.8599 38.3897 49.0257 38.5501 49.1356C38.7066 49.2429 38.9171 49.2963 39.1521 49.2963V48.9963C38.9586 48.9963 38.8125 48.9518 38.7196 48.8882C38.6306 48.8272 38.589 48.7491 38.589 48.6585H38.289ZM39.1521 48.0207C38.9181 48.0207 38.7077 48.0738 38.551 48.1808C38.3903 48.2905 38.289 48.4564 38.289 48.6585H38.589C38.589 48.5675 38.6309 48.4895 38.7201 48.4286C38.8133 48.365 38.9594 48.3207 39.1521 48.3207V48.0207ZM49.4332 48.0207H39.1521V48.3207H49.4332V48.0207ZM50.2963 48.6585C50.2963 48.4572 50.1957 48.2914 50.0353 48.1814C49.8788 48.0742 49.6683 48.0207 49.4332 48.0207V48.3207C49.6268 48.3207 49.7728 48.3652 49.8657 48.4289C49.9547 48.4899 49.9963 48.5679 49.9963 48.6585H50.2963ZM49.4352 49.2963C49.67 49.2963 49.8806 49.2433 50.037 49.1361C50.1975 49.0261 50.2976 48.8597 50.2963 48.6576L49.9963 48.6595C49.9969 48.7505 49.9557 48.8281 49.8674 48.8887C49.7749 48.952 49.629 48.9963 49.4352 48.9963V49.2963ZM28.1927 39.2402C26.753 39.2402 25.3846 38.8968 24.0842 38.1401L23.9334 38.3994C25.2816 39.1839 26.7024 39.5402 28.1927 39.5402V39.2402ZM28.1313 39.5271L28.1315 39.5272L28.2539 39.2533L28.2537 39.2532L28.1313 39.5271ZM30.3726 38.8976C29.6285 39.1703 28.8811 39.2402 28.1925 39.2402V39.5402C28.9004 39.5402 29.6865 39.4686 30.4759 39.1792L30.3726 38.8976ZM33.6198 37.1542C32.6889 37.9695 31.5834 38.5718 30.3854 38.8935L30.4632 39.1833C31.7071 38.8492 32.8533 38.2243 33.8174 37.3799L33.6198 37.1542ZM33.8877 37.6204L33.8684 37.259L33.5688 37.2751L33.5881 37.6365L33.8877 37.6204ZM34.6251 38.2646C34.2366 38.2646 33.8879 37.9908 33.8879 37.6284H33.5879C33.5879 38.207 34.1264 38.5646 34.6251 38.5646V38.2646ZM35.3622 37.6293C35.364 37.931 35.0836 38.2646 34.6251 38.2646V38.5646C35.233 38.5646 35.6651 38.1121 35.6622 37.6275L35.3622 37.6293ZM35.2368 35.29L35.3624 37.6365L35.662 37.6204L35.5364 35.274L35.2368 35.29ZM35.3162 35.1076C35.2971 35.1399 35.2779 35.1721 35.2584 35.2041L35.5148 35.3599C35.5349 35.3268 35.5549 35.2935 35.5746 35.26L35.3162 35.1076ZM35.3328 34.6424C35.3799 34.7923 35.37 34.9671 35.306 35.1285L35.5848 35.2392C35.6712 35.0214 35.689 34.7755 35.6191 34.5526L35.3328 34.6424ZM35.3543 34.2718C35.3701 34.3669 35.3617 34.4626 35.3331 34.5516L35.6188 34.6434C35.6612 34.511 35.6742 34.3671 35.6503 34.2227L35.3543 34.2718ZM34.8384 33.6943C34.9348 33.6705 35.0424 33.7017 35.1418 33.8004C35.2421 33.8999 35.3254 34.0621 35.3537 34.2677L35.6509 34.2267C35.615 33.9667 35.5073 33.7404 35.3531 33.5875C35.1982 33.4337 34.9879 33.3485 34.7666 33.403L34.8384 33.6943ZM34.7261 33.7116L34.8245 33.697L34.7805 33.4003L34.682 33.4149L34.7261 33.7116ZM34.4481 33.6866C34.5289 33.6866 34.6036 33.6947 34.6718 33.7097L34.7363 33.4168C34.6454 33.3968 34.549 33.3866 34.4481 33.3866V33.6866ZM33.9786 33.8091C34.0967 33.7331 34.2551 33.6866 34.4481 33.6866V33.3866C34.2075 33.3866 33.9905 33.4447 33.8162 33.5569L33.9786 33.8091ZM32.2147 34.0844L33.9194 33.8314L33.8754 33.5346L32.1706 33.7877L32.2147 34.0844ZM31.7676 34.7647C31.716 34.4531 31.9234 34.1444 32.2228 34.083L32.1625 33.7891C31.6979 33.8843 31.3949 34.3505 31.4717 34.8138L31.7676 34.7647ZM32.2552 35.3378C32.0453 35.3378 31.825 35.12 31.7677 34.7653L31.4716 34.8131C31.5394 35.2333 31.8297 35.6378 32.2552 35.6378V35.3378ZM32.2078 35.6301L32.2078 35.6301L32.3027 35.3455L32.3026 35.3455L32.2078 35.6301ZM32.3194 35.3378H32.2552V35.6378H32.3194V35.3378ZM33.591 35.1474L32.2974 35.3394L32.3415 35.6362L33.6351 35.4441L33.591 35.1474ZM33.7651 35.3306L33.7628 35.2878L33.4633 35.3038L33.4656 35.3466L33.7651 35.3306ZM30.0465 37.852C31.4905 37.4449 32.7958 36.6138 33.7329 35.4318L33.4978 35.2454C32.6026 36.3746 31.3526 37.1721 29.9651 37.5633L30.0465 37.852ZM24.7015 37.1382C26.3374 38.0665 28.1911 38.3548 30.045 37.8524L29.9665 37.5628C28.1942 38.0431 26.4215 37.7693 24.8496 36.8773L24.7015 37.1382ZM21.4233 32.8436C21.9218 34.6293 23.0598 36.2048 24.7014 37.1382L24.8497 36.8774C23.2835 35.9869 22.1916 34.4801 21.7122 32.763L21.4233 32.8436ZM21.3518 29.4744C21.0647 30.6248 21.1383 31.7022 21.4222 32.8396L21.7133 32.767C21.4378 31.6634 21.3707 30.6377 21.6429 29.5471L21.3518 29.4744ZM20.91 28.8165C21.0362 28.8421 21.1623 28.9353 21.2506 29.0684C21.3389 29.2014 21.3759 29.3541 21.3503 29.4812L21.6444 29.5403C21.6892 29.3175 21.6216 29.0849 21.5006 28.9025C21.3796 28.7201 21.1917 28.5676 20.9697 28.5225L20.91 28.8165ZM20.2498 29.2593C20.2754 29.1319 20.3684 29.0051 20.5006 28.9165C20.6329 28.8279 20.7843 28.791 20.91 28.8165L20.9697 28.5225C20.7473 28.4773 20.5153 28.5456 20.3336 28.6673C20.1519 28.789 20.0004 28.9777 19.9557 29.2002L20.2498 29.2593ZM20.3177 33.184C19.9769 31.9487 19.9758 30.5717 20.2496 29.2604L19.9559 29.1991C19.674 30.5493 19.673 31.9754 20.0285 33.2638L20.3177 33.184ZM24.0855 38.1409C22.2367 37.04 20.8671 35.2499 20.3181 33.1854L20.0282 33.2625C20.5977 35.4044 22.0174 37.2586 23.9321 38.3987L24.0855 38.1409ZM35.5165 32.7108H35.6561V32.4108H35.5165V32.7108ZM34.8094 31.6838C34.7645 31.9078 34.8322 32.1417 34.9537 32.3253C35.0751 32.5088 35.2637 32.6623 35.4866 32.7077L35.5465 32.4138C35.4195 32.3879 35.2927 32.294 35.2039 32.1597C35.1151 32.0255 35.0777 31.8714 35.1035 31.7428L34.8094 31.6838ZM34.7407 28.5045C35.0151 29.5387 35.0158 30.644 34.8093 31.6841L35.1036 31.7425C35.3176 30.664 35.3183 29.5119 35.0307 28.4276L34.7407 28.5045ZM26.4487 23.6706C30.0807 22.7037 33.7811 24.8441 34.7406 28.5041L35.0308 28.428C34.0291 24.6071 30.1639 22.3711 26.3715 23.3807L26.4487 23.6706ZM22.8889 26.0135C23.7736 24.8712 24.9958 24.0654 26.4495 23.6704L26.3708 23.3809C24.8568 23.7923 23.578 24.6338 22.6517 25.8298L22.8889 26.0135ZM22.9209 25.9286L22.9201 25.9137L22.6205 25.9295L22.6213 25.9444L22.9209 25.9286ZM24.0367 25.5954L22.7489 25.7882L22.7933 26.0849L24.0811 25.8921L24.0367 25.5954ZM24.919 26.4215C24.8824 26.1609 24.7727 25.9345 24.6161 25.7817C24.4588 25.6281 24.2464 25.544 24.0236 25.598L24.0943 25.8895C24.1945 25.8652 24.3053 25.8975 24.4066 25.9964C24.5087 26.096 24.5931 26.2581 24.6219 26.4632L24.919 26.4215ZM24.2175 27.4425C24.6869 27.3479 24.9968 26.883 24.9183 26.4174L24.6225 26.4673C24.6746 26.7765 24.4655 27.0865 24.1582 27.1485L24.2175 27.4425ZM22.4539 27.7067L24.21 27.4439L24.1656 27.1472L22.4095 27.41L22.4539 27.7067ZM21.9349 27.8329C22.1418 27.8329 22.3383 27.7811 22.504 27.6898L22.3593 27.427C22.2387 27.4934 22.0921 27.5329 21.9349 27.5329V27.8329ZM21.7063 27.8094C21.7809 27.8247 21.8576 27.8329 21.9349 27.8329L21.9349 27.5329C21.8789 27.5329 21.8224 27.5269 21.7668 27.5155L21.7063 27.8094ZM21.6218 27.8313L21.7588 27.8108L21.7143 27.5141L21.5774 27.5346L21.6218 27.8313ZM21.5343 27.8329H21.5996V27.5329H21.5343V27.8329ZM20.7401 27.0087C20.8094 27.4307 21.1051 27.8329 21.5343 27.8329V27.5329C21.3173 27.5329 21.094 27.3128 21.0361 26.96L20.7401 27.0087ZM20.7675 26.6028C20.7281 26.7312 20.7167 26.87 20.7402 27.0093L21.036 26.9594C21.0207 26.8683 21.0279 26.7767 21.0543 26.6908L20.7675 26.6028ZM20.8057 26.0128C20.7208 26.2274 20.7019 26.4689 20.767 26.6893L21.0547 26.6043C21.0107 26.4552 21.0216 26.2826 21.0847 26.1232L20.8057 26.0128ZM20.8708 25.8966C20.8519 25.9289 20.8332 25.9614 20.8147 25.994L21.0757 26.142C21.0935 26.1105 21.1116 26.0791 21.1298 26.048L20.8708 25.8966ZM20.7283 23.6642L20.8505 25.9802L21.1501 25.9644L21.0278 23.6484L20.7283 23.6642ZM21.6462 22.6572C21.1563 22.7441 20.728 23.0983 20.728 23.6563H21.028C21.028 23.2847 21.3074 23.0219 21.6986 22.9526L21.6462 22.6572ZM22.7887 23.4684C22.6829 23.0085 22.2665 22.6549 21.6724 22.6549V22.9549C22.1375 22.9549 22.4242 23.2223 22.4964 23.5357L22.7887 23.4684ZM22.816 23.9427L22.7924 23.4941L22.4928 23.5099L22.5165 23.9585L22.816 23.9427ZM26.0161 21.9718C24.7218 22.3507 23.5476 22.977 22.5673 23.8379L22.7652 24.0633C23.7102 23.2335 24.8448 22.6273 26.1004 22.2597L26.0161 21.9718ZM36.3607 28.0055C35.149 23.4819 30.5148 20.7487 26.0189 21.971L26.0976 22.2605C30.429 21.0829 34.901 23.7157 36.071 28.0832L36.3607 28.0055ZM36.4334 32.0272C36.7166 30.6672 36.7176 29.3021 36.3605 28.0045L36.0712 28.0841C36.4138 29.3289 36.4148 30.645 36.1397 31.9661L36.4334 32.0272ZM35.6558 32.711C36.0133 32.711 36.3499 32.4436 36.4336 32.0261L36.1395 31.9671C36.0818 32.2546 35.8602 32.411 35.6558 32.411V32.711ZM35.5676 32.4396L35.5673 32.4398L35.7443 32.6821L35.7445 32.6819L35.5676 32.4396ZM33.847 48.9963H20.592V49.2963H33.847V48.9963ZM34.3866 48.459C34.3873 48.6313 34.3307 48.7629 34.2421 48.8511C34.1533 48.9395 34.0205 48.9963 33.847 48.9963V49.2963C34.088 49.2963 34.3009 49.2159 34.4538 49.0637C34.6068 48.9113 34.6876 48.6989 34.6866 48.4576L34.3866 48.459ZM34.3866 43.9807V48.4583H34.6866V43.9807H34.3866ZM33.847 43.4427C34.0201 43.4427 34.1525 43.4997 34.2412 43.5884C34.3299 43.677 34.3866 43.809 34.3866 43.9807H34.6866C34.6866 43.7407 34.6057 43.5286 34.4533 43.3762C34.3008 43.2238 34.0883 43.1427 33.847 43.1427V43.4427ZM20.592 43.4427H33.847V43.1427H20.592V43.4427ZM20.0524 43.9807C20.0524 43.8082 20.1095 43.6764 20.1983 43.5879C20.2872 43.4994 20.4196 43.4427 20.592 43.4427V43.1427C20.3517 43.1427 20.1394 43.2232 19.9866 43.3753C19.8338 43.5275 19.7524 43.7397 19.7524 43.9807H20.0524ZM20.0524 48.4583V43.9807H19.7524V48.4583H20.0524ZM20.592 48.9963C20.4189 48.9963 20.2865 48.9393 20.1978 48.8506C20.1092 48.762 20.0524 48.63 20.0524 48.4583H19.7524C19.7524 48.6983 19.8333 48.9104 19.9858 49.0628C20.1382 49.2152 20.3507 49.2963 20.592 49.2963V48.9963ZM21.2831 47.9185H33.1574V47.6185H21.2831V47.9185ZM21.1331 44.6688V47.7685H21.4331V44.6688H21.1331ZM33.1574 44.5188H21.2831V44.8188H33.1574V44.5188ZM33.3074 47.7685V44.6688H33.0074V47.7685H33.3074Z" fill="white"/>
</svg>
