<svg xmlns="http://www.w3.org/2000/svg" width="20" height="20" viewBox="0 0 20 20">
    <g fill="none" fill-rule="evenodd">
        <path d="M0 0h20v20H0z"/>
        <path fill="#005EB8" d="M8.047 9.511c.14.838 1.605 2.303 2.512 2.512.488.07.767-.488 1.046-.907.14-.208.28-.208.558-.139.558.209 1.116.558 1.674.767.07.07.14.14.21.28.07 1.046-.697 1.743-1.605 1.953-2.79.557-6.977-3.628-6.418-6.419.209-.907.976-1.674 1.953-1.535.14 0 .21.07.28.14.208.627.557 1.116.766 1.744.14.21.07.419-.139.558-.349.209-.977.488-.837 1.046zM10 1c5.023 0 9 4.046 9 9 0 5.023-3.977 9-9 9-4.954 0-9-3.977-9-9 0-4.954 4.046-9 9-9zm0 1.186A7.8 7.8 0 0 0 2.186 10 7.8 7.8 0 0 0 10 17.814 7.8 7.8 0 0 0 17.814 10 7.8 7.8 0 0 0 10 2.186z"/>
    </g>
</svg>
