<svg width="50" height="50" viewBox="0 0 50 50" fill="none" xmlns="http://www.w3.org/2000/svg">
<path fill-rule="evenodd" clip-rule="evenodd" d="M16.2413 33.7587C17.8866 35.4136 19.7056 36.8853 21.6672 38.1503L24.247 34.063H24.2494C24.5466 33.5899 25.1553 33.4211 25.6546 33.6707L36.3565 39.0205C36.863 39.275 37.0888 39.8717 36.8796 40.3972L33.3154 49.3157H33.3131C33.1228 49.7936 32.6235 50.0718 32.1171 49.9839C23.8377 48.562 16.7642 44.9241 10.9226 39.0798C5.07587 33.2331 1.43805 26.1592 0.0161533 17.8829C-0.0718203 17.3764 0.206368 16.8772 0.684308 16.6869L9.6028 13.1228V13.1204C10.1283 12.9112 10.7251 13.137 10.9795 13.6435L16.3269 24.3479C16.5766 24.8472 16.4077 25.4559 15.9346 25.7531L11.8474 28.3329L11.8498 28.3353C13.1123 30.2969 14.5841 32.1158 16.2389 33.7612L16.2413 33.7587ZM22.932 40.2163C22.6157 40.7132 21.9643 40.8701 21.4602 40.5705C18.9945 39.1035 16.7262 37.3298 14.7049 35.2944C12.6173 33.2068 10.8579 30.9552 9.42885 28.5392C9.12926 28.0352 9.28618 27.3837 9.78312 27.0674L13.9464 24.4377L9.47878 15.5095L2.31453 18.3746C3.76016 25.8407 7.13649 32.2198 12.4553 37.5409C17.7765 42.8598 24.1585 46.236 31.6216 47.6817L34.4867 40.5174L25.5585 36.0521L22.932 40.2163ZM23.0913 28.2282H23.0889C22.7204 28.3185 22.328 28.2115 22.0594 27.9405C21.7883 27.6718 21.6813 27.2795 21.7717 26.9109L23.3338 20.6597L23.3362 20.6573C21.2391 16.6319 21.2034 11.8454 23.2411 7.7915C25.2764 3.73515 29.1377 0.906031 33.6174 0.180476C38.0969 -0.54234 42.6503 0.931839 45.8599 4.13932C49.0674 7.34917 50.5415 11.9025 49.8187 16.3818C49.0935 20.8614 46.2641 24.7227 42.2077 26.7581C38.1537 28.7959 33.3677 28.7602 29.3419 26.663L23.0913 28.2282ZM29.2256 24.4548H29.2232C29.4943 24.3858 29.7772 24.4263 30.0198 24.5618C33.408 26.4616 37.5048 26.5971 41.0121 24.9279C44.5168 23.2564 46.9943 19.9871 47.6504 16.1616C48.309 12.3335 47.0679 8.42461 44.3216 5.67821C41.5778 2.93437 37.6687 1.69319 33.8406 2.34942C30.0149 3.00802 26.7458 5.48556 25.0743 8.9902C23.4052 12.4973 23.5407 16.5939 25.4405 19.9825C25.576 20.2226 25.614 20.508 25.5475 20.7766L24.3182 25.6818L29.2234 24.4549L29.2256 24.4548ZM31.5224 10.8689C30.9209 10.8689 30.4358 10.3815 30.4358 9.78226C30.4358 9.18305 30.9209 8.69563 31.5224 8.69563H40.2175C40.8167 8.69563 41.3042 9.18305 41.3042 9.78226C41.3042 10.3815 40.8168 10.8689 40.2175 10.8689H31.5224ZM31.5224 15.2177C30.9209 15.2177 30.4358 14.7302 30.4358 14.131C30.4358 13.5295 30.9209 13.042 31.5224 13.042H40.2845C40.8861 13.042 41.3711 13.5294 41.3711 14.131C41.3711 14.7302 40.8861 15.2177 40.2845 15.2177H31.5224ZM31.5224 19.5664V19.564C30.9209 19.564 30.4358 19.079 30.4358 18.4774C30.4358 17.8782 30.9209 17.3908 31.5224 17.3908H35.8712H35.8688C36.4704 17.3908 36.9578 17.8782 36.9578 18.4774C36.9578 19.079 36.4704 19.564 35.8688 19.564H31.5201L31.5224 19.5664Z" fill="#005EB8"/>
</svg>
