<svg xmlns="http://www.w3.org/2000/svg" width="58" height="60" viewBox="0 0 58 60">
    <g fill="none" fill-rule="evenodd">
        <path d="M-1 0h60v60H-1z"/>
        <g fill="#5C6373">
            <path d="M35.431 9.122a5.12 5.12 0 0 1-5.12 5.12 5.12 5.12 0 1 1 0-10.242 5.12 5.12 0 0 1 5.12 5.122M24.436 29.737a16.95 16.95 0 0 1 13.387 1.253h8.75a2.52 2.52 0 1 0 0-5.04h-9.707l-1.08-5.67a3.84 3.84 0 0 0-3.767-3.12h-3.75a3.84 3.84 0 0 0-3.84 3.839l.007 8.738zM54.426 52.861a3.071 3.071 0 0 0 2.648-1.524 3.067 3.067 0 0 0 .011-3.056l-6.637-11.667a3.064 3.064 0 0 0-2.662-1.544h-5.033a16.93 16.93 0 0 1 3.238 6.125l5.77 10.115a3.063 3.063 0 0 0 2.665 1.551z"/>
            <path d="M15.93 24.854c.19.164.297.399.3.647V46.27a13.463 13.463 0 1 0 25.378-6.613 13.46 13.46 0 0 0-20.713-3.94V25.532c.002-1.066-1.653-1.292-4.964-.677zM29.67 37.14a8.75 8.75 0 1 1-6.159 14.966 8.743 8.743 0 0 1-2.59-6.168v-.07a8.751 8.751 0 0 1 8.75-8.728h-.001z"/>
            <path d="M33.168 45.9a3.5 3.5 0 1 1-6.999 0 3.5 3.5 0 0 1 7 0"/>
        </g>
        <g fill="#005EB8">
            <path d="M10.26 4.9a4.901 4.901 0 0 1-9.8 0 4.901 4.901 0 0 1 9.8 0M18.963 28.345c.92 0 1.792-.583 2.09-1.548.329-1.067-.264-2.207-1.283-2.664l-6.844-3.07-4.89-7.765a3.738 3.738 0 0 0-3.617-2.336c-2.032.08-3.59 1.857-3.59 3.892L.827 30.868c0 .9.318 1.724.846 2.37.36.44.532 1.004.544 1.573l.148 7.209-.116 11.112a2.805 2.805 0 0 0 2.775 2.834h.03a2.806 2.806 0 0 0 2.804-2.776l.117-11.156v-.088L7.8 33.362c-.007-.35.063-.698.202-1.019.197-.452.306-.952.306-1.477V21.92l1.274 2.022c.228.365.561.652.952.83l7.535 3.38c.291.131.595.192.894.192z"/>
        </g>
    </g>
</svg>
