<svg width="50" height="50" viewBox="0 0 50 50" fill="none" xmlns="http://www.w3.org/2000/svg">
<path fill-rule="evenodd" clip-rule="evenodd" d="M12.1429 2V17H5V47H0V48.4286H50V47H37.8571V18.4286H43.5714V42.7143H45V17H37.8571V2H12.1429ZM13.5714 3.42857H36.4286V47H33.5714V34.1429H16.4286V47H13.5714V3.42857ZM22.1429 5.57143V9.14286H18.5714V14.8571H22.1429V18.4286H27.8571V14.8571H31.4286V9.14286H27.8571V5.57143H22.1429ZM23.5714 7H26.4286V10.5714H30V13.4286H26.4286V17H23.5714V13.4286H20V10.5714H23.5714V7ZM6.42857 18.4286H12.1429V47H6.42857V18.4286ZM17.8571 35.5714H24.2857V47H17.8571V35.5714ZM25.7143 35.5714H32.1429V47H25.7143V35.5714Z" fill="#005EB8"/>
</svg>
