<svg xmlns="http://www.w3.org/2000/svg" width="59" height="60" viewBox="0 0 59 60">
    <g fill="none" fill-rule="evenodd">
        <path d="M-1 0h60v60H-1z"/>
        <path fill="#5C6373" d="M57.564 55.813h-2.688V10.437c0-.625-.5-1.126-1.126-1.126H43.125V1.438c0-.625-.5-1.126-1.125-1.126H16.75c-.625 0-1.126.5-1.126 1.126v7.937H5c-.625 0-1.125.5-1.125 1.125v45.376l-2.688-.002a.759.759 0 0 0-.75.75v2.436c0 .376.313.75.75.75h56.374c.376 0 .75-.313.75-.75v-2.437c.002-.498-.31-.81-.747-.81zm-27.439 0V44.251h6.187c.375 0 .749.312.749.75v10.812h-6.936zm1.938-16.374v-4.312c0-.376.313-.75.75-.75h4.563c.376 0 .75.313.75.75v4.312c0 .376-.313.75-.75.75h-4.563a.722.722 0 0 1-.75-.75zm11.375-24.002c0-.375.312-.749.75-.749h4.562c.376 0 .75.313.75.75v4.311c0 .376-.313.75-.75.75h-4.563a.759.759 0 0 1-.75-.75v-4.311zm0 9.876c0-.376.312-.75.75-.75h4.562c.376 0 .75.313.75.75v4.312c0 .376-.313.75-.75.75h-4.563a.759.759 0 0 1-.75-.75v-4.312zm0 9.812c0-.376.312-.75.75-.75h4.562c.376 0 .75.313.75.75v4.312c0 .375-.313.749-.75.749h-4.563a.759.759 0 0 1-.75-.75v-4.311zm-5.376-9.812v4.312c0 .376-.313.75-.75.75H32.75a.759.759 0 0 1-.75-.75v-4.312c0-.376.313-.75.75-.75h4.563c.437 0 .75.313.75.75zM29.376 5.064c4.062 0 7.375 3.313 7.375 7.376 0 4.063-3.313 7.376-7.375 7.376-4.063 0-7.376-3.313-7.376-7.376 0-4.065 3.313-7.376 7.376-7.376zm-8.687 20.25c0-.377.313-.75.75-.75h4.563c.376 0 .75.312.75.75v4.31c0 .377-.313.75-.75.75h-4.563a.759.759 0 0 1-.75-.75v-4.31zm0 9.811c0-.376.313-.75.75-.75h4.563c.376 0 .75.313.75.75v4.312c0 .375-.313.749-.75.749h-4.563a.759.759 0 0 1-.75-.75v-4.311zM9.251 15.437c0-.375.313-.749.75-.749h4.563c.376 0 .75.313.75.75v4.311c0 .376-.313.75-.75.75L10 20.5a.759.759 0 0 1-.75-.75v-4.314zm0 9.876c0-.376.313-.75.75-.75h4.563c.376 0 .75.313.75.75v4.312c0 .376-.313.75-.75.75L10 30.376a.759.759 0 0 1-.75-.75v-4.314zm0 9.812c0-.376.313-.75.75-.75h4.563c.376 0 .75.313.75.75v4.312c0 .375-.313.749-.75.749L10 40.188a.759.759 0 0 1-.75-.75v-4.313zm12.437 9.876c0-.376.312-.75.749-.75h6.186v11.563h-6.936V45z"/>
        <path fill="#005EB8" d="M28.25 16.75h2.25a.404.404 0 0 0 .376-.375v-2.437h2.437a.404.404 0 0 0 .376-.376v-2.25a.404.404 0 0 0-.376-.377h-2.437V8.5a.404.404 0 0 0-.376-.376h-2.25a.404.404 0 0 0-.377.376v2.436h-2.436a.404.404 0 0 0-.376.376v2.251c0 .188.188.376.376.376h2.436v2.437c.003.188.188.376.376.376z"/>
    </g>
</svg>
