<svg width="60" height="76" viewBox="0 0 60 76" fill="none" xmlns="http://www.w3.org/2000/svg">
<path fill-rule="evenodd" clip-rule="evenodd" d="M29.3235 12.6651C29.185 12.6651 29.0474 12.6607 28.9111 12.652C13.8359 12.8721 1.58472 25.2651 1.58472 40.3736C1.58472 43.9362 2.25042 47.4039 3.56699 50.6667C3.72449 51.0793 3.53429 51.5365 3.12418 51.6969C3.02908 51.7414 2.93398 51.7592 2.82104 51.7592L2.82031 51.7596C2.50232 51.7596 2.20216 51.5696 2.0922 51.2697C0.698414 47.7991 0 44.1415 0 40.3739C0 32.5836 3.02836 25.2683 8.51182 19.7429C13.1282 15.0913 19.0377 12.1781 25.4358 11.3357C23.9437 10.1771 22.9845 8.36681 22.9845 6.33257C22.9845 2.83225 25.8227 0 29.3235 0C32.8274 0 35.6625 2.83529 35.6625 6.33257C35.6625 8.36208 34.7068 10.1686 33.2204 11.3275C47.5441 13.2453 58.6295 25.5363 58.6295 40.3614C58.6295 44.0517 57.949 47.6292 56.6176 51.0345C56.4601 51.4471 55.9995 51.6372 55.5863 51.4768C55.1733 51.3195 54.983 50.8593 55.1435 50.4466C56.4125 47.2313 57.0455 43.829 57.0455 40.3435C57.0455 25.2543 44.9121 12.9466 29.8819 12.6409C29.6979 12.657 29.5117 12.6651 29.3235 12.6651ZM34.0785 6.32953C34.0785 8.83659 32.1082 10.9062 29.638 11.0694C29.5275 11.0681 29.4169 11.0675 29.306 11.0675C29.2915 11.0675 29.2728 11.0711 29.2536 11.0747L29.2415 11.0769L29.2307 11.0788C26.6578 11.0289 24.5685 8.91115 24.5685 6.32953C24.5685 3.71693 26.7083 1.57934 29.3235 1.57934C31.9388 1.57934 34.0785 3.71693 34.0785 6.32953ZM29.3235 69.6674H3.01051C2.5677 69.6674 2.21699 69.3201 2.21699 68.8747C2.21699 68.4324 2.5647 68.082 3.01051 68.082H19.8092C13.9476 66.0721 8.78514 62.2271 5.16813 56.984C4.91553 56.6189 5.01063 56.129 5.37319 55.8767C5.73873 55.6243 6.22909 55.7193 6.48168 56.0815C11.6498 63.6016 20.1936 68.0816 29.3232 68.0816C38.5326 68.0816 47.1221 63.5363 52.2902 55.906C52.5428 55.5408 53.0361 55.4458 53.3838 55.7011C53.7315 55.9535 53.8445 56.4463 53.5889 56.7937C49.976 62.132 44.7706 66.0473 38.839 68.082H58.4865C58.9293 68.082 59.28 68.4294 59.28 68.8747C59.28 69.3171 58.9293 69.6674 58.4865 69.6674H29.3235ZM7.92615 40.4464C7.96558 52.1936 17.5403 61.7494 29.3235 61.7494L29.3243 61.7495C30.3376 61.7495 31.3689 61.6693 32.3823 61.5298C32.8102 61.4675 33.1104 61.0548 33.048 60.6272C32.9856 60.1997 32.5725 59.8999 32.1445 59.9622C31.4718 60.065 30.7974 60.126 30.117 60.1521V56.2065C30.117 55.7612 29.7663 55.4138 29.3235 55.4138C28.8777 55.4138 28.53 55.7642 28.53 56.2065V60.1514C23.6662 59.9587 19.2463 58.0042 15.8941 54.9109L18.6868 52.121C19.0048 51.8033 19.0048 51.3134 18.6868 50.9958C18.3688 50.6781 17.8784 50.6781 17.5604 50.9958L14.7679 53.7855C11.6739 50.437 9.71909 46.0232 9.52645 41.1663H13.4715C13.9173 41.1663 14.265 40.8159 14.265 40.3736C14.265 39.9282 13.9143 39.5809 13.4715 39.5809H9.52655C9.71573 34.8365 11.5974 30.3747 14.7669 26.9428L17.5604 29.7335C17.7031 29.8909 17.9111 29.971 18.1162 29.971H18.1162C18.3213 29.971 18.5115 29.8909 18.6868 29.7335C19.0048 29.4158 19.0048 28.926 18.6868 28.6083L15.8929 25.8173C16.6228 25.1438 17.408 24.5201 18.2447 23.9531C18.5924 23.7156 18.6875 23.2258 18.4498 22.8606C18.212 22.5132 17.7217 22.4182 17.3561 22.6557C16.2311 23.4142 15.192 24.2693 14.2472 25.2061C14.2308 25.2201 14.2148 25.2349 14.1992 25.2505C14.184 25.2657 14.1695 25.2814 14.1557 25.2973C10.2214 29.2453 7.94541 34.6179 7.92616 40.3009C7.92406 40.3248 7.92299 40.349 7.92299 40.3736C7.92299 40.3982 7.92406 40.4224 7.92615 40.4464ZM37.5793 59.2645C37.722 59.5495 37.9924 59.7068 38.2926 59.7068L38.2926 59.7073C38.4055 59.7073 38.5303 59.6746 38.6403 59.6152C40.7917 58.5744 42.7409 57.1868 44.4187 55.5163C44.4324 55.5044 44.4458 55.4918 44.4589 55.4788C44.4637 55.474 44.4685 55.4691 44.4732 55.4641C44.4769 55.4603 44.4805 55.4565 44.484 55.4526L44.4986 55.4364C45.5696 54.3587 46.5284 53.165 47.3568 51.872C49.5495 48.4712 50.7049 44.5068 50.7178 40.4458C50.7199 40.4221 50.721 40.398 50.721 40.3736C50.721 40.3489 50.7199 40.3246 50.7178 40.3006C50.6976 34.5169 48.3622 29.2646 44.5917 25.4227C44.5563 25.3615 44.5121 25.3036 44.4589 25.2505C44.4057 25.1973 44.3477 25.1531 44.2864 25.1177C40.4474 21.3592 35.2023 19.029 29.4259 19.001C29.3924 18.9968 29.3583 18.9947 29.3235 18.9947C29.2888 18.9947 29.2547 18.9968 29.2212 19.0009C27.2101 19.01 25.2145 19.295 23.2965 19.8557C22.8685 19.9834 22.6308 20.4258 22.7586 20.8385C22.8864 21.266 23.3143 21.5035 23.7423 21.3758C25.2982 20.9259 26.9005 20.663 28.53 20.5987V24.5376C28.53 24.9829 28.8807 25.3303 29.3235 25.3303C29.7663 25.3303 30.1141 24.9829 30.117 24.5376V20.5989C34.978 20.7921 39.3955 22.745 42.7467 25.8357L39.9713 28.6083C39.6533 28.926 39.6533 29.4159 39.9713 29.7335C40.114 29.8909 40.322 29.971 40.5271 29.971C40.7351 29.971 40.9402 29.8909 41.0977 29.7335L43.8732 26.9608C46.9687 30.3091 48.9247 34.7233 49.1181 39.5809H45.1725C44.7267 39.5809 44.379 39.9312 44.379 40.3736C44.379 40.8189 44.7297 41.1663 45.1725 41.1663H49.1179C48.9255 45.8922 47.0149 50.3614 43.8825 53.7777L41.0977 50.9958C40.7797 50.6781 40.2893 50.6781 39.9713 50.9958C39.6533 51.3135 39.6533 51.8033 39.9713 52.121L42.7605 54.9074C41.3448 56.2232 39.7277 57.3414 37.9449 58.2046C37.5466 58.3946 37.3891 58.8696 37.5793 59.2645ZM45.8055 76H9.35253C8.90972 76 8.55902 75.6526 8.55902 75.2073C8.55902 74.7649 8.90672 74.4146 9.35253 74.4146H45.8085C46.2513 74.4146 46.602 74.7619 46.602 75.2073C46.5991 75.6526 46.2514 76 45.8056 76H45.8055ZM34.0458 50.3193C34.2033 50.539 34.4589 50.6667 34.7115 50.6667L34.7115 50.6666C34.869 50.6666 35.0116 50.6191 35.1365 50.5389C35.502 50.3014 35.5971 49.8116 35.3593 49.4464L29.2729 40.326L35.4069 28.0705C35.6149 27.6757 35.4544 27.2007 35.0592 27.0107C34.664 26.8029 34.1884 26.9632 33.9983 27.358L27.6593 40.0262C27.5315 40.2816 27.5493 40.5814 27.7068 40.8189L34.0458 50.3193Z" fill="#005EB8"/>
</svg>
