<?xml version="1.0" encoding="UTF-8"?>
<svg width="102px" height="81px" viewBox="0 0 102 81" version="1.1" xmlns="http://www.w3.org/2000/svg" xmlns:xlink="http://www.w3.org/1999/xlink">
    <!-- Generator: Sketch 53 (72520) - https://sketchapp.com -->
    <title>close-icon</title>
    <desc>Created with Sketch.</desc>
    <g id="Mockups" stroke="none" stroke-width="1" fill="none" fill-rule="evenodd">
        <g id="When-we-are-closed" transform="translate(-488.000000, -601.000000)" fill="#005EB8">
            <g id="Left" transform="translate(0.000000, 120.000000)">
                <g id="01" transform="translate(41.000000, 442.000000)">
                    <g id="close-icon" transform="translate(448.000000, 40.000000)">
                        <path d="M44.5179017,5.34209122 C44.5179017,6.00094203 44.6559011,6.62419038 44.8784963,7.21179067 L23.3369512,25.3480804 C22.9763565,25.6507926 22.7493281,26.087071 22.7092583,26.5589519 C22.6691884,27.0308327 22.8160998,27.498269 23.1188234,27.8588295 C23.4259916,28.2194241 23.8622586,28.4464639 24.3341394,28.4865224 C24.8015757,28.5265923 25.2734566,28.3796808 25.634017,28.0725127 L47.1801207,9.92254716 C47.9725264,10.3899834 48.8806971,10.679339 49.8601069,10.679339 C50.8395167,10.679339 51.7475848,10.389972 52.540093,9.92254716 L74.0861967,28.0725127 C74.8385439,28.7046616 75.9647854,28.6067206 76.5969457,27.8543735 C77.2290947,27.1020263 77.1356097,25.9802294 76.3832625,25.348069 L54.8417174,7.21177927 C55.0643012,6.6286008 55.202312,6.00090784 55.202312,5.34207982 C55.202312,2.41285363 52.7894584,0 49.8602322,0 C46.9307553,1.1396437e-05 44.5179017,2.41286503 44.5179017,5.34209122 Z M1.78069327,32.0524903 C0.796861665,32.0524903 9.09494702e-13,32.849352 9.09494702e-13,33.8331836 L9.09494702e-13,76.5698222 C9.09494702e-13,77.5536538 0.796861665,78.3505155 1.78069327,78.3505155 L97.9381301,78.3505155 C98.9219617,78.3505155 99.7188234,77.5536538 99.7188234,76.5698222 L99.7188234,33.8331836 C99.7188234,32.849352 98.9219617,32.0524903 97.9381301,32.0524903 L1.78069327,32.0524903 Z M3.56138655,35.6138769 L96.1574368,35.6138769 L96.1574368,74.7891289 L3.56138655,74.7891289 L3.56138655,35.6138769 Z M50,7.11340206 C50.9679217,7.11340206 51.7525773,6.32874647 51.7525773,5.36082474 C51.7525773,4.39290302 50.9679217,3.60824742 50,3.60824742 C49.0320783,3.60824742 48.2474227,4.39290302 48.2474227,5.36082474 C48.2474227,6.32874647 49.0320783,7.11340206 50,7.11340206 Z" id="Fill-1" stroke="#EEF2F4" stroke-width="1.5"></path>
                        <path d="M25.6,53.4597938 C24.7587629,52.5525773 23.5546392,51.9917526 22.3835052,51.9917526 C20.0742268,51.9917526 18.2597938,53.7731959 18.2597938,56.0494845 C18.2597938,58.3257732 20.0742268,60.1237113 22.3835052,60.1237113 C23.5381443,60.1237113 24.7257732,59.5958763 25.6,58.7546392 L26.7546392,60.0412371 C25.5835052,61.1958763 23.9175258,61.9381443 22.2845361,61.9381443 C18.9030928,61.9381443 16.2804124,59.3814433 16.2804124,56.0659794 C16.2804124,52.7835052 18.9360825,50.2597938 22.3505155,50.2597938 C23.9835052,50.2597938 25.6164948,50.9360825 26.7381443,52.0412371 L25.6,53.4597938 Z M28.7340206,50.3092784 L30.6804124,50.3092784 L30.6804124,60.0907216 L35.6783505,60.0907216 L35.6783505,61.8556701 L28.7340206,61.8556701 L28.7340206,50.3092784 Z M42.7051546,50.2597938 C46.1525773,50.2597938 48.8247423,52.7835052 48.8247423,56.0824742 C48.8247423,59.3814433 46.1525773,61.9381443 42.7051546,61.9381443 C39.257732,61.9381443 36.585567,59.3814433 36.585567,56.0824742 C36.585567,52.7670103 39.257732,50.2597938 42.7051546,50.2597938 Z M42.7216495,52.0082474 C40.4453608,52.0082474 38.5649485,53.7896907 38.5649485,56.0824742 C38.5649485,58.3752577 40.4618557,60.1896907 42.7216495,60.1896907 C44.9814433,60.1896907 46.828866,58.3752577 46.828866,56.0824742 C46.828866,53.7896907 44.9814433,52.0082474 42.7216495,52.0082474 Z M57.9298969,53.1298969 C56.6762887,52.371134 55.4226804,52.057732 54.5484536,52.057732 C53.4103093,52.057732 52.6680412,52.4865979 52.6680412,53.2618557 C52.6680412,55.785567 58.9030928,54.4329897 58.8865979,58.5896907 C58.8865979,60.6515464 57.0721649,61.9216495 54.5319588,61.9216495 C52.7175258,61.9216495 51.0020619,61.1793814 49.814433,60.0907216 L50.6556701,58.4082474 C51.843299,59.4969072 53.3278351,60.0907216 54.5649485,60.0907216 C55.9175258,60.0907216 56.7257732,59.5793814 56.7257732,58.6886598 C56.7257732,56.1154639 50.4907216,57.5505155 50.4907216,53.443299 C50.4907216,51.4639175 52.1896907,50.2268041 54.6969072,50.2268041 C56.1979381,50.2268041 57.6659794,50.7051546 58.7381443,51.414433 L57.9298969,53.1298969 Z M61.1628866,50.3092784 L69.4103093,50.3092784 L69.4103093,52.057732 L63.1092784,52.057732 L63.1092784,55.1917526 L68.7505155,55.1917526 L68.7505155,56.9237113 L63.1092784,56.9237113 L63.1092784,60.1072165 L69.6082474,60.1072165 L69.6082474,61.8556701 L61.1628866,61.8556701 L61.1628866,50.3092784 Z M76.7175258,50.3092784 C80.1814433,50.3092784 82.6886598,52.7340206 82.6886598,56.0824742 C82.6886598,59.414433 80.1649485,61.8556701 76.6680412,61.8556701 L71.9835052,61.8556701 L71.9835052,50.3092784 L76.7175258,50.3092784 Z M76.7670103,60.1072165 C79.0103093,60.1072165 80.7257732,58.4412371 80.7257732,56.0989691 C80.7257732,53.7402062 78.9608247,52.057732 76.6845361,52.057732 L73.9298969,52.057732 L73.9298969,60.1072165 L76.7670103,60.1072165 Z" id="CLOSED" fill-rule="nonzero"></path>
                    </g>
                </g>
            </g>
        </g>
    </g>
</svg>