<svg xmlns="http://www.w3.org/2000/svg" width="20" height="20" viewBox="0 0 20 20">
    <path fill="#FFF" fill-rule="evenodd" stroke="#005EB8" stroke-width=".5" d="M10 2.44a7.562 7.562 0 0 0-5.346 12.906A7.562 7.562 0 0 0 17.56 10 7.562 7.562 0 0 0 10 2.44zM10 1a9 9 0 1 1 0 18.002A9 9 0 0 1 10 1zm.277 4.248c.482.03.953.153 1.388.36.389.179.72.462.958.819.18.281.292.6.325.932.038.288.015.58-.068.857a2.223 2.223 0 0 1-.522.884 5.968 5.968 0 0 1-.9.74c-.18.124-.34.254-.509.383a1.079 1.079 0 0 0-.333.48c-.036.098-.077.195-.115.293a.672.672 0 0 1-.627.444.882.882 0 0 1-.455-.072.743.743 0 0 1-.409-.556c-.058-.335.02-.678.216-.954.156-.228.347-.43.565-.598.236-.192.479-.376.72-.568.2-.154.368-.345.493-.564.2-.38.15-.841-.126-1.17a.966.966 0 0 0-.54-.299 1.72 1.72 0 0 0-.839.015 1.024 1.024 0 0 0-.65.54c-.084.158-.158.32-.237.48-.058.121-.136.232-.232.326a.805.805 0 0 1-.61.196.849.849 0 0 1-.386-.104.668.668 0 0 1-.36-.594c-.009-.398.118-.786.36-1.102.28-.378.652-.679 1.08-.874.324-.154.67-.254 1.025-.296l.202-.02.586.022zm-.553 9.522c-.054-.01-.108-.02-.16-.034a.997.997 0 1 1 .433.016l-.088.018h-.185z"/>
</svg>
