<svg xmlns="http://www.w3.org/2000/svg" width="71" height="60" viewBox="0 0 71 60">
    <g fill="none" fill-rule="evenodd">
        <path fill="#005EB8" d="M17.143 9.982l1.07 1.599c.844-.566 1.138-1.313 1.266-2.006.055-.297.08-.588.101-.846.066-.81.125-1.14.519-1.404.393-.263.724-.192 1.494.055.248.08.527.164.823.23.69.145 1.493.158 2.336-.407.841-.565 1.136-1.31 1.263-2.005.055-.297.081-.589.102-.847.062-.81.125-1.14.516-1.403.393-.263.72-.193 1.492.057.247.08.526.167.823.23.69.148 1.492.158 2.333-.404l-1.07-1.6c-.391.261-.72.193-1.493-.057-.822-.265-1.953-.63-3.156.175-1.203.807-1.297 1.99-1.364 2.851-.063.81-.125 1.14-.516 1.404-.393.263-.721.195-1.495-.055-.823-.265-1.953-.627-3.156.177-1.206.808-1.297 1.99-1.367 2.852-.065.81-.128 1.14-.521 1.404zM43.481 4.975c.295-.068.573-.157.82-.24.769-.26 1.1-.336 1.496-.078.398.258.463.588.539 1.398.023.26.054.547.114.847.138.692.443 1.435 1.294 1.987.852.552 1.654.528 2.342.37.294-.068.573-.157.817-.243.771-.26 1.1-.336 1.493-.078.395.258.46.586.536 1.393.023.26.055.55.115.847.135.692.442 1.435 1.291 1.984l1.047-1.615c-.396-.257-.46-.585-.536-1.395-.081-.862-.19-2.042-1.407-2.831-1.216-.79-2.338-.406-3.158-.13-.769.26-1.097.336-1.493.078-.396-.258-.463-.589-.539-1.396-.08-.862-.192-2.044-1.409-2.83-1.216-.79-2.34-.41-3.158-.131-.769.26-1.1.336-1.495.078l-1.047 1.615c.846.55 1.648.526 2.338.37zM62.07 5.63c.274.27.717.27.988 0a.701.701 0 0 0 0-.988L62.05 3.634a.693.693 0 0 0-.987 0 .693.693 0 0 0-.206.495c0 .188.073.362.206.495l1.008 1.005zM65.221 8.777a.716.716 0 0 0 .987 0 .693.693 0 0 0 .206-.495.693.693 0 0 0-.206-.494L65.201 6.78a.693.693 0 0 0-.495-.206.693.693 0 0 0-.495.206.693.693 0 0 0-.206.495c0 .187.073.362.206.494l1.01 1.008zM62.565 6.58a.702.702 0 0 0-.494.203L61.063 7.79a.699.699 0 0 0 .987.987l1.008-1.008a.701.701 0 0 0 0-.987.692.692 0 0 0-.493-.203zM65.2 5.626l1.008-1.007a.693.693 0 0 0 .206-.495.693.693 0 0 0-.7-.695.693.693 0 0 0-.495.205L64.21 4.642a.693.693 0 0 0-.206.495c0 .187.073.362.206.495.266.258.727.26.99-.006zM3.785 10.775c.273.27.716.27.987 0a.701.701 0 0 0 0-.987L3.764 8.78a.702.702 0 0 0-.99 0 .701.701 0 0 0 0 .987l1.01 1.008zM6.936 13.923a.716.716 0 0 0 .987 0 .693.693 0 0 0 .206-.495.693.693 0 0 0-.206-.494l-1.008-1.008a.702.702 0 0 0-.99 0 .701.701 0 0 0 0 .987l1.011 1.01zM3.767 13.923l1.008-1.008a.698.698 0 1 0-.495-1.19.702.702 0 0 0-.495.203l-1.008 1.008a.7.7 0 0 0 .99.987zM6.918 10.775l1.008-1.008a.693.693 0 0 0 .206-.495.693.693 0 0 0-.206-.495.693.693 0 0 0-.495-.206.693.693 0 0 0-.495.206L5.93 9.785a.701.701 0 0 0 0 .987.702.702 0 0 0 .99.003zM12.856 6.854a3.43 3.43 0 0 0 3.427-3.427A3.43 3.43 0 0 0 12.856 0a3.43 3.43 0 0 0-3.427 3.427 3.43 3.43 0 0 0 3.427 3.427zm0-4.927c.828 0 1.502.675 1.502 1.503 0 .828-.674 1.502-1.502 1.502a1.505 1.505 0 0 1-1.503-1.502 1.505 1.505 0 0 1 1.503-1.503zM53.262 37.54c.216-3.453-2.365-7.044-5.636-7.858a56.135 56.135 0 0 0-12.41-1.397 56.02 56.02 0 0 0-12.38 1.387c-3.302.824-5.884 4.415-5.668 7.848.263 3.642.526 7.35.785 11.131.367 5.127 4.378 9.936 8.947 10.725a55.847 55.847 0 0 0 16.596.006c4.6-.795 8.615-5.601 8.981-10.727.263-3.782.523-7.49.786-11.116zM35.215 26.571c5.12 0 9.289-4.228 9.289-9.428 0-5.197-4.166-9.429-9.289-9.429-5.12 0-9.288 4.228-9.288 9.429 0 5.2 4.168 9.428 9.288 9.428z"/>
        <path fill="#5C6373" d="M15.644 49.492c-.263-3.752-.523-7.431-.789-11.072a9.382 9.382 0 0 1 .426-3.383c.169-.537.381-1.06.635-1.564-.535-.02-1.07-.045-1.605-.045-3.208 0-6.425.36-9.558 1.063-2.694.668-4.797 3.573-4.622 6.353.2 2.774.404 5.592.604 8.469.291 4.057 3.499 7.868 7.15 8.494a43.84 43.84 0 0 0 6.425.478 43.71 43.71 0 0 0 4.932-.282 15.166 15.166 0 0 1-1.123-1.48c-1.383-2.067-2.29-4.498-2.476-7.03zM55.169 48.939c.263-3.624.522-7.176.788-10.691a8.766 8.766 0 0 0-.425-3.267 9.958 9.958 0 0 0-.636-1.51c.536-.018 1.07-.043 1.606-.043 3.207 0 6.424.347 9.557 1.026 2.695.645 4.798 3.45 4.622 6.134-.2 2.678-.403 5.4-.604 8.177-.29 3.918-3.498 7.597-7.15 8.201a45.376 45.376 0 0 1-6.425.462c-1.643 0-3.295-.093-4.932-.273.404-.449.776-.93 1.124-1.428 1.383-1.996 2.29-4.343 2.475-6.788zM14.31 31.714c4.022 0 7.292-3.46 7.292-7.714 0-4.255-3.27-7.715-7.291-7.715-4.022 0-7.292 3.46-7.292 7.715.003 4.254 3.273 7.714 7.292 7.714zM50.69 29.79a9.9 9.9 0 0 1 1.246.937 6.942 6.942 0 0 0 3.558.987c4.022 0 7.292-3.46 7.292-7.714 0-4.255-3.27-7.715-7.292-7.715-4.02 0-7.291 3.46-7.291 7.715.003 2.307.967 4.373 2.488 5.79z"/>
    </g>
</svg>
