<?xml version="1.0" encoding="utf-8"?>
<!-- Generator: Adobe Illustrator 23.0.1, SVG Export Plug-In . SVG Version: 6.00 Build 0)  -->
<svg version="1.1" id="Layer_1" xmlns="http://www.w3.org/2000/svg" xmlns:xlink="http://www.w3.org/1999/xlink" x="0px" y="0px"
	 viewBox="0 0 749.7 218.4" style="enable-background:new 0 0 749.7 218.4;" xml:space="preserve">
<style type="text/css">
	.st0{fill:#77DB2A;}
	.st1{fill:#FFFFFF;}
</style>
<g>
	<g>
		<g>
			<path class="st0" d="M153.7,1.9H28.2C12.7,1.9,0,14.6,0,30.1v125.5c0,15.5,12.7,28.2,28.2,28.2h42.7l36.3,33.8
				c0.5,0.5,1.3,0.8,2,0.8c0.4,0,0.8-0.1,1.2-0.2c1.1-0.5,1.8-1.5,1.8-2.7v-31.7h41.6c15.5,0,28.2-12.7,28.2-28.2V30.1
				C181.9,14.6,169.2,1.9,153.7,1.9z"/>
		</g>
		<g>
			<path class="st1" d="M280.4,43.4c6.6,3.2,10,7.2,10,12.1c0,2.2-0.7,4.1-2.1,5.8c-1.4,1.7-3.2,2.6-5.3,2.6c-1.6,0-2.9-0.2-3.9-0.8
				c-0.9-0.5-2.2-1.3-3.9-2.5c-0.8-0.8-2-1.6-3.6-2.7c-1.5-0.8-3.7-1.4-6.4-1.9c-2.8-0.5-5.3-0.8-7.6-0.8c-6.6,0-12.4,1.5-17.4,4.5
				c-5.1,3-9,7.2-11.8,12.6c-2.8,5.4-4.2,11.3-4.2,17.9c0,6.7,1.4,12.7,4.1,18c2.7,5.3,6.5,9.5,11.5,12.5c4.9,3,10.6,4.6,16.9,4.6
				c6.6,0,11.9-1,15.9-3c0.9-0.5,2.1-1.3,3.6-2.5c1.3-1,2.4-1.8,3.3-2.3c0.9-0.5,2.1-0.8,3.5-0.8c2.5,0,4.5,0.8,6,2.4
				c1.5,1.6,2.2,3.6,2.2,6.2c0,2.7-1.7,5.3-5,7.9c-3.4,2.6-7.8,4.7-13.5,6.4c-5.6,1.6-11.7,2.5-18.1,2.5c-9.6,0-18.1-2.2-25.4-6.7
				c-7.3-4.5-13-10.7-17-18.6c-4-7.9-6-16.7-6-26.4s2.1-18.5,6.3-26.4c4.2-7.9,10-14.1,17.4-18.6c7.5-4.5,16-6.7,25.6-6.7
				C265.5,38.7,273.8,40.3,280.4,43.4z"/>
			<path class="st1" d="M382.9,117.2c-4.4,7.8-10.5,14-18.1,18.4c-7.6,4.4-16.1,6.6-25.3,6.6c-9.2,0-17.7-2.2-25.3-6.6
				c-7.6-4.4-13.7-10.5-18.1-18.4c-4.4-7.8-6.6-16.7-6.6-26.5s2.2-18.8,6.6-26.7c4.4-8,10.5-14.2,18.1-18.6
				c7.6-4.4,16.1-6.6,25.3-6.6c9.2,0,17.7,2.2,25.3,6.6c7.6,4.4,13.7,10.6,18.1,18.6c4.4,8,6.6,16.9,6.6,26.7
				S387.3,109.3,382.9,117.2z M367.2,72.3c-2.8-5.4-6.7-9.5-11.6-12.5c-4.9-3-10.3-4.5-16.2-4.5c-5.9,0-11.3,1.5-16.2,4.5
				c-4.9,3-8.7,7.1-11.6,12.5c-2.8,5.4-4.3,11.5-4.3,18.3c0,6.7,1.4,12.7,4.3,18c2.8,5.3,6.7,9.4,11.6,12.4c4.9,3,10.3,4.5,16.2,4.5
				c5.9,0,11.3-1.5,16.2-4.5c4.9-3,8.7-7.1,11.6-12.4c2.8-5.3,4.3-11.3,4.3-18C371.5,83.8,370.1,77.7,367.2,72.3z"/>
			<path class="st1" d="M480.9,79.6v51.6c0,2.5-0.9,4.7-2.6,6.4c-1.7,1.8-3.9,2.7-6.5,2.7c-2.5,0-4.6-0.9-6.3-2.7
				c-1.7-1.8-2.6-3.9-2.6-6.4V79.8c0-7.5-1.7-13.4-5.1-17.8c-3.4-4.4-9-6.6-16.7-6.6c-5.1,0-9.6,1.1-13.7,3.3
				c-4.1,2.2-7.3,5.2-9.7,8.9c-2.3,3.7-3.5,7.8-3.5,12.2v51.4c0,2.5-0.9,4.7-2.6,6.4c-1.7,1.8-3.9,2.7-6.5,2.7
				c-2.7,0-4.8-0.9-6.4-2.6c-1.6-1.7-2.5-3.9-2.5-6.5V50c0-2.5,0.9-4.7,2.6-6.4c1.7-1.8,3.8-2.7,6.4-2.7c2.7,0,4.8,0.9,6.5,2.7
				c1.7,1.8,2.6,3.9,2.6,6.4v6.6c3.3-5.1,7.9-9.3,13.7-12.8c5.9-3.5,12.2-5.2,18.9-5.2C469.5,38.7,480.9,52.3,480.9,79.6z"/>
			<path class="st1" d="M486.2,119.6c0-2.5,1.3-4.7,4-6.4c1.3-0.9,2.7-1.3,4.4-1.3c2.3,0,4.4,0.9,6.3,2.8c3.8,4.3,7.9,7.5,12.2,9.7
				c4.4,2.2,9.6,3.2,15.6,3.2c4.8-0.1,9-1.2,12.7-3.3c3.7-2.1,5.5-5.5,5.5-10.1c0-4.3-1.9-7.6-5.6-9.9c-3.7-2.3-9.2-4.4-16.4-6.3
				c-7.1-1.9-13-3.9-17.6-6c-4.7-2.1-8.6-5.1-11.8-9.1c-3.2-4-4.8-9.2-4.8-15.6c0-5.7,1.6-10.7,4.8-15c3.2-4.3,7.5-7.6,12.9-10
				c5.4-2.4,11.2-3.6,17.5-3.6c6.1,0,12.1,1.1,18.1,3.4c6,2.3,10.9,5.8,14.7,10.4c1.5,1.8,2.3,3.6,2.3,5.5c0,2-1,4-3,5.9
				c-1.3,1.1-2.8,1.7-4.7,1.7c-2.3,0-4.1-0.8-5.5-2.3c-2.7-3-5.9-5.4-9.8-7c-3.9-1.6-8.1-2.5-12.8-2.5c-4.8,0-8.9,1-12.2,2.9
				c-3.3,2-5,5.3-5,10c0.1,4.4,2.1,7.7,5.8,9.9c3.7,2.2,9.4,4.2,17.2,6.3c6.7,1.8,12.3,3.7,16.7,5.7c4.4,2,8.2,5,11.2,9
				c3,4,4.5,9.2,4.5,15.6c0,5.9-1.7,11.1-5.1,15.5c-3.4,4.4-7.9,7.7-13.4,10c-5.5,2.3-11.3,3.5-17.5,3.5c-8,0-15.3-1.4-22.1-4.2
				c-6.8-2.8-12.5-7.2-17.2-13.3C486.7,123,486.2,121.3,486.2,119.6z"/>
			<path class="st1" d="M650.2,43.6c1.7,1.8,2.6,3.9,2.6,6.4v50.4c0,13.1-3.6,23.3-10.9,30.6c-7.3,7.3-17.5,10.9-30.8,10.9
				c-13.1,0-23.3-3.6-30.5-10.9c-7.2-7.3-10.8-17.5-10.8-30.6V50c0-2.5,0.9-4.7,2.6-6.4c1.7-1.8,3.8-2.7,6.4-2.7
				c2.7,0,4.8,0.9,6.5,2.7c1.7,1.8,2.6,3.9,2.6,6.4v50.4c0,16.6,7.8,24.8,23.3,24.8c7.7,0,13.6-2.1,17.6-6.3
				c4-4.2,6.1-10.4,6.1-18.6V50c0-2.5,0.9-4.7,2.6-6.4c1.7-1.8,3.8-2.7,6.3-2.7C646.3,40.9,648.5,41.8,650.2,43.6z"/>
			<path class="st1" d="M682.4,137.6c-1.8,1.8-3.9,2.7-6.4,2.7c-2.5,0-4.6-0.9-6.4-2.7c-1.7-1.8-2.6-3.9-2.6-6.4V9.1
				c0-2.5,0.9-4.7,2.7-6.4c1.8-1.8,3.9-2.7,6.4-2.7c2.5,0,4.6,0.9,6.4,2.7c1.7,1.8,2.6,3.9,2.6,6.4v122.1
				C685,133.7,684.1,135.9,682.4,137.6z"/>
			<path class="st1" d="M725.6,58.6v56.5c0,6.3,2.8,9.5,8.5,9.5c0.9,0,2.1-0.2,3.6-0.7c1.5-0.4,2.7-0.7,3.6-0.7c1.6,0,3,0.7,4.2,2.1
				c1.1,1.4,1.7,3.2,1.7,5.3c0,2.7-1.5,4.9-4.5,6.8c-3,1.9-6.4,2.8-10.2,2.8c-4.2,0-8-0.4-11.5-1.3c-3.5-0.9-6.6-3.1-9.3-6.7
				c-2.7-3.6-4.1-9.1-4.1-16.4V58.6h-11c-2.4,0-4.4-0.8-6-2.4c-1.6-1.6-2.4-3.6-2.4-6s0.8-4.4,2.4-5.9c1.6-1.5,3.6-2.3,6-2.3h11
				V26.2c0-2.5,0.9-4.7,2.6-6.4c1.7-1.8,3.9-2.7,6.5-2.7c2.5,0,4.6,0.9,6.3,2.7c1.7,1.8,2.6,3.9,2.6,6.4v15.9h15.7
				c2.4,0,4.4,0.8,6,2.4c1.6,1.6,2.4,3.6,2.4,6c0,2.4-0.8,4.4-2.4,5.9c-1.6,1.5-3.6,2.3-6,2.3H725.6z"/>
		</g>
	</g>
	<path class="st1" d="M129.7,62.8c-4.2-7.2-9.8-12.8-16.7-16.9c-6.9-4.1-14.3-6.1-22.2-6.1c-8,0-15.5,2.1-22.5,6.3
		c-7,4.2-12.6,10.2-16.9,18.1c-4.3,7.8-6.4,16.9-6.4,27.3c0,9.5,2.1,18,6.2,25.6c4.1,7.5,10,13.4,17.6,17.6
		c7.6,4.2,16.4,6.3,26.4,6.3c6.2,0,12.2-1.2,18.1-3.7c5.9-2.5,10.7-5.5,14.3-9.1c2.5-2.1,3.7-4.4,3.7-7c0-2-0.7-3.7-2.1-5.2
		c-1.4-1.5-3.2-2.2-5.3-2.2c-1.7,0-3.5,0.6-5.4,1.7c-2.8,2.7-6.1,4.9-9.8,6.7c-3.7,1.7-8.5,2.6-14.4,2.6c-8.6,0-16-2.7-21.9-8.1
		c-6-5.4-9.4-12.7-10.3-21.7h65.2c2.3,0,4.4-0.8,6.1-2.3c1.7-1.5,2.7-3.4,2.8-5.6C136.1,78,133.9,69.9,129.7,62.8z M117.5,80H62.9
		c1.6-8.1,4.9-14.2,10-18.1c5.1-3.9,11-5.8,18-5.8c6.7,0,12.6,2.1,17.9,6.3c5.2,4.2,8.2,9.6,8.8,16.1V80z"/>
</g>
</svg>
