<svg width="60" height="60" viewBox="0 0 60 60" fill="none" xmlns="http://www.w3.org/2000/svg">
<path fill-rule="evenodd" clip-rule="evenodd" d="M0 30C0 13.4315 13.4315 0 30 0C46.554 0.0351093 59.9649 13.446 60 30C60 46.5685 46.5685 60 30 60C13.4315 60 0 46.5685 0 30ZM2.55319 30C2.55319 45.1585 14.8415 57.4468 30 57.4468C45.1439 57.4117 57.4117 45.1439 57.4468 30C57.4468 14.8415 45.1585 2.55319 30 2.55319C14.8415 2.55319 2.55319 14.8415 2.55319 30Z" fill="#005EB8"/>
<path fill-rule="evenodd" clip-rule="evenodd" d="M16.5957 18.5106C13.0705 18.5106 10.2128 21.3684 10.2128 24.8936C10.2128 28.4188 13.0705 31.2766 16.5957 31.2766C20.121 31.2766 22.9787 28.4188 22.9787 24.8936C22.9787 21.3684 20.121 18.5106 16.5957 18.5106ZM13.4043 28.7234C12.6992 28.7234 12.1277 28.1518 12.1277 27.4468C12.1277 26.7417 12.6992 26.1702 13.4043 26.1702C14.1093 26.1702 14.6809 26.7417 14.6809 27.4468C14.6809 28.1518 14.1093 28.7234 13.4043 28.7234ZM15.3192 22.9787C15.3192 24.3888 16.4623 25.5319 17.8723 25.5319C19.2824 25.5319 20.4255 24.3888 20.4255 22.9787C20.4255 21.5686 19.2824 20.4255 17.8723 20.4255C16.4623 20.4255 15.3192 21.5686 15.3192 22.9787Z" fill="#005EB8"/>
<path fill-rule="evenodd" clip-rule="evenodd" d="M43.4043 18.5106C39.8791 18.5106 37.0213 21.3684 37.0213 24.8936C37.0213 28.4188 39.8791 31.2766 43.4043 31.2766C46.9295 31.2766 49.7873 28.4188 49.7873 24.8936C49.7873 21.3684 46.9295 18.5106 43.4043 18.5106ZM40.2128 28.7234C39.5077 28.7234 38.9362 28.1518 38.9362 27.4468C38.9362 26.7417 39.5077 26.1702 40.2128 26.1702C40.9178 26.1702 41.4894 26.7417 41.4894 27.4468C41.4894 28.1518 40.9178 28.7234 40.2128 28.7234ZM42.1277 22.9787C42.1277 24.3888 43.2708 25.5319 44.6809 25.5319C46.091 25.5319 47.2341 24.3888 47.2341 22.9787C47.2341 21.5686 46.091 20.4255 44.6809 20.4255C43.2708 20.4255 42.1277 21.5686 42.1277 22.9787Z" fill="#005EB8"/>
<path d="M14.4894 15.7021C15.6219 15.1322 16.9415 15.0627 18.1277 15.5107L19.0213 13.149C17.2013 12.4433 15.1719 12.5124 13.4043 13.3404C11.642 14.1799 10.2705 15.6657 9.57446 17.4894L12 18.383C12.4296 17.1874 13.3288 16.219 14.4894 15.7021V15.7021Z" fill="#005EB8"/>
<path d="M40.9787 13.149L41.8723 15.5745C43.0566 15.1223 44.3729 15.1651 45.5253 15.6932C46.6777 16.2214 47.5695 17.1907 48 18.383L50.4255 17.4894C49.7508 15.6593 48.3753 14.1729 46.6029 13.3586C44.8305 12.5442 42.8068 12.4688 40.9787 13.149Z" fill="#005EB8"/>
<path d="M30 44.6808C31.7626 44.6808 33.1915 43.252 33.1915 41.4893C33.1915 39.7267 31.7626 38.2979 30 38.2979C28.2374 38.2979 26.8085 39.7267 26.8085 41.4893C26.8085 43.252 28.2374 44.6808 30 44.6808Z" fill="#005EB8"/>
</svg>
