<svg width="60" height="60" viewBox="0 0 60 60" fill="none" xmlns="http://www.w3.org/2000/svg">
<path fill-rule="evenodd" clip-rule="evenodd" d="M0 30C0 13.4315 13.4315 0 30 0C46.554 0.0351093 59.9649 13.446 60 30C60 46.5685 46.5685 60 30 60C13.4315 60 0 46.5685 0 30ZM2.55319 30C2.55319 45.1585 14.8415 57.4468 30 57.4468C45.1439 57.4117 57.4117 45.1439 57.4468 30C57.4468 14.8415 45.1585 2.55319 30 2.55319C14.8415 2.55319 2.55319 14.8415 2.55319 30Z" fill="#5C6373"/>
<path fill-rule="evenodd" clip-rule="evenodd" d="M22.9787 24.8936C22.9787 21.3684 20.121 18.5106 16.5957 18.5106C13.0705 18.5106 10.2128 21.3684 10.2128 24.8936C10.2128 28.4188 13.0705 31.2766 16.5957 31.2766C18.2886 31.2766 19.9122 30.6041 21.1092 29.4071C22.3062 28.21 22.9787 26.5865 22.9787 24.8936ZM13.4043 28.7234C12.6992 28.7234 12.1277 28.1518 12.1277 27.4468C12.1277 26.7418 12.6992 26.1702 13.4043 26.1702C14.1093 26.1702 14.6809 26.7418 14.6809 27.4468C14.6809 28.1518 14.1093 28.7234 13.4043 28.7234ZM15.3191 22.9787C15.3191 24.3888 16.4623 25.5319 17.8723 25.5319C19.2824 25.5319 20.4255 24.3888 20.4255 22.9787C20.4255 21.5686 19.2824 20.4255 17.8723 20.4255C16.4623 20.4255 15.3191 21.5686 15.3191 22.9787Z" fill="#5C6373"/>
<path fill-rule="evenodd" clip-rule="evenodd" d="M43.4043 18.5106C39.879 18.5106 37.0213 21.3684 37.0213 24.8936C37.0213 28.4188 39.879 31.2766 43.4043 31.2766C46.9295 31.2766 49.7872 28.4188 49.7872 24.8936C49.7872 21.3684 46.9295 18.5106 43.4043 18.5106ZM40.2128 28.7234C39.5077 28.7234 38.9362 28.1518 38.9362 27.4468C38.9362 26.7418 39.5077 26.1702 40.2128 26.1702C40.9178 26.1702 41.4894 26.7418 41.4894 27.4468C41.4894 28.1518 40.9178 28.7234 40.2128 28.7234ZM42.1277 22.9787C42.1277 24.3888 43.2708 25.5319 44.6809 25.5319C46.0909 25.5319 47.234 24.3888 47.234 22.9787C47.234 21.5686 46.0909 20.4255 44.6809 20.4255C43.2708 20.4255 42.1277 21.5686 42.1277 22.9787Z" fill="#5C6373"/>
<path d="M30 38.3617C25.6664 38.3811 21.9265 41.4048 21 45.6383L23.4894 46.1489C24.1522 43.0863 26.8665 40.9042 30 40.9149C32.9492 40.9324 35.5404 42.8758 36.383 45.7021L38.8085 45.0638C37.7163 41.1013 34.1103 38.3576 30 38.3617Z" fill="#5C6373"/>
<path d="M16.0851 16.4681L15.8936 13.9149C13.706 14.0861 11.7125 15.2353 10.4681 17.0426L12.5106 18.5106C13.3271 17.319 14.644 16.5666 16.0851 16.4681V16.4681Z" fill="#5C6373"/>
<path d="M44.1064 13.9149L43.9149 16.4681C45.356 16.5666 46.6729 17.319 47.4894 18.5106L49.5319 17.0426C48.2875 15.2353 46.294 14.0861 44.1064 13.9149V13.9149Z" fill="#5C6373"/>
</svg>
