<svg xmlns="http://www.w3.org/2000/svg" width="63" height="60" viewBox="0 0 63 60">
    <g fill="none" fill-rule="evenodd">
        <path fill="#5C6373" d="M19.247.002C8.617.002 0 8.619 0 19.246c0 6.415 3.14 12.097 7.966 15.593-1.17 1.986-2.816 3.928-5.081 4.959 0 0 7.147 3.764 12.87-1.623a19.583 19.583 0 0 0 6.021.152 23.049 23.049 0 0 1-.012-.713c0-10.204 7.05-18.76 16.543-21.066C36.997 7.194 28.966 0 19.252 0l-.005.002zM7.405 21.296h11.79V24.5H7.405v-3.205zm0-7.273h22.06v3.205H7.405v-3.205z"/>
        <path fill="#005EB8" d="M43.44 18.37c10.63 0 19.247 8.617 19.247 19.246 0 6.413-3.14 12.095-7.966 15.591 1.17 1.986 2.816 3.928 5.079 4.959 0 0-7.144 3.763-12.868-1.624a19.3 19.3 0 0 1-3.494.316c-10.63 0-19.244-8.614-19.244-19.244 0-10.63 8.614-19.247 19.244-19.247l.002.003zM33.22 32.39v3.206h22.06v-3.205h-22.06zm0 7.274v3.205h11.793v-3.205H33.221z"/>
    </g>
</svg>
