<svg width="60" height="60" viewBox="0 0 60 60" fill="none" xmlns="http://www.w3.org/2000/svg">
<path fill-rule="evenodd" clip-rule="evenodd" d="M0 30C0 13.4315 13.4315 0 30 0C46.554 0.0351093 59.9649 13.446 60 30C60 46.5685 46.5685 60 30 60C13.4315 60 0 46.5685 0 30ZM2.55319 30C2.55319 45.1585 14.8415 57.4468 30 57.4468C45.1439 57.4117 57.4117 45.1439 57.4468 30C57.4468 14.8415 45.1585 2.55319 30 2.55319C14.8415 2.55319 2.55319 14.8415 2.55319 30Z" fill="#5C6373"/>
<path d="M30 46.5957C21.8936 46.5957 15.3192 39.5745 15.3192 31.9149H12.766C12.766 40.8511 20.4894 49.1489 30 49.1489C39.5106 49.1489 47.234 40.8511 47.234 31.9149H44.6809C44.6809 39.5745 38.1064 46.5957 30 46.5957Z" fill="#5C6373"/>
<path fill-rule="evenodd" clip-rule="evenodd" d="M17.183 14.4C13.6578 14.4 10.8 17.2578 10.8 20.783C10.8 24.3082 13.6578 27.166 17.183 27.166C20.7082 27.166 23.566 24.3082 23.566 20.783C23.566 17.2578 20.7082 14.4 17.183 14.4ZM13.9915 24.6128C13.2864 24.6128 12.7149 24.0412 12.7149 23.3362C12.7149 22.6311 13.2864 22.0596 13.9915 22.0596C14.6965 22.0596 15.2681 22.6311 15.2681 23.3362C15.2681 24.0412 14.6965 24.6128 13.9915 24.6128ZM15.9064 18.8681C15.9064 20.2782 17.0495 21.4213 18.4596 21.4213C19.8697 21.4213 21.0128 20.2782 21.0128 18.8681C21.0128 17.458 19.8697 16.3149 18.4596 16.3149C17.0495 16.3149 15.9064 17.458 15.9064 18.8681Z" fill="#5C6373"/>
<path fill-rule="evenodd" clip-rule="evenodd" d="M43.9915 14.4C40.4663 14.4 37.6085 17.2578 37.6085 20.783C37.6085 24.3082 40.4663 27.166 43.9915 27.166C47.5167 27.166 50.3745 24.3082 50.3745 20.783C50.3745 17.2578 47.5167 14.4 43.9915 14.4ZM40.8 24.6128C40.095 24.6128 39.5234 24.0412 39.5234 23.3362C39.5234 22.6311 40.095 22.0596 40.8 22.0596C41.505 22.0596 42.0766 22.6311 42.0766 23.3362C42.0766 24.0412 41.505 24.6128 40.8 24.6128ZM42.7149 18.8681C42.7149 20.2782 43.858 21.4213 45.2681 21.4213C46.6782 21.4213 47.8213 20.2782 47.8213 18.8681C47.8213 17.458 46.6782 16.3149 45.2681 16.3149C43.858 16.3149 42.7149 17.458 42.7149 18.8681Z" fill="#5C6373"/>
</svg>
