<svg width="60" height="60" viewBox="0 0 60 60" fill="none" xmlns="http://www.w3.org/2000/svg">
<path fill-rule="evenodd" clip-rule="evenodd" d="M0 30C0 13.4315 13.4315 0 30 0C46.554 0.0351093 59.9649 13.446 60 30C60 46.5685 46.5685 60 30 60C13.4315 60 0 46.5685 0 30ZM2.55319 30C2.55319 45.1585 14.8415 57.4468 30 57.4468C45.1439 57.4117 57.4117 45.1439 57.4468 30C57.4468 14.8415 45.1585 2.55319 30 2.55319C14.8415 2.55319 2.55319 14.8415 2.55319 30Z" fill="#5C6373"/>
<path fill-rule="evenodd" clip-rule="evenodd" d="M32.5533 38.08H29.0817V30.6142L30.3837 30.2675C30.6425 30.2675 36.025 28.8792 36.025 24.1917C36.025 19.6783 32.7258 18.1158 29.9492 18.1158C26.9983 18.1158 23.8733 19.6783 23.8733 24.1917H20.4017C20.4017 18.4625 24.2217 14.6425 29.9508 14.6425C35.5937 14.6425 39.5 18.5487 39.5 24.1917C39.5 29.3137 35.5075 32.1783 32.555 33.3062L32.5533 38.08Z" fill="#5C6373"/>
<path fill-rule="evenodd" clip-rule="evenodd" d="M29.08 41.8842H32.5517V45.3558H29.08V41.8842Z" fill="#5C6373"/>
</svg>
