<svg width="60" height="60" viewBox="0 0 60 60" fill="none" xmlns="http://www.w3.org/2000/svg">
<path fill-rule="evenodd" clip-rule="evenodd" d="M0 30C0 13.4315 13.4315 0 30 0C46.554 0.0351093 59.9649 13.446 60 30C60 46.5685 46.5685 60 30 60C13.4315 60 0 46.5685 0 30ZM2.55319 30C2.55319 45.1585 14.8415 57.4468 30 57.4468C45.1439 57.4117 57.4117 45.1439 57.4468 30C57.4468 14.8415 45.1585 2.55319 30 2.55319C14.8415 2.55319 2.55319 14.8415 2.55319 30Z" fill="#5C6373"/>
<path fill-rule="evenodd" clip-rule="evenodd" d="M21.2723 22.5629L23.6789 20.2411C23.9409 19.9817 24.0333 19.5964 23.9229 19.2446C23.8099 18.8927 23.5094 18.6333 23.1472 18.5717L19.8597 18.0708L18.3931 15.0658V15.0684C18.2339 14.7294 17.8974 14.511 17.525 14.5008C17.1449 14.4854 16.793 14.7011 16.6363 15.0478L15.1364 18.04L11.8489 18.4998H11.8515C11.479 18.5511 11.1708 18.808 11.0501 19.165C10.9319 19.5194 11.027 19.9124 11.2915 20.1769L13.6262 22.5167L13.0406 25.8043C12.9764 26.1741 13.1254 26.5491 13.4284 26.77C13.7315 26.9935 14.1347 27.0243 14.4686 26.8496L17.4351 25.3112L20.3862 26.883C20.7175 27.0603 21.1207 27.0346 21.4263 26.8163C21.732 26.5954 21.8886 26.223 21.8244 25.8505L21.2723 22.5629Z" fill="#5C6373"/>
<path fill-rule="evenodd" clip-rule="evenodd" d="M47.2723 22.5629L49.6789 20.2411C49.9409 19.9817 50.0333 19.5964 49.9229 19.2446C49.8099 18.8927 49.5094 18.6333 49.1472 18.5717L45.8597 18.0708L44.3931 15.0658V15.0684C44.2339 14.7294 43.8974 14.511 43.525 14.5008C43.1449 14.4854 42.793 14.7011 42.6363 15.0478L41.1364 18.04L37.8489 18.4998H37.8515C37.479 18.5511 37.1708 18.808 37.0501 19.165C36.9319 19.5194 37.027 19.9124 37.2915 20.1769L39.6262 22.5167L39.0406 25.8043C38.9764 26.1741 39.1254 26.5491 39.4284 26.77C39.7315 26.9935 40.1347 27.0243 40.4686 26.8496L43.4351 25.3112L46.3862 26.883C46.7175 27.0603 47.1207 27.0346 47.4263 26.8163C47.732 26.5954 47.8886 26.223 47.8244 25.8505L47.2723 22.5629Z" fill="#5C6373"/>
<path fill-rule="evenodd" clip-rule="evenodd" d="M14 34.3692C14 42.9897 20.9531 50 29.4983 50H29.4989C38.0469 50 45 42.9897 45 34.3692C45 33.6134 44.3908 33 43.6408 33H15.3592C14.6065 33 14 33.6134 14 34.3692ZM21 44.5738C23.1017 41.7894 26.3505 40 30 40C33.6495 40 36.8985 41.7894 39 44.5738C36.5626 46.7138 33.4264 48 30 48C26.5763 48 23.4375 46.7137 21 44.5738Z" fill="#5C6373"/>
</svg>
