<svg width="60" height="60" viewBox="0 0 60 60" fill="none" xmlns="http://www.w3.org/2000/svg">
<path fill-rule="evenodd" clip-rule="evenodd" d="M0 30C0 13.4315 13.4315 0 30 0C46.554 0.0351093 59.9649 13.446 60 30C60 46.5685 46.5685 60 30 60C13.4315 60 0 46.5685 0 30ZM2.55319 30C2.55319 45.1585 14.8415 57.4468 30 57.4468C45.1439 57.4117 57.4117 45.1439 57.4468 30C57.4468 14.8415 45.1585 2.55319 30 2.55319C14.8415 2.55319 2.55319 14.8415 2.55319 30Z" fill="#5C6373"/>
<path fill-rule="evenodd" clip-rule="evenodd" d="M16.5957 19.7106C13.0705 19.7106 10.2128 22.5684 10.2128 26.0936C10.2128 29.6188 13.0705 32.4766 16.5957 32.4766C20.121 32.4766 22.9787 29.6188 22.9787 26.0936C22.9787 22.5684 20.121 19.7106 16.5957 19.7106ZM13.4043 29.9234C12.6992 29.9234 12.1277 29.3519 12.1277 28.6468C12.1277 27.9418 12.6992 27.3702 13.4043 27.3702C14.1093 27.3702 14.6809 27.9418 14.6809 28.6468C14.6809 29.3519 14.1093 29.9234 13.4043 29.9234ZM15.3191 24.1787C15.3191 25.5888 16.4623 26.7319 17.8723 26.7319C19.2824 26.7319 20.4255 25.5888 20.4255 24.1787C20.4255 22.7686 19.2824 21.6255 17.8723 21.6255C16.4623 21.6255 15.3191 22.7686 15.3191 24.1787Z" fill="#5C6373"/>
<path fill-rule="evenodd" clip-rule="evenodd" d="M43.4043 19.7106C39.879 19.7106 37.0213 22.5684 37.0213 26.0936C37.0213 29.6188 39.879 32.4766 43.4043 32.4766C46.9295 32.4766 49.7872 29.6188 49.7872 26.0936C49.7872 22.5684 46.9295 19.7106 43.4043 19.7106ZM40.2128 29.9234C39.5077 29.9234 38.9362 29.3519 38.9362 28.6468C38.9362 27.9418 39.5077 27.3702 40.2128 27.3702C40.9178 27.3702 41.4894 27.9418 41.4894 28.6468C41.4894 29.3519 40.9178 29.9234 40.2128 29.9234ZM42.1277 24.1787C42.1277 25.5888 43.2708 26.7319 44.6809 26.7319C46.0909 26.7319 47.234 25.5888 47.234 24.1787C47.234 22.7686 46.0909 21.6255 44.6809 21.6255C43.2708 21.6255 42.1277 22.7686 42.1277 24.1787Z" fill="#5C6373"/>
<path d="M18.4979 14.3106C17.1922 13.458 16.1701 12.2358 15.5617 10.8L13.2 11.8213C14.0131 13.7056 15.3684 15.3054 17.0936 16.417C18.8289 17.5783 20.8784 18.1798 22.966 18.1404C23.7815 18.1473 24.5952 18.0616 25.3915 17.8851L24.817 15.3957C22.6498 15.874 20.3814 15.4844 18.4979 14.3106V14.3106Z" fill="#5C6373"/>
<path d="M42.6894 14.3106C40.8058 15.4844 38.5375 15.874 36.3702 15.3957L35.7957 17.8851C36.5926 18.058 37.4059 18.1436 38.2213 18.1404C42.46 18.2205 46.3234 15.7206 47.9872 11.8213L45.6255 10.8C45.0172 12.2358 43.995 13.458 42.6894 14.3106V14.3106Z" fill="#5C6373"/>
<path d="M29.6426 34.6213C24.5484 34.6129 19.8529 37.3763 17.3872 41.834C16.2325 43.9265 15.6182 46.274 15.6 48.6638H18.1532C18.1471 46.7161 18.6534 44.8009 19.6213 43.1106C21.6163 39.44 25.4648 37.1603 29.6426 37.1745C35.9734 37.2094 41.097 42.3329 41.1319 48.6638H43.6851C43.6502 40.9229 37.3835 34.6562 29.6426 34.6213V34.6213Z" fill="#5C6373"/>
</svg>
