<svg width="100" height="76" viewBox="0 0 100 76" fill="none" xmlns="http://www.w3.org/2000/svg">
<path fill-rule="evenodd" clip-rule="evenodd" d="M99.1454 66.2366H81.5164C81.3445 66.1354 81.1414 66.0886 80.9305 66.1276C80.5321 66.2016 80.1297 66.2366 79.7235 66.2366H20.2785C18.4973 66.2366 16.8176 65.5395 15.5441 64.2738C14.2745 63.0081 13.5752 61.3335 13.5752 59.5575V52.4892H33.1183C33.7237 53.2953 34.3878 54.0625 35.1144 54.783C37.048 56.7108 39.3019 58.2218 41.8097 59.2811C44.4074 60.3755 47.1613 60.9284 50.005 60.9284C52.8487 60.9284 55.6066 60.3715 58.2003 59.2811C60.7081 58.2257 62.962 56.7108 64.8956 54.783C65.6182 54.0625 66.2862 53.2953 66.8917 52.4892H86.4347V57.2443C86.4347 57.7116 86.8175 58.0971 87.2902 58.0971C87.7628 58.0971 88.1456 57.7155 88.1456 57.2443L88.1378 51.6362V20.333C88.1339 15.7142 84.3605 11.9522 79.7237 11.9482H73.8018V6.29733C73.7979 4.64613 73.2432 3.08436 72.2276 1.89656C71.2003 0.689313 69.7667 0 68.294 0L31.712 0.0038982C31.2432 0.0038982 30.8604 0.385552 30.8604 0.856785C30.8604 1.32802 31.2432 1.70967 31.712 1.70967H68.29C69.2705 1.70967 70.208 2.17311 70.9267 3.01043C71.6689 3.87501 72.0908 5.07448 72.0908 6.30127V11.9522L27.9108 11.9483V6.29737C27.9069 4.84866 28.4928 3.46614 29.4733 2.59767C29.8248 2.28612 29.8561 1.74479 29.5436 1.39432C29.3834 1.21517 29.1491 1.11002 28.9069 1.11002C28.6959 1.11002 28.4928 1.18791 28.3366 1.32421C26.9811 2.53145 26.2038 4.34237 26.2038 6.29745V11.9483H20.278C19.2546 11.9483 18.2507 12.1353 17.2975 12.4975C16.9654 12.6221 16.7467 12.9414 16.7467 13.2958C16.7467 13.3971 16.7662 13.5022 16.8014 13.5996C16.9264 13.9267 17.2467 14.1487 17.6021 14.1487C17.7076 14.1487 17.8092 14.1331 17.9068 14.0942C18.6646 13.806 19.4615 13.6619 20.2779 13.6619L79.723 13.658C81.5042 13.658 83.1878 14.3551 84.4574 15.6169C85.7269 16.8825 86.4262 18.5611 86.4262 20.337V27.4133H66.8912C66.2857 26.6032 65.6178 25.836 64.8912 25.1116C62.9576 23.1839 60.7037 21.6728 58.1959 20.6135C55.5982 19.5192 52.8404 18.9662 50.0005 18.9662C47.9693 18.9662 45.9653 19.2544 44.0357 19.8191C43.6764 19.9243 43.4225 20.2592 43.4225 20.6331C43.4225 20.7149 43.4342 20.7966 43.4576 20.8784C43.5631 21.2367 43.9029 21.4898 44.2779 21.4898C44.36 21.4898 44.442 21.4782 44.5201 21.4548C46.2896 20.9368 48.1373 20.672 50.0006 20.672C55.1686 20.6759 60.0276 22.6776 63.6846 26.319C64.4815 27.1135 65.2002 27.9702 65.8369 28.8699C66.3838 29.641 66.8681 30.4471 67.29 31.2806C67.3003 31.2984 67.3088 31.3163 67.3179 31.3353C67.3213 31.3424 67.3248 31.3497 67.3285 31.3572C67.33 31.3602 67.3315 31.3632 67.333 31.3663C67.4346 31.5688 67.5322 31.7713 67.626 31.9777C67.6318 31.9893 67.6377 32.0019 67.6435 32.0145L67.6439 32.0154C67.6496 32.0278 67.6554 32.0402 67.6611 32.0517C67.9307 32.6514 68.1689 33.2628 68.376 33.8859C68.4033 33.9677 68.4307 34.0534 68.458 34.1352C68.5088 34.2948 68.5557 34.4545 68.6025 34.6142C68.6377 34.731 68.6689 34.8479 68.7002 34.9686C68.7393 35.1127 68.7783 35.2568 68.8135 35.4048C68.8395 35.5086 68.8621 35.6125 68.8847 35.7164C68.896 35.7683 68.9072 35.8202 68.9189 35.8721C68.9307 35.9305 68.9434 35.988 68.9561 36.0454C68.9688 36.1029 68.9814 36.1603 68.9932 36.2187C69.0439 36.4835 69.0908 36.7484 69.1338 37.0171C69.1479 37.1047 69.1588 37.1955 69.1693 37.2838L69.1694 37.2845L69.1728 37.3131C69.2002 37.5039 69.2236 37.6947 69.2432 37.8855C69.249 37.9381 69.2539 37.9906 69.2588 38.0431C69.2637 38.0957 69.2685 38.1484 69.2744 38.201C69.2939 38.3996 69.3057 38.5982 69.3174 38.7969C69.3193 38.8436 69.3223 38.8893 69.3252 38.9351C69.3281 38.9809 69.331 39.0266 69.333 39.0734C69.3447 39.3615 69.3525 39.6536 69.3525 39.9457C69.3525 40.2378 69.3447 40.5299 69.333 40.8181C69.331 40.8648 69.3281 40.9115 69.3252 40.9583C69.3223 41.005 69.3193 41.0517 69.3174 41.0985C69.3065 41.283 69.2922 41.4642 69.2777 41.6483L69.2744 41.6904C69.2673 41.7896 69.257 41.8856 69.2463 41.9842L69.2432 42.0137C69.2236 42.2006 69.2002 42.3875 69.1728 42.5745C69.165 42.625 69.1582 42.6765 69.1514 42.728C69.1446 42.7797 69.1377 42.8314 69.1299 42.8821C69.0908 43.1469 69.0439 43.4118 68.9931 43.6727C68.9808 43.7383 68.9663 43.8029 68.9519 43.8669L68.9517 43.8678C68.9389 43.9251 68.9261 43.9819 68.915 44.0388C68.8839 44.1863 68.8489 44.3338 68.8138 44.4812L68.8135 44.4828C68.7783 44.6307 68.7393 44.7787 68.7002 44.9267C68.6689 45.0436 68.6377 45.1565 68.6025 45.2733C68.5557 45.433 68.5088 45.5927 68.458 45.7524C68.4307 45.838 68.4033 45.9237 68.3721 46.0094C68.1728 46.613 67.9424 47.205 67.6806 47.7852C67.6689 47.8105 67.6582 47.8358 67.6475 47.8611C67.6367 47.8864 67.626 47.9118 67.6143 47.9371L67.6141 47.9374C67.5282 48.1204 67.4423 48.3033 67.3525 48.4823C67.3369 48.5135 67.3213 48.5437 67.3057 48.5738C67.29 48.604 67.2744 48.6342 67.2588 48.6654C67.1689 48.8445 67.0752 49.0236 66.9775 49.1989C66.9699 49.213 66.9623 49.2268 66.9546 49.2405C66.9486 49.2513 66.9426 49.262 66.9366 49.2727C66.9229 49.2971 66.9092 49.3215 66.8955 49.3469C66.7236 49.6545 66.54 49.9583 66.3486 50.2543L66.3479 50.2554C66.2896 50.3485 66.2312 50.4416 66.1689 50.5347C66.1357 50.5853 66.1006 50.6359 66.0655 50.6865C66.0303 50.7372 65.9951 50.7878 65.9619 50.8385C65.2939 51.8043 64.5361 52.7195 63.6846 53.5685C60.0284 57.2098 55.169 59.2155 50.0006 59.2155C44.8322 59.2155 39.9736 57.2099 36.3166 53.5685C35.4572 52.7117 34.6877 51.7809 34.0158 50.8035C33.9865 50.7607 33.9573 50.7189 33.9281 50.6772C33.8987 50.6352 33.8694 50.5933 33.84 50.5503C33.7581 50.4259 33.6801 50.3015 33.6021 50.1771L33.6017 50.1765C33.4338 49.9077 33.2697 49.6351 33.1134 49.3586L33.0883 49.3153L33.0882 49.3152C33.0656 49.2765 33.0436 49.2388 33.0236 49.199C32.9259 49.0237 32.8322 48.8446 32.7423 48.6654C32.7217 48.6269 32.7028 48.5884 32.6834 48.5488L32.6832 48.5483C32.6732 48.528 32.6631 48.5073 32.6525 48.4863L32.6521 48.4854C32.5624 48.3026 32.4727 48.1199 32.3869 47.9333C32.3673 47.8865 32.3478 47.8437 32.3244 47.7969C32.0588 47.2089 31.8283 46.6053 31.6252 45.9938C31.5978 45.9159 31.5705 45.838 31.547 45.7562L31.547 45.7561C31.4962 45.5926 31.4455 45.4291 31.3986 45.2655C31.383 45.2111 31.3674 45.1557 31.3518 45.1003C31.3361 45.0447 31.3205 44.9891 31.3048 44.9345C31.2918 44.8839 31.2784 44.8332 31.2649 44.7826L31.2648 44.7824C31.238 44.6812 31.2111 44.58 31.1876 44.4789C31.1525 44.3349 31.1213 44.1909 31.0901 44.0469L31.09 44.0466C31.0817 44.0088 31.0731 43.9707 31.0644 43.9324C31.0444 43.8444 31.0243 43.7557 31.008 43.6688C30.9572 43.4079 30.9103 43.1431 30.8713 42.8782C30.8639 42.8288 30.8574 42.7794 30.851 42.7304C30.8437 42.6751 30.8366 42.6203 30.8283 42.5667C30.8201 42.5015 30.8115 42.4363 30.8028 42.3712C30.7867 42.2498 30.7707 42.129 30.758 42.0098L30.7548 41.9801C30.7442 41.8816 30.7338 41.7857 30.7267 41.6865C30.7111 41.4918 30.6955 41.2932 30.6838 41.0985C30.6818 41.0517 30.6789 41.005 30.6759 40.9583C30.673 40.9115 30.6701 40.8648 30.6681 40.8181C30.6564 40.5299 30.6486 40.2378 30.6486 39.9457C30.6486 39.6887 30.6525 39.4317 30.6642 39.1746C30.6662 39.1133 30.6702 39.052 30.6742 38.9912L30.6742 38.991C30.678 38.9322 30.6818 38.8738 30.6838 38.8163L30.7072 38.4152C30.7151 38.3068 30.7267 38.2003 30.7382 38.0943L30.7382 38.0943C30.7436 38.0441 30.749 37.994 30.7541 37.944L30.7541 37.9438C30.7619 37.8504 30.7697 37.757 30.7814 37.6675C30.8009 37.4885 30.8282 37.3096 30.8555 37.1307L30.8556 37.13C30.8662 37.0701 30.8736 37.007 30.8807 36.9465L30.883 36.9275C30.9141 36.7334 30.9491 36.5393 30.9842 36.3452L30.9842 36.345L30.9845 36.3433C30.9888 36.3153 30.9944 36.2873 30.9998 36.2599C31.0017 36.25 31.0037 36.2402 31.0055 36.2305C31.0078 36.2186 31.0099 36.2069 31.0119 36.1954C31.0509 35.9892 31.0977 35.7868 31.1445 35.5845L31.1447 35.5839C31.1525 35.545 31.1603 35.5099 31.172 35.471C31.2228 35.2607 31.2775 35.0504 31.3322 34.844C31.34 34.8128 31.3478 34.7856 31.3556 34.7544C31.4142 34.5402 31.4806 34.3299 31.547 34.1196C31.5548 34.0962 31.5627 34.069 31.5705 34.0456C31.6408 33.8314 31.7111 33.6211 31.7892 33.4108L31.7893 33.4104C31.7971 33.3872 31.8049 33.364 31.8127 33.3446C31.8908 33.1343 31.9689 32.924 32.0549 32.7176C32.0588 32.7059 32.0636 32.6942 32.0685 32.6825C32.0734 32.6709 32.0783 32.6592 32.0822 32.6475C32.1681 32.4411 32.2541 32.2386 32.3478 32.0361C32.3537 32.0225 32.3595 32.0098 32.3653 31.9972C32.3712 31.9845 32.3771 31.9718 32.383 31.9582C32.4728 31.7596 32.5705 31.5609 32.6681 31.3662C32.6838 31.3351 32.6994 31.3078 32.7111 31.2766C32.8088 31.0858 32.9103 30.895 33.0119 30.7081L33.0275 30.6806C33.0416 30.6561 33.0551 30.6325 33.0666 30.6068C33.1681 30.4238 33.2736 30.2407 33.383 30.0577C33.3947 30.0382 33.4064 30.0198 33.4181 30.0013C33.4298 29.9828 33.4416 29.9642 33.4533 29.9448L33.5246 29.8301C33.6104 29.692 33.6966 29.5531 33.7853 29.419C33.799 29.3995 33.8117 29.38 33.8244 29.3605C33.8321 29.3487 33.8398 29.3369 33.8477 29.3251C33.8529 29.3175 33.8581 29.3098 33.8634 29.3022C33.9767 29.1308 34.0939 28.9595 34.215 28.7881C34.3322 28.6206 34.4533 28.4532 34.5783 28.2896C34.8634 27.9157 34.7892 27.3783 34.4142 27.0979C34.2658 26.9811 34.0861 26.9227 33.8986 26.9227C33.6291 26.9227 33.383 27.0473 33.2189 27.2576C33.1994 27.2829 33.1808 27.3082 33.1623 27.3335C33.1437 27.3589 33.1252 27.3842 33.1056 27.4095L13.5746 27.4134V24.0135C13.5746 23.5422 13.1918 23.1606 12.7191 23.1606C12.2465 23.1606 11.8637 23.5422 11.8637 24.0135V59.5538C11.8637 62.2761 13.1801 64.6985 15.2035 66.2328L0.855471 66.2367C0.38672 66.2367 0 66.6184 0 67.0896C0 67.5569 0.38281 67.9425 0.855471 67.9425H99.1445C99.6172 67.9425 100 67.5569 100 67.0896C100 66.6184 99.6172 66.2367 99.1445 66.2367L99.1454 66.2366ZM86.4304 29.115V50.7834H68.0394C68.0414 50.7795 68.0443 50.7746 68.0473 50.7697C68.0502 50.7649 68.0531 50.76 68.055 50.7562C68.1957 50.5225 68.3324 50.2849 68.4613 50.0474C68.5121 49.9578 68.559 49.8682 68.6058 49.7748C68.7074 49.5839 68.805 49.3931 68.8988 49.2023L68.8994 49.2011C68.9382 49.1236 68.9771 49.0461 69.016 48.9647C69.141 48.7077 69.2582 48.4467 69.3715 48.1858C69.3832 48.1624 69.3949 48.1391 69.4027 48.1118C70.3129 45.9699 70.8519 43.7149 71.0082 41.3939C71.0082 41.3883 71.0085 41.3828 71.009 41.3773C71.0094 41.3727 71.0098 41.3681 71.0103 41.3636C71.0112 41.3549 71.0121 41.3467 71.0121 41.3393C71.0238 41.1446 71.0356 40.946 71.0434 40.7513C71.0434 40.726 71.0443 40.7016 71.0453 40.6773C71.0459 40.6633 71.0464 40.6493 71.0468 40.6352C71.0471 40.6247 71.0473 40.6141 71.0473 40.6033C71.0551 40.3852 71.059 40.1671 71.059 39.949C71.059 39.7309 71.0551 39.5128 71.0473 39.2948C71.0473 39.2714 71.0463 39.247 71.0453 39.2227C71.0443 39.1984 71.0434 39.174 71.0434 39.1507C71.0356 38.952 71.0277 38.7573 71.0121 38.5587C71.0121 38.549 71.0111 38.5402 71.0102 38.5314L71.0101 38.5312C71.0092 38.5225 71.0082 38.5138 71.0082 38.5042C70.852 36.1831 70.3129 33.9282 69.4027 31.7823L69.3558 31.6772C69.2543 31.4435 69.1488 31.2098 69.0394 30.9762C68.9769 30.8438 68.9105 30.7114 68.8441 30.5828C68.7818 30.4585 68.7194 30.3381 68.6571 30.2176L68.6566 30.2168C68.5824 30.0727 68.5043 29.9286 68.4261 29.7845L68.2738 29.5158C68.1996 29.3834 68.1254 29.2509 68.0472 29.1185L86.4304 29.115ZM31.9532 29.1296C31.9517 29.1324 31.9503 29.1352 31.9488 29.1379C31.9429 29.1493 31.9372 29.1601 31.9301 29.1696C31.8644 29.2779 31.8007 29.3884 31.7375 29.4978L31.7374 29.4981L31.6684 29.6174C31.6488 29.6526 31.6293 29.6867 31.6097 29.7209C31.5902 29.7549 31.5707 29.7889 31.5512 29.8238C31.4653 29.9757 31.3833 30.1315 31.3012 30.2873C31.2856 30.3184 31.269 30.3505 31.2524 30.3827C31.2358 30.4148 31.2192 30.4469 31.2036 30.4781L31.1417 30.6011C31.0792 30.7249 31.0161 30.8499 30.9575 30.9727C30.9521 30.9849 30.9461 30.9975 30.9401 31.0105L30.9401 31.0105C30.9287 31.0348 30.9169 31.0602 30.9067 31.0856C30.6215 31.6932 30.3676 32.3163 30.1411 32.9511C30.1411 32.953 30.1401 32.9559 30.1391 32.9589C30.1387 32.9602 30.1383 32.9615 30.1379 32.9627C30.1375 32.9642 30.1372 32.9656 30.1372 32.9667C30.1323 32.9802 30.1272 32.9938 30.122 33.0074C30.1184 33.0167 30.1148 33.0261 30.1111 33.0355C30.0987 33.0676 30.086 33.1002 30.0747 33.1341C30.0512 33.2023 30.0298 33.2704 30.0083 33.3386C29.9868 33.4067 29.9653 33.4749 29.9419 33.543C29.9341 33.5684 29.9262 33.5927 29.9184 33.6171C29.9106 33.6414 29.9028 33.6657 29.895 33.691C29.8364 33.8819 29.7778 34.0727 29.7231 34.2674C29.7203 34.2776 29.7175 34.2877 29.7147 34.2976C29.7116 34.3084 29.7086 34.3191 29.7055 34.3298C29.6997 34.3502 29.6938 34.3706 29.688 34.392C29.4575 35.2293 29.2817 36.0783 29.1567 36.9351C29.145 37.0091 29.1333 37.0831 29.1255 37.161C29.1059 37.3168 29.0864 37.4726 29.0708 37.6283L29.0356 37.9788L29.0005 38.3761C28.9887 38.5318 28.9809 38.6875 28.9731 38.8432L28.9731 38.8434C28.9712 38.896 28.9682 38.9476 28.9653 38.9991C28.9624 39.0508 28.9594 39.1024 28.9575 39.155C28.9458 39.4198 28.9419 39.6846 28.9419 39.9494C28.9419 40.1675 28.9458 40.3856 28.9536 40.6037C28.9536 40.629 28.9546 40.6534 28.9555 40.6777C28.9565 40.702 28.9575 40.7264 28.9575 40.7517L28.9579 40.7622V40.7622C28.9656 40.9536 28.9734 41.1485 28.9887 41.3398C28.9887 41.3495 28.9897 41.3592 28.9907 41.369L28.9909 41.3715C28.9918 41.3804 28.9926 41.3893 28.9926 41.3982C29.1489 43.7192 29.688 45.9741 30.5981 48.1161C30.6013 48.124 30.6051 48.1318 30.609 48.1399C30.6148 48.1519 30.6208 48.1645 30.6255 48.1784C30.7427 48.4511 30.8638 48.7237 30.9927 48.9885C31.0063 49.0157 31.02 49.0439 31.0336 49.0721L31.0338 49.0724C31.0474 49.1006 31.0611 49.1288 31.0747 49.156C31.1841 49.3818 31.3013 49.6077 31.4185 49.8297C31.4497 49.892 31.481 49.9504 31.5161 50.0127C31.6606 50.2737 31.8052 50.5346 31.9614 50.7877L13.5744 50.7838V29.1154L31.9614 29.115C31.9585 29.1199 31.9558 29.1248 31.9532 29.1296ZM13.2071 18.5298C13.1016 18.5298 13 18.5142 12.9024 18.4753C12.461 18.3116 12.2383 17.8171 12.4063 17.377C12.5313 17.0499 12.8555 16.8279 13.2071 16.8279C13.3125 16.8279 13.4141 16.8473 13.5118 16.8824C13.9532 17.0499 14.1758 17.5406 14.0079 17.9807C13.879 18.3117 13.5586 18.5298 13.2071 18.5298ZM86.2 62.5797C86.3563 62.5797 86.5086 62.6225 86.6414 62.7043C86.8367 62.8212 86.9735 63.0081 87.0321 63.2301C87.0867 63.4482 87.0555 63.678 86.9344 63.8727L86.9343 63.8752L86.9339 63.8761C86.9337 63.8763 86.9334 63.8764 86.9329 63.8765L86.9305 63.8766C86.7742 64.1336 86.5008 64.2855 86.2 64.2855C86.0438 64.2855 85.8914 64.2427 85.7586 64.1609C85.3524 63.9194 85.2274 63.3936 85.4696 62.9925C85.6258 62.7316 85.8992 62.5797 86.2 62.5797ZM38.5234 24.2318C38.6953 24.2318 38.8672 24.1773 39.0078 24.0799C39.3945 23.8112 39.4922 23.2816 39.2226 22.8921C39.0664 22.6624 38.8007 22.5261 38.5195 22.5261C38.3476 22.5261 38.1757 22.5767 38.0351 22.6779C37.6445 22.9428 37.5507 23.4763 37.8164 23.8619C37.9765 24.0916 38.2382 24.2318 38.5234 24.2318ZM36.2384 35.919C36.2384 35.697 36.3282 35.475 36.4884 35.3192C36.6486 35.1596 36.8712 35.07 37.0939 35.07H45.1056V27.0903C45.1056 26.8644 45.1993 26.6424 45.3595 26.4866C45.5157 26.327 45.7384 26.2374 45.961 26.2374H54.0392C54.2657 26.2374 54.4884 26.3269 54.6446 26.4866C54.8048 26.6463 54.8946 26.8683 54.8946 27.0903V35.07H62.9063C63.1329 35.07 63.3516 35.1596 63.5118 35.3192C63.668 35.475 63.7618 35.697 63.7618 35.919V43.9688C63.7618 44.1947 63.672 44.4089 63.5118 44.5686C63.3477 44.7321 63.1368 44.8217 62.9063 44.8217H54.8946V52.8053C54.8946 53.0351 54.8087 53.2454 54.6446 53.409C54.4845 53.5725 54.2696 53.6582 54.0392 53.6582H45.961C45.7384 53.6582 45.5157 53.5686 45.3595 53.409C45.1993 53.2493 45.1056 53.0312 45.1056 52.8053V44.8217H37.0939C36.8673 44.8217 36.6447 44.7282 36.4884 44.5686C36.3282 44.4128 36.2384 44.1908 36.2384 43.9688V35.919ZM45.961 36.7718H37.9493V43.1198H45.961C46.1876 43.1198 46.4102 43.2094 46.5665 43.3691C46.7266 43.5287 46.8165 43.7468 46.8165 43.9727V51.9563H53.1876V43.9727C53.1876 43.7468 53.2813 43.5248 53.4376 43.3691C53.5977 43.2094 53.8204 43.1198 54.0431 43.1198H62.0548V36.7718H54.0431C53.8165 36.7718 53.5977 36.6823 53.4376 36.5226C53.2813 36.3629 53.1876 36.1448 53.1876 35.919V27.9431H46.8165V35.919C46.8165 36.1448 46.7266 36.3668 46.5665 36.5226C46.4063 36.6823 46.1876 36.7718 45.961 36.7718ZM21.3214 74.2942H78.6804C79.1531 74.2942 79.5359 74.6759 79.5359 75.1471C79.5359 75.6183 79.1492 76 78.6804 76H21.3214C20.8487 76 20.4659 75.6144 20.4659 75.1471C20.4659 74.6759 20.8487 74.2942 21.3214 74.2942Z" fill="#005EB8"/>
</svg>
