<svg width="152" height="152" fill="none" xmlns="http://www.w3.org/2000/svg"><path fill-rule="evenodd" clip-rule="evenodd" d="M5.427 101.405C.664 88.35-.218 74.235 2.6 60.648c2.998-13.937 9.704-26.82 19.76-37.055C51.303-6.053 98.768-6.584 128.415 22.359L130 23.944l-.179-10.056c0-1.234.882-2.116 2.116-2.116s2.116.882 2.116 2.116l.179 15.178c0 1.233-.882 2.116-2.116 2.116l-15.178.179c-1.234 0-2.116-.882-2.116-2.116s.882-2.116 2.116-2.116l10.057-.18-1.579-1.591c-13.585-13.062-31.41-20.293-50.29-20.12-18.878.359-36.523 7.768-49.757 21.355C6.309 46.183.313 74.235 9.487 100c.352 1.061-.18 2.295-1.234 2.826-.179 0-.53.179-.703.179-1.061-.186-1.771-.717-2.123-1.599v-.002zm121.221 24.001c-27.35 27.882-72.166 28.413-100.047 1.234l-1.585-1.585 10.056-.179c1.234 0 2.116-1.062 2.116-2.116 0-1.234-1.061-2.116-2.116-2.116l-15.178.179c-1.233 0-2.116 1.061-2.116 2.116l.18 15.178c0 1.234 1.061 2.116 2.116 2.116 1.233 0 2.115-1.062 2.115-2.116l-.179-10.057 1.586 1.586C38.243 143.941 57.122 151 76 151c19.41 0 38.999-7.589 53.638-22.588 10.056-10.236 16.942-23.119 19.761-37.055 2.833-13.592 1.951-27.709-2.812-40.764a2.086 2.086 0 00-2.827-1.234 2.084 2.084 0 00-1.233 2.826c9.174 25.579 3.177 53.633-15.881 73.221h.001zM51.125 48.649c.351-.351.53-.882.351-1.234l-1.585-5.996c-.703-2.468.53-5.114 2.998-6.176l7.589-3.53a4.9 4.9 0 012.295-.53c1.765 0 3.35.882 4.412 2.295l3.529 5.115c.179.351.703.53 1.233.53 2.116-.179 4.06-.351 6.176-.179.531 0 1.062-.179 1.234-.703l2.998-5.293c.883-1.586 2.647-2.647 4.591-2.647.703 0 1.234.18 1.944.351l7.76 2.999c2.468.882 3.881 3.529 3.351 5.996l-1.234 6.176c0 .53.18.882.53 1.234 1.414 1.234 2.999 2.468 4.233 4.06.351.351.882.53 1.234.351l5.996-1.585c2.647-.703 5.294.703 6.176 2.998l3.529 7.59c1.062 2.295.352 5.114-1.944 6.706l-5.293 3.529c-.352.18-.531.703-.531 1.234.179 1.944.351 3.88.179 5.824 0 .53.179.882.703 1.234l5.294 3.177c2.295 1.234 3.177 4.06 2.295 6.528l-2.812 7.589c-.703 2.116-2.826 3.529-5.115 3.529-.351 0-.703 0-1.061-.18l-6.176-1.233c-.531-.18-.882.179-1.234.53-1.234 1.586-2.467 2.999-4.06 4.233-.351.351-.53.882-.351 1.233l1.585 5.997c.703 2.467-.53 5.114-2.998 6.176l-7.589 3.529a4.906 4.906 0 01-2.295.531c-1.765 0-3.35-.883-4.412-2.296l-3.529-5.293c-.179-.352-.703-.531-1.233-.531-1.944.179-3.709.352-5.646.179-.53 0-1.061.179-1.233.703l-3.178 5.473c-.882 1.585-2.826 2.647-4.59 2.647-.704 0-1.234-.179-1.944-.352l-7.761-2.998c-2.468-.882-3.881-3.529-3.35-5.996l1.233-6.176c.18-.531-.179-.883-.53-1.234-1.586-1.234-2.998-2.647-4.412-4.06-.351-.352-.882-.531-1.233-.352l-5.997 1.586c-2.468.703-5.114-.703-6.176-2.998l-3.529-7.59c-1.061-2.295-.351-5.114 1.944-6.706l5.294-3.53c.351-.35.53-.702.53-1.233-.179-1.944-.351-3.88-.179-5.996 0-.531-.18-.883-.703-1.234l-5.473-3.178c-2.295-1.234-3.177-4.06-2.295-6.527l2.998-7.761v-.18c.882-1.943 2.826-3.35 4.942-3.35.352 0 .703 0 1.062.18l6.176 1.234c.53.179.882-.18 1.233-.531 1.234-1.062 2.647-2.654 4.053-3.887zm-.704 7.058c-1.233 1.586-3.35 2.468-5.472 2.116l-6.176-1.233h-.18c-.351 0-.882.351-1.061.703l-2.826 7.76c-.18.532 0 1.062.53 1.235l5.474 3.177c1.764 1.062 2.826 2.998 2.826 5.114 0 1.765 0 3.53.179 5.294.179 2.116-.703 4.06-2.468 5.294l-5.114 3.529c-.352.351-.53.882-.352 1.234l3.53 7.588c.179.531.703.704 1.233.531l5.997-1.585c.53-.18.882-.18 1.413-.18 1.585 0 2.998.704 4.232 1.765 1.234 1.234 2.468 2.468 3.88 3.529 1.586 1.234 2.468 3.35 2.117 5.473l-1.586 6.004c-.179.53.18 1.061.703 1.233l7.761 2.999c.531.179 1.062 0 1.234-.531l3.178-5.473c1.061-1.764 2.998-2.826 5.114-2.826 1.585 0 3.35 0 4.942-.179 2.116-.179 4.06.703 5.294 2.467l3.529 5.294c.351.351.882.531 1.234.351l7.589-3.529c.53-.179.703-.703.53-1.233l-1.585-5.997c-.53-2.116.18-4.232 1.585-5.645 1.234-1.234 2.468-2.468 3.529-3.708 1.234-1.586 3.35-2.468 5.473-2.117l6.176 1.234c.531.18 1.062-.179 1.234-.703l2.998-7.76c.179-.532 0-1.062-.53-1.235l-5.294-3.177c-1.765-1.062-2.826-2.998-2.826-5.115.179-1.764 0-3.529-.179-5.114-.18-2.116.703-4.06 2.467-5.293l5.294-3.53c.351-.351.53-.882.351-1.233l-3.529-7.59c-.179-.53-.703-.702-1.234-.53l-5.631 1.592c-1.944.53-4.232-.179-5.645-1.585-1.234-1.234-2.468-2.468-3.708-3.53-1.586-1.233-2.468-3.349-2.116-5.472l1.233-6.176c.18-.53-.179-1.061-.703-1.234l-7.76-2.998c-.532-.18-1.062 0-1.235.53l-2.998 5.294c-1.061 1.765-2.998 2.826-5.114 2.826-1.765-.179-3.53 0-5.294.18-2.116.179-4.232-.703-5.293-2.468l-3.53-5.114c-.351-.352-.882-.531-1.233-.352l-7.59 3.53c-.53.178-.702.702-.53 1.233l1.585 5.997c.531 1.944-.179 4.232-1.585 5.645-1.771.868-3.005 2.281-4.067 3.694zm9.885 27.53c-1.944-4.231-2.296-8.822-.703-13.233 2.467-6.88 9.002-11.47 16.232-11.47 1.944 0 3.88.352 5.824 1.062 4.412 1.585 7.94 4.762 9.884 8.822 1.944 4.232 2.296 8.823.704 13.234-2.468 6.88-9.002 11.47-16.233 11.47-1.944 0-3.88-.352-5.824-1.062-4.24-1.413-7.768-4.59-9.884-8.822zm4.053-1.764c1.413 3.178 4.06 5.473 7.41 6.707 1.412.53 2.825.703 4.41.703 5.474 0 10.409-3.53 12.173-8.644 1.234-3.35 1.061-6.879-.53-9.884-1.414-3.177-4.06-5.473-7.41-6.707-1.413-.53-2.826-.703-4.412-.703-5.472 0-10.408 3.53-12.172 8.644-1.234 3.177-1.055 6.707.53 9.884z" fill="#005EB8"/><path d="M5.427 101.405l.707-.25-.003-.007-.704.257zM2.6 60.648l-.734-.158v.006l.734.152zm19.76-37.055l.536.525.001-.001-.537-.524zm106.053-1.234l.53-.53-.006-.007-.524.537zm1.585 1.585l-.53.53 1.313 1.314-.033-1.857-.75.013zm-.179-10.056h-.75v.013l.75-.013zm4.232 0h-.75v.009l.75-.01zm.179 15.178h.75v-.01l-.75.01zm-2.116 2.116v-.75h-.009l.009.75zm-15.178.179v.75h.009l-.009-.75zm0-4.232v.75h.013l-.013-.75zm10.057-.18l.013.75 1.755-.03-1.236-1.247-.532.528zm-1.579-1.591l.533-.529-.007-.006-.006-.006-.52.54zm-50.29-20.12l-.006-.75h-.007l.014.75zM25.369 26.593l-.537-.524.537.524zM9.487 100l.712-.236-.003-.008-.002-.008-.707.252zm-1.234 2.826v.75h.178l.16-.08-.338-.67zm-.703.179l-.13.739.065.011h.065v-.75zm-2.123-1.599l-.707.25.005.014.005.014.697-.278zm121.221 23.999l.536.526.918-.937-1.273-.316-.181.727zM26.601 126.64l-.53.531.006.006.524-.537zm-1.585-1.585l-.014-.75-1.765.032 1.248 1.248.53-.53zm10.056-.179v-.75h-.013l.013.75zm0-4.232v-.75h-.009l.01.75zm-15.178.179v.75h.01l-.01-.75zm-2.116 2.116h-.75v.009l.75-.009zm.18 15.178h.75v-.009l-.75.009zm4.232 0h.75v-.014l-.75.014zm-.18-10.057l.53-.53-1.313-1.313.034 1.857.75-.014zm1.586 1.586l-.53.53.006.006.524-.536zm106.043-1.234l-.535-.525-.002.001.537.524zM149.4 91.357l-.734-.153-.001.004.735.149zm-2.812-40.764l-.712.235.003.011.004.01.705-.256zm-2.827-1.234l.236.712.03-.01.029-.013-.295-.69zm-1.233 2.826l.706-.253-.008-.021-.009-.021-.689.295zm-15.881 73.221l-.538-.523-.91.936 1.267.315.181-.728zM51.124 48.649l-.53-.53-.044.044-.035.05.61.436zm.352-1.234l-.725.192.02.078.037.071.668-.34zm-1.585-5.996l.725-.192-.002-.007-.002-.007-.721.206zm2.998-6.176l.296.689.01-.004.01-.005-.316-.68zm7.589-3.53l.316.681.01-.005.01-.004-.336-.671zm6.707 1.765l.617-.425-.009-.013-.009-.012-.6.45zm3.529 5.115l.668-.34-.023-.045-.028-.041-.617.426zm1.233.53v.75h.032l.032-.002-.064-.748zm6.176-.179l-.06.748.03.002h.03v-.75zm1.234-.703l-.653-.37-.036.065-.023.07.712.235zm2.998-5.293l.653.37.003-.006-.656-.364zm6.535-2.296l.27-.7-.046-.017-.047-.011-.177.728zm7.76 2.999l-.27.7.01.003.008.003.253-.706zm3.351 5.996l-.734-.157-.002.01.736.147zm-1.234 6.176l-.736-.147-.014.073v.074h.75zm.53 1.234l-.53.53.018.018.02.017.493-.565zm4.233 4.06l-.593.46.029.037.033.033.531-.53zm1.234.351l-.192-.725-.078.02-.071.037.341.668zm5.996-1.585l.192.725h.001l-.193-.725zm6.176 2.998l-.7.27.009.023.011.023.68-.316zm3.529 7.59l.681-.316-.001-.001-.68.316zm-1.944 6.706l.416.624.012-.008-.428-.616zm-5.293 3.529l.34.668.039-.02.037-.024-.416-.624zm-.531 1.234h-.75v.034l.003.034.747-.068zm.179 5.824l-.747-.066-.003.033v.033h.75zm.703 1.234l-.418.623.016.01.016.01.386-.643zm5.294 3.177l-.386.644.015.009.016.008.355-.66zm2.295 6.528l.703.26.003-.008-.706-.252zm-2.812 7.589l-.703-.26-.005.011-.004.012.712.237zm-6.176 3.35l.335-.671-.09-.045-.098-.02-.147.736zm-6.176-1.234l-.24.71.046.016.047.01.147-.736zm-1.234.53l-.53-.53-.033.033-.029.037.592.46zm-4.06 4.233l-.459-.593-.037.029-.034.033.53.531zm-.351 1.233l.725-.191-.02-.078-.037-.071-.668.34zm1.585 5.997l-.725.192.002.007.002.006.721-.205zm-2.998 6.176l-.296-.689-.01.004-.01.005.316.68zm-7.589 3.529l-.316-.68-.01.004-.01.005.336.671zm-6.707-1.765l-.624.416.012.018.013.017.6-.451zm-3.529-5.293l-.668.34.02.039.024.037.624-.416zm-1.233-.531v-.75h-.035l-.034.003.069.747zm-5.646.179l.067-.747-.033-.003h-.034v.75zm-1.233.703l.648.377.04-.068.024-.074-.712-.235zm-3.178 5.473l-.649-.377-.006.012.655.365zm-6.534 2.295l-.27.7.045.018.048.011.177-.729zm-7.761-2.998l.27-.7-.009-.003-.009-.003-.252.706zm-3.35-5.996l.733.157.002-.011-.735-.146zm1.233-6.176l-.71-.24-.016.045-.009.048.736.147zm-.53-1.234l.53-.53-.033-.033-.037-.029-.46.592zm-5.645-4.412l.191.726.078-.021.071-.036-.34-.669zm-5.997 1.586l-.192-.725-.007.002-.006.002.205.721zm-6.176-2.998l.68-.315v-.002l-.68.317zm-3.529-7.59l-.68.315v.002l.68-.316zm1.944-6.706l-.416-.624-.012.008.428.616zm5.294-3.53l.416.625.061-.041.053-.053-.53-.53zm.53-1.233h.75v-.034l-.003-.035-.747.07zm-.179-5.996l.748.06.002-.03v-.03h-.75zm-.703-1.234l.418-.623-.02-.014-.021-.012-.377.649zm-5.473-3.178l.377-.648-.01-.007-.012-.005-.355.66zm-2.295-6.527l-.7-.27-.003.008-.003.01.706.252zm2.998-7.761l.7.27.05-.13v-.14h-.75zm0-.18l-.683-.31-.067.148v.162h.75zm6.004-3.17l-.336.67.09.046.099.02.147-.736zm6.176 1.234l.24-.71-.046-.016-.047-.01-.147.736zm1.233-.531l-.489-.569-.021.019-.02.02.53.53zm4.053-3.887l.495.563.065-.057.05-.07-.61-.436zm-.703 7.057l.592.461.943-1.21H50.42v.75zm-5.472 2.116l-.147.736.012.002.012.002.123-.74zm-6.176-1.233l.147-.736-.073-.014h-.074v.75zm-1.241.703l-.668-.341-.021.04-.016.044.705.257zm-2.826 7.76L34 64.798l-.003.008-.003.009.71.24zm.53 1.235l.377-.649-.069-.04-.076-.025-.231.714zm5.474 3.177l.386-.643-.01-.005-.376.648zm3.005 10.408l.747-.063-.001-.013-.746.076zm-2.468 5.294l.426.617.004-.003-.43-.614zm-5.114 3.529l-.426-.618-.056.04-.048.047.53.53zm-.352 1.234l.68-.317-.005-.012-.006-.012-.669.34zm3.53 7.588l.71-.24-.013-.038-.017-.038-.68.316zm1.233.531l-.191-.725-.02.005-.02.007.231.713zm5.997-1.585l.192.725.024-.006.024-.009-.24-.71zm5.645 1.585l.53-.53-.02-.02-.02-.018-.49.568zm3.88 3.529l.461-.592-.01-.007-.45.599zm2.117 5.473l.725.192.009-.035.005-.034-.74-.123zm-1.586 6.004l.71.24.009-.024.006-.025-.725-.191zm.703 1.233l.27-.699-.017-.007-.018-.006-.235.712zm7.761 2.999l-.27.699.015.006.016.005.24-.71zm1.234-.531l-.648-.377-.04.069-.025.076.713.232zm3.178-5.473l-.643-.387-.006.011.649.376zm10.056-3.005l-.063-.748-.01.001-.01.002.083.745zm5.294 2.467l.624-.416-.005-.007-.004-.006-.615.429zm3.529 5.294l-.624.416.041.062.053.052.53-.53zm1.234.351l-.317-.68-.012.006-.012.006.34.668zm7.589-3.529l-.24-.71-.04.013-.037.017.317.68zm.53-1.233l-.725.191.006.02.006.02.713-.231zm-1.585-5.997l-.728.182.003.01.725-.192zm1.585-5.645l-.53-.53h-.001l.531.53zm3.529-3.708l.57.487.012-.013.01-.014-.592-.46zm5.473-2.117l.147-.735-.012-.002-.012-.002-.123.74zm6.176 1.234l.24-.71-.046-.016-.047-.01-.147.736zm1.234-.703l-.7-.27-.007.018-.005.018.712.234zm2.998-7.76l.7.27.006-.016.005-.015-.711-.24zm-.53-1.235l-.386.643.073.044.081.027.232-.714zm-5.294-3.177l-.387.642h.001l.386-.642zm-2.826-5.115l-.746-.075-.004.038v.037h.75zm-.179-5.114l-.748.063.001.01.001.011.746-.084zm2.467-5.293l-.416-.624-.007.004-.007.005.43.615zm5.294-3.53l.416.624.062-.04.052-.053-.53-.53zm.351-1.233l-.68.316.006.012.006.012.668-.34zm-3.529-7.59l-.71.24.013.04.017.037.68-.316zm-1.234-.53l.204.722.014-.004.014-.005-.232-.713zm-5.631 1.592l.198.724.006-.002-.204-.722zm-5.645-1.585l-.53.53.001.002.529-.532zm-3.708-3.53l.487-.57-.013-.01-.014-.011-.46.592zm-2.116-5.472l-.736-.147-.002.012-.002.012.74.123zm1.233-6.176l-.71-.24-.016.046-.009.047.735.147zm-.703-1.234l-.27.7.018.007.018.006.234-.713zm-7.76-2.998l.27-.7-.016-.005-.015-.006-.24.711zm-1.235.53l.653.37.037-.066.024-.072-.714-.231zm-2.998 5.294l.643.387.005-.009.005-.008-.653-.37zm-5.114 2.826l-.076.747.038.003h.038v-.75zm-5.294.18l.064.747.012-.001-.076-.746zm-5.293-2.468l.642-.387-.012-.02-.013-.019-.617.426zm-3.53-5.114l.618-.426-.039-.056-.048-.049-.53.53zm-1.233-.352l.316.68.012-.005.012-.007-.34-.668zm-7.59 3.53l.24.71.04-.013.037-.018-.316-.68zm-.53 1.233l.725-.192-.005-.02-.007-.02-.713.232zm1.585 5.997l-.725.191.002.006.723-.197zm-1.585 5.645l.33.673.113-.055.089-.09-.532-.528zm-4.067 3.694l-.6-.45-.901 1.2h1.501v-.75zm9.885 27.53l-.682.314.005.01.006.012.67-.335zm-.703-13.233l.705.254v-.001l-.705-.253zm22.056-10.408l-.257.704.004.001.253-.705zm9.884 8.822l.682-.313-.005-.01-.677.323zm.704 13.234l-.706-.254v.001l.706.253zM70.19 92.06l.257-.704-.01-.004-.01-.003-.237.711zm-5.831-10.587l.685-.305-.007-.015-.007-.015-.671.335zm7.41 6.707l.263-.702-.004-.002-.26.704zm16.583-7.94l-.704-.26-.002.007-.003.008.71.244zm-.53-9.885l-.686.305.01.023.013.023.662-.35zm-7.41-6.707l-.264.703.005.001.259-.704zm-16.584 7.94l.699.272.005-.013.005-.013-.71-.245zM6.13 101.149C1.418 88.23.543 74.256 3.335 60.8l-1.469-.304C-.98 74.214-.09 88.472 4.722 101.662l1.41-.514zM3.334 60.806C6.304 47 12.945 34.248 22.897 24.118l-1.07-1.05C11.665 33.41 4.893 46.42 1.866 60.49l1.467.316zm19.564-36.69C51.55-5.231 98.54-5.758 127.89 22.897l1.048-1.074C98.996-7.41 51.057-6.874 21.825 23.07l1.073 1.048zm104.985-1.227l1.586 1.586 1.06-1.061-1.585-1.585-1.061 1.06zm2.866 1.042l-.179-10.056-1.5.026.179 10.057 1.5-.027zm-.179-10.043c0-.82.546-1.366 1.366-1.366v-1.5c-1.648 0-2.866 1.218-2.866 2.866h1.5zm1.366-1.366c.819 0 1.366.546 1.366 1.366h1.5c0-1.648-1.218-2.866-2.866-2.866v1.5zm1.366 1.375l.179 15.178 1.5-.018-.179-15.178-1.5.018zm.179 15.169c0 .82-.547 1.366-1.366 1.366v1.5c1.648 0 2.866-1.218 2.866-2.866h-1.5zm-1.375 1.366l-15.178.179.018 1.5 15.178-.18-.018-1.5zm-15.169.179c-.819 0-1.366-.547-1.366-1.366h-1.5c0 1.648 1.218 2.866 2.866 2.866v-1.5zm-1.366-1.366c0-.82.547-1.366 1.366-1.366v-1.5c-1.648 0-2.866 1.218-2.866 2.866h1.5zm1.379-1.366l10.057-.18-.027-1.5-10.056.18.026 1.5zm10.576-1.457l-1.578-1.593-1.066 1.056 1.579 1.593 1.065-1.056zm-1.591-1.605C112.211 11.622 94.198 4.314 75.119 4.488l.014 1.5c18.678-.17 36.315 6.982 49.762 19.91l1.04-1.081zM75.112 4.488c-19.07.362-36.906 7.85-50.281 21.581l1.074 1.047C38.997 13.676 56.453 6.343 75.14 5.988l-.028-1.5zM24.83 26.07C5.57 45.867-.488 74.22 8.78 100.252l1.414-.503C1.114 74.25 7.048 46.5 25.904 27.116L24.83 26.07zM8.775 100.237c.227.686-.116 1.546-.859 1.92l.674 1.34c1.366-.688 2.085-2.296 1.609-3.732l-1.424.472zm-.522 1.84c-.15 0-.285.034-.36.055a4.606 4.606 0 00-.235.074c-.072.025-.117.04-.153.05-.047.013-.02 0 .045 0v1.5c.15 0 .287-.035.36-.056.083-.023.17-.053.23-.073.07-.024.116-.039.152-.049.045-.013.021-.001-.039-.001v-1.5zm-.573.19c-.85-.149-1.316-.536-1.556-1.138l-1.394.556c.464 1.163 1.417 1.837 2.69 2.06l.26-1.478zm-1.546-1.11v-.002l-1.415.5.001.002 1.414-.5zm119.979 23.724c-27.062 27.588-71.404 28.111-98.989 1.222l-1.046 1.074c28.178 27.469 73.467 26.93 101.106-1.245l-1.071-1.051zm-98.982 1.229l-1.585-1.585-1.06 1.06 1.585 1.586 1.06-1.061zm-2.102-.305l10.057-.179-.027-1.5-10.057.179.027 1.5zm10.043-.179c1.689 0 2.866-1.439 2.866-2.866h-1.5c0 .682-.587 1.366-1.366 1.366v1.5zm2.866-2.866c0-1.689-1.439-2.866-2.866-2.866v1.5c.682 0 1.366.587 1.366 1.366h1.5zm-2.875-2.866l-15.178.179.018 1.5 15.178-.179-.018-1.5zm-15.169.179c-1.688 0-2.866 1.439-2.866 2.866h1.5c0-.682.587-1.366 1.366-1.366v-1.5zm-2.866 2.875l.18 15.178 1.5-.018-.18-15.178-1.5.018zm.18 15.169c0 1.688 1.438 2.866 2.866 2.866v-1.5c-.683 0-1.367-.587-1.367-1.366h-1.5zm2.866 2.866c1.688 0 2.865-1.439 2.865-2.866h-1.5c0 .682-.586 1.366-1.366 1.366v1.5zm2.865-2.88l-.179-10.056-1.5.027.18 10.056 1.5-.027zm-1.459-9.512l1.585 1.585 1.061-1.061-1.585-1.585-1.061 1.061zm1.592 1.591C37.865 144.62 56.934 151.75 76 151.75v-1.5c-18.691 0-37.38-6.988-51.882-21.141l-1.047 1.073zM76 151.75c19.603 0 39.389-7.664 54.175-22.814l-1.074-1.048C114.61 142.737 95.216 150.25 76 150.25v1.5zm54.173-22.812c10.157-10.338 17.113-23.352 19.961-37.432l-1.47-.298c-2.79 13.792-9.605 26.545-19.561 36.679l1.07 1.051zm19.96-37.428c2.861-13.724 1.971-27.983-2.842-41.174l-1.409.514c4.713 12.92 5.588 26.893 2.783 40.354l1.468.306zM147.3 50.357a2.835 2.835 0 00-3.833-1.688l.589 1.38a1.336 1.336 0 011.82.78l1.424-.472zm-3.774-1.71a2.834 2.834 0 00-1.688 3.833l1.379-.59a1.335 1.335 0 01.78-1.82l-.471-1.423zm-1.704 3.791c9.078 25.31 3.145 53.063-15.713 72.445l1.075 1.046c19.259-19.794 25.32-48.15 16.05-73.997l-1.412.506zm-15.356 73.696h.001l.362-1.455-.001-.001-.362 1.456zM51.655 49.179c.259-.258.459-.586.563-.93.1-.338.131-.772-.074-1.174l-1.336.681c-.026-.051.004-.044-.027.06a.762.762 0 01-.187.303l1.06 1.06zm.546-1.955l-1.585-5.997-1.45.384 1.585 5.996 1.45-.383zm-1.589-6.01c-.598-2.1.447-4.367 2.573-5.282l-.592-1.378c-2.81 1.209-4.231 4.235-3.424 7.07l1.443-.41zm2.593-5.291l7.59-3.529-.633-1.36-7.59 3.529.633 1.36zm7.608-3.538c.6-.3 1.194-.452 1.96-.452v-1.5c-.999 0-1.823.207-2.63.61l.67 1.342zm1.96-.452c1.503 0 2.875.75 3.812 1.996l1.2-.901c-1.188-1.58-2.985-2.595-5.012-2.595v1.5zm3.794 1.971l3.53 5.115 1.234-.852-3.53-5.114-1.234.851zm3.478 5.03c.201.393.556.623.873.751.325.132.686.188 1.03.188v-1.5c-.188 0-.354-.032-.468-.078-.123-.05-.12-.085-.098-.043l-1.337.681zm1.966.937c2.127-.18 4.008-.346 6.051-.18l.122-1.494c-2.188-.178-4.195 0-6.3.18l.127 1.494zm6.112-.177c.632 0 1.617-.218 1.947-1.218l-1.425-.47c-.016.047-.038.079-.106.112a.965.965 0 01-.416.076v1.5zm1.887-1.083l2.998-5.294-1.305-.739-2.999 5.294 1.306.739zm3-5.299c.749-1.344 2.26-2.261 3.936-2.261v-1.5c-2.212 0-4.23 1.206-5.246 3.032l1.31.73zm3.936-2.261c.587 0 .99.142 1.767.33l.354-1.457c-.643-.157-1.301-.373-2.121-.373v1.5zm1.674.301l7.76 2.998.541-1.399-7.76-2.998-.541 1.399zm7.778 3.005c2.109.754 3.322 3.027 2.87 5.133l1.466.315c.609-2.83-1.004-5.85-3.83-6.86l-.506 1.412zm2.867 5.143l-1.234 6.176 1.471.294 1.234-6.176-1.47-.294zm-1.248 6.323c0 .354.06.682.199.99.137.306.332.555.551.774l1.061-1.06a1.11 1.11 0 01-.243-.326.89.89 0 01-.068-.378h-1.5zm.787 1.799c1.457 1.272 2.957 2.437 4.133 3.954l1.186-.919c-1.292-1.667-2.963-2.97-4.332-4.165l-.987 1.13zM103 51.647c.259.26.586.459.932.563.337.101.77.132 1.173-.074l-.681-1.336c.051-.026.044.005-.06-.027a.765.765 0 01-.303-.187L103 51.647zm1.956.546l5.997-1.585-.384-1.45-5.996 1.585.383 1.45zm5.998-1.585c2.288-.608 4.542.616 5.283 2.542l1.4-.538c-1.024-2.664-4.063-4.252-7.068-3.454l.385 1.45zm5.303 2.59l3.529 7.588 1.36-.632-3.529-7.589-1.36.633zm3.528 7.587c.906 1.957.312 4.386-1.69 5.776l.855 1.232c2.588-1.795 3.415-5.004 2.197-7.638l-1.362.63zm-1.679 5.768l-5.293 3.529.832 1.248 5.293-3.53-.832-1.247zm-5.218 3.485c-.394.2-.624.556-.752.872a2.788 2.788 0 00-.188 1.03h1.5c0-.188.033-.353.079-.468.049-.123.085-.12.042-.098l-.681-1.336zm-.937 1.97c.18 1.953.344 3.824.179 5.69l1.494.132c.179-2.022-.001-4.024-.179-5.96l-1.494.138zm.176 5.756c0 .353.06.709.25 1.049.186.335.462.59.785.808l.836-1.246c-.201-.135-.276-.23-.31-.291-.032-.057-.061-.142-.061-.32h-1.5zm1.067 1.877l5.294 3.177.772-1.286-5.294-3.177-.772 1.286zm5.325 3.195c1.923 1.034 2.719 3.446 1.944 5.614l1.412.505c.989-2.766.021-6.007-2.646-7.44l-.71 1.321zm1.947 5.606l-2.812 7.59 1.406.52 2.812-7.589-1.406-.52zm-2.821 7.613c-.591 1.78-2.405 3.016-4.403 3.016v1.5c2.579 0 5.012-1.59 5.827-4.043l-1.424-.473zm-4.403 3.016c-.367 0-.547-.01-.726-.1l-.67 1.341c.537.269 1.061.259 1.396.259v-1.5zm-.914-.165l-6.176-1.234-.294 1.471 6.176 1.234.294-1.47zm-6.083-1.209a1.549 1.549 0 00-1.291.123c-.306.172-.558.433-.713.588l1.061 1.06a5.39 5.39 0 01.233-.224.884.884 0 01.153-.116.2.2 0 01.04-.018h.005c.004 0 .014.002.032.008l.48-1.42zm-2.066.78c-1.218 1.567-2.407 2.923-3.927 4.101l.919 1.185c1.665-1.289 2.943-2.759 4.192-4.364l-1.184-.921zm-3.998 4.163a2.26 2.26 0 00-.563.931c-.1.337-.132.771.074 1.174l1.336-.681c.026.051-.004.044.027-.061a.752.752 0 01.187-.302l-1.061-1.061zm-.546 1.956l1.585 5.997 1.45-.384-1.585-5.996-1.45.383zm1.589 6.01c.598 2.101-.448 4.367-2.573 5.282l.592 1.378c2.81-1.209 4.231-4.236 3.424-7.071l-1.443.411zm-2.593 5.291l-7.59 3.529.633 1.36 7.59-3.529-.633-1.36zm-7.608 3.538c-.6.3-1.195.452-1.96.452v1.5c.999 0 1.823-.207 2.63-.61l-.67-1.342zm-1.96.452c-1.503 0-2.876-.75-3.812-1.996l-1.2.901c1.188 1.579 2.985 2.595 5.012 2.595v-1.5zm-3.788-1.962l-3.529-5.293-1.248.832 3.53 5.293 1.247-.832zm-3.484-5.218c-.201-.394-.556-.624-.873-.752a2.789 2.789 0 00-1.03-.188v1.5a1.3 1.3 0 01.468.079c.123.05.12.085.098.042l1.337-.681zm-1.971-.937c-1.957.181-3.653.344-5.51.179l-.133 1.494c2.016.18 3.849-.001 5.78-.179l-.137-1.494zm-5.577.176c-.632 0-1.617.219-1.946 1.219l1.425.469c.015-.047.038-.078.106-.112a.969.969 0 01.415-.076v-1.5zm-1.882 1.077l-3.177 5.473 1.297.753 3.177-5.473-1.297-.753zm-3.184 5.484c-.742 1.333-2.425 2.262-3.936 2.262v1.5c2.02 0 4.223-1.194 5.246-3.032l-1.31-.73zm-3.936 2.262c-.586 0-.99-.142-1.766-.33l-.354 1.457c.643.156 1.3.373 2.12.373v-1.5zm-1.673-.301l-7.761-2.999-.54 1.4 7.76 2.998.54-1.399zm-7.779-3.005c-2.108-.754-3.322-3.028-2.869-5.133l-1.466-.315c-.61 2.83 1.003 5.85 3.83 6.86l.505-1.412zm-2.867-5.144l1.234-6.175-1.47-.294-1.235 6.176 1.471.293zm1.21-6.082a1.549 1.549 0 00-.124-1.291c-.172-.307-.433-.558-.588-.713l-1.06 1.06c.092.092.163.163.224.233a.974.974 0 01.116.153c.01.017.014.028.016.034l.002.006v.005a.15.15 0 01-.008.033l1.421.48zm-.782-2.066c-1.542-1.2-2.923-2.58-4.341-3.998l-1.06 1.06c1.407 1.408 2.852 2.855 4.48 4.122l.921-1.184zm-4.341-3.998a2.255 2.255 0 00-.931-.563c-.337-.101-.771-.132-1.174.073l.681 1.337c-.05.026-.044-.005.06.026.097.029.21.095.303.187l1.06-1.06zm-1.956-.547l-5.997 1.586.384 1.45 5.996-1.585-.383-1.45zm-6.01 1.59c-2.072.59-4.365-.592-5.29-2.592l-1.361.63c1.198 2.59 4.198 4.22 7.062 3.404l-.411-1.442zm-5.29-2.594l-3.53-7.589-1.36.633 3.53 7.589 1.36-.633zm-3.53-7.587c-.904-1.958-.311-4.387 1.691-5.776l-.855-1.232c-2.588 1.795-3.414 5.004-2.197 7.637l1.362-.63zm1.68-5.768l5.294-3.53-.832-1.247-5.294 3.529.832 1.248zm5.408-3.623a2.59 2.59 0 00.551-.773c.139-.31.2-.637.2-.99h-1.5a.89.89 0 01-.069.377 1.11 1.11 0 01-.243.326l1.06 1.06zm.747-1.833c-.18-1.948-.345-3.824-.178-5.867l-1.495-.121c-.179 2.19 0 4.187.18 6.126l1.493-.138zm-.176-5.928c0-.352-.06-.708-.25-1.048-.186-.335-.462-.591-.785-.808l-.836 1.245c.201.135.276.23.31.292.032.056.061.142.061.32h1.5zm-1.076-1.882l-5.473-3.178-.753 1.298 5.472 3.177.754-1.297zm-5.495-3.19c-1.923-1.034-2.72-3.445-1.944-5.614l-1.412-.505c-.99 2.767-.021 6.007 2.646 7.44l.71-1.32zm-1.95-5.596l2.998-7.761-1.4-.54-2.998 7.76 1.4.541zm3.048-8.031v-.18h-1.5v.18h1.5zm-.067.13c.777-1.711 2.475-2.91 4.26-2.91v-1.5c-2.448 0-4.638 1.614-5.626 3.79l1.366.62zm4.26-2.91c.367 0 .546.011.725.1l.671-1.341c-.538-.269-1.062-.258-1.397-.258v1.5zm.914.165l6.176 1.234.293-1.47-6.175-1.235-.294 1.471zm6.083 1.21c.496.167.936.075 1.29-.124.307-.172.559-.433.714-.588l-1.061-1.06c-.092.092-.163.163-.233.225a.93.93 0 01-.153.115.222.222 0 01-.034.016l-.006.002h-.005a.158.158 0 01-.032-.008l-.48 1.421zm1.962-.674c.643-.553 1.327-1.238 2.004-1.917.687-.69 1.374-1.377 2.055-1.975l-.99-1.127c-.724.636-1.447 1.36-2.127 2.042-.689.69-1.329 1.332-1.92 1.84l.978 1.137zm4.174-4.02l-1.22-.872 1.22.873zm-1.904 6.162c-1.068 1.371-2.911 2.142-4.759 1.837l-.245 1.48c2.399.396 4.787-.597 6.187-2.396l-1.183-.921zm-4.734 1.84l-6.176-1.233-.294 1.471 6.176 1.234.294-1.471zm-6.323-1.247h-.18v1.5h.18v-1.5zm-.18 0c-.386 0-.753.174-1.009.344-.265.175-.553.44-.72.768l1.336.681.004-.006a.52.52 0 01.057-.069.945.945 0 01.308-.206c.047-.018.054-.012.024-.012v-1.5zm-1.766 1.196l-2.826 7.761 1.41.513 2.826-7.76-1.41-.514zm-2.832 7.778a1.84 1.84 0 00.014 1.271c.173.43.522.762.996.916l.463-1.427a.14.14 0 01-.053-.027.057.057 0 01-.014-.022c-.01-.027-.027-.105.015-.231l-1.42-.48zm.865 2.122l5.473 3.178.753-1.297-5.473-3.178-.753 1.297zm5.463 3.172c1.529.92 2.463 2.606 2.463 4.471h1.5c0-2.366-1.19-4.553-3.19-5.756l-.773 1.285zm2.463 4.471c0 1.759-.001 3.561.183 5.37l1.492-.152c-.175-1.72-.175-3.447-.175-5.218h-1.5zm.181 5.357c.158 1.855-.608 3.538-2.15 4.616l.86 1.23c1.988-1.39 2.986-3.595 2.785-5.972l-1.495.126zm-2.146 4.613l-5.114 3.53.852 1.234 5.114-3.529-.852-1.235zm-5.218 3.616a2.258 2.258 0 00-.563.932c-.101.337-.132.77.073 1.173l1.337-.681c.026.051-.005.044.026-.06a.76.76 0 01.187-.303l-1.06-1.06zm-.502 2.08l3.53 7.59 1.36-.633-3.53-7.589-1.36.633zm3.499 7.513c.158.469.489.815.917.986.412.165.86.148 1.259.019l-.463-1.427c-.132.043-.212.026-.239.015a.058.058 0 01-.023-.014.155.155 0 01-.03-.059l-1.421.48zm2.136 1.016l5.997-1.585-.384-1.45-5.996 1.585.383 1.45zm6.045-1.6c.405-.136.65-.14 1.173-.14v-1.5c-.538 0-.997-.002-1.653.22l.48 1.42zm1.173-.14c1.35 0 2.596.597 3.743 1.584l.978-1.137c-1.32-1.136-2.9-1.946-4.721-1.946v1.5zm3.702 1.545c1.227 1.228 2.498 2.5 3.96 3.599l.901-1.199c-1.364-1.025-2.56-2.22-3.8-3.46l-1.061 1.06zm3.95 3.591c1.371 1.068 2.142 2.911 1.837 4.759l1.48.245c.397-2.399-.597-4.787-2.396-6.188l-.921 1.184zm1.851 4.69l-1.585 6.003 1.45.383 1.586-6.003-1.45-.383zm-1.57 5.955c-.347 1.026.368 1.919 1.179 2.186l.469-1.425a.383.383 0 01-.207-.157c-.032-.053-.032-.09-.02-.124l-1.421-.48zm1.143 2.173l7.761 2.998.54-1.399-7.76-2.998-.541 1.399zm7.791 3.009a1.83 1.83 0 001.272-.014c.43-.172.762-.522.916-.995l-1.427-.464a.138.138 0 01-.027.054.06.06 0 01-.022.014c-.027.011-.105.027-.232-.016l-.48 1.421zm2.123-.864l3.177-5.473-1.297-.753-3.177 5.472 1.297.754zm3.171-5.463c.92-1.529 2.607-2.463 4.472-2.463v-1.5c-2.367 0-4.553 1.189-5.757 3.189l1.285.774zm4.472-2.463c1.576 0 3.384.001 5.026-.184l-.168-1.49c-1.543.173-3.263.174-4.858.174v1.5zm5.005-.182c1.855-.157 3.539.609 4.616 2.15l1.23-.859c-1.39-1.988-3.595-2.987-5.972-2.786l.127 1.495zm4.607 2.136l3.529 5.294 1.248-.832-3.53-5.294-1.247.832zm3.623 5.408c.258.259.586.459.93.563.338.101.772.132 1.174-.073l-.68-1.337c.05-.026.043.005-.061-.026a.769.769 0 01-.303-.187l-1.06 1.06zm2.08.502l7.589-3.53-.633-1.36-7.589 3.529.633 1.361zm7.513-3.499c.468-.158.814-.489.985-.917.165-.412.148-.86.019-1.259l-1.427.463c.043.132.026.212.015.239a.066.066 0 01-.014.023c-.005.004-.02.017-.058.03l.48 1.421zm1.015-2.136l-1.585-5.997-1.45.384 1.585 5.996 1.45-.383zm-1.583-5.987c-.461-1.841.154-3.692 1.39-4.934l-1.063-1.058c-1.576 1.584-2.381 3.965-1.781 6.356l1.454-.364zm1.389-4.933c1.229-1.23 2.484-2.484 3.568-3.75l-1.139-.976c-1.04 1.215-2.252 2.427-3.49 3.666l1.06 1.06zm3.59-3.778c1.068-1.371 2.911-2.142 4.759-1.837l.245-1.48c-2.399-.397-4.787.597-6.187 2.396l1.183.921zm4.734-1.841l6.176 1.234.294-1.471-6.176-1.234-.294 1.471zm6.083 1.209c1.026.346 1.92-.369 2.186-1.18l-1.424-.468a.388.388 0 01-.157.207c-.053.032-.09.031-.125.02l-.48 1.42zm2.174-1.143l2.998-7.762-1.399-.54-2.999 7.761 1.4.54zm3.009-7.792a1.835 1.835 0 00-.014-1.271 1.576 1.576 0 00-.996-.916l-.463 1.427a.137.137 0 01.053.027c.005.004.009.01.014.022.011.027.027.105-.015.231l1.421.48zm-.855-2.117l-5.294-3.177-.772 1.286 5.294 3.177.772-1.286zm-5.293-3.177c-1.529-.92-2.463-2.606-2.463-4.472h-1.5c0 2.367 1.189 4.554 3.189 5.757l.774-1.285zm-2.467-4.396c.188-1.854-.001-3.692-.18-5.274l-1.491.168c.18 1.589.349 3.28.179 4.955l1.492.151zm-.178-5.253c-.157-1.855.609-3.538 2.15-4.616l-.86-1.23c-1.988 1.39-2.986 3.595-2.785 5.972l1.495-.126zm2.136-4.606l5.294-3.53-.832-1.248-5.294 3.53.832 1.248zm5.408-3.623a2.26 2.26 0 00.563-.931c.101-.337.132-.771-.074-1.174l-1.336.681c-.026-.05.005-.044-.027.06a.757.757 0 01-.187.303l1.061 1.06zm.501-2.08l-3.529-7.59-1.36.633 3.529 7.589 1.36-.633zm-3.498-7.513a1.584 1.584 0 00-.917-.986 1.85 1.85 0 00-1.259-.018l.463 1.426c.132-.043.212-.026.239-.015.012.005.018.01.022.015.005.004.018.02.031.058l1.421-.48zm-2.149-1.013l-5.631 1.593.408 1.443 5.631-1.592-.408-1.444zm-5.624 1.59c-1.66.454-3.677-.157-4.919-1.393l-1.058 1.063c1.584 1.577 4.143 2.386 6.372 1.778l-.395-1.447zm-4.918-1.391c-1.229-1.23-2.484-2.485-3.75-3.57l-.976 1.14c1.215 1.04 2.427 2.252 3.666 3.49l1.06-1.06zM97.111 50c-1.371-1.067-2.142-2.91-1.836-4.759l-1.48-.245c-.397 2.399.596 4.788 2.395 6.188L97.111 50zm-1.84-4.734l1.233-6.176-1.471-.294-1.234 6.176 1.471.294zm1.208-6.083c.346-1.026-.369-1.92-1.18-2.186l-.468 1.425c.098.032.17.096.207.156.032.053.032.09.02.125l1.421.48zm-1.143-2.173l-7.761-2.999-.541 1.4 7.761 2.998.54-1.4zM87.544 34a1.834 1.834 0 00-1.271.014c-.43.173-.762.523-.916.996l1.427.463a.142.142 0 01.027-.053.057.057 0 01.022-.014c.027-.01.105-.027.231.016l.48-1.422zm-2.126.872l-2.999 5.294 1.306.739 2.998-5.294-1.305-.739zm-2.989 5.277c-.92 1.528-2.606 2.462-4.471 2.462v1.5c2.367 0 4.553-1.189 5.757-3.19l-1.285-.772zm-4.395 2.466c-1.853-.188-3.694.002-5.446.18l.152 1.492c1.778-.18 3.466-.35 5.142-.18l.152-1.492zm-5.433.178c-1.89.16-3.701-.633-4.588-2.107l-1.285.774c1.237 2.055 3.657 3.026 6 2.828l-.127-1.495zm-4.613-2.146l-3.53-5.114-1.234.852 3.53 5.114 1.234-.852zm-3.616-5.219a2.259 2.259 0 00-.931-.562c-.337-.102-.771-.132-1.174.073l.681 1.336c-.05.026-.044-.004.06.027a.76.76 0 01.303.187l1.06-1.06zm-2.08-.5l-7.59 3.528.633 1.36 7.589-3.529-.633-1.36zm-7.513 3.498a1.584 1.584 0 00-.986.917 1.85 1.85 0 00-.018 1.259l1.426-.464c-.042-.131-.026-.211-.015-.238a.058.058 0 01.015-.023.155.155 0 01.058-.03l-.48-1.421zm-1.016 2.136l1.585 5.996 1.45-.383-1.585-5.997-1.45.384zm1.587 6.002c.453 1.66-.157 3.677-1.394 4.919l1.064 1.058c1.576-1.584 2.385-4.143 1.777-6.372l-1.447.395zm-1.192 4.774c-1.936.95-3.258 2.482-4.336 3.918l1.199.9c1.045-1.39 2.19-2.683 3.797-3.47l-.66-1.348zm-3.737 5.118v-1.5 1.5zm10.566 26.468c-1.87-4.07-2.198-8.457-.679-12.667l-1.41-.509c-1.666 4.613-1.292 9.408.726 13.802l1.363-.626zm-.678-12.668c2.36-6.582 8.614-10.973 15.526-10.973v-1.5c-7.548 0-14.364 4.79-16.938 11.966l1.412.507zm15.526-10.973c1.85 0 3.7.334 5.567 1.016l.515-1.409c-2.022-.738-4.046-1.107-6.082-1.107v1.5zm5.57 1.017c4.231 1.52 7.606 4.564 9.462 8.441l1.353-.648c-2.031-4.242-5.715-7.554-10.307-9.204l-.507 1.411zm9.457 8.43c1.87 4.07 2.198 8.457.68 12.667l1.41.509c1.665-4.613 1.291-9.408-.727-13.802l-1.363.626zm.678 12.67c-2.361 6.582-8.614 10.973-15.527 10.973v1.5c7.549 0 14.365-4.791 16.939-11.966L91.54 81.4zM76.014 92.372c-1.85 0-3.7-.335-5.567-1.016l-.514 1.409c2.021.738 4.045 1.107 6.081 1.107v-1.5zm-5.587-1.023c-4.035-1.345-7.416-4.377-9.45-8.447l-1.342.671c2.197 4.395 5.875 7.718 10.318 9.199l.474-1.423zm-6.754-9.571c1.505 3.384 4.32 5.81 7.836 7.105l.519-1.407c-3.184-1.172-5.663-3.337-6.984-6.308l-1.37.61zm7.831 7.104c1.524.572 3.034.75 4.676.75v-1.5c-1.53 0-2.846-.165-4.148-.654l-.528 1.404zm4.676.75c5.791 0 11.012-3.73 12.881-9.148l-1.418-.49c-1.66 4.812-6.31 8.139-11.463 8.139v1.5zM89.056 80.5c1.302-3.535 1.127-7.287-.572-10.495l-1.325.702c1.484 2.803 1.655 6.109.49 9.274l1.407.519zm-.55-10.449c-1.504-3.384-4.319-5.81-7.835-7.105l-.519 1.407c3.184 1.173 5.663 3.337 6.984 6.308l1.37-.61zm-7.83-7.104c-1.525-.572-3.034-.75-4.676-.75v1.5c1.53 0 2.846.166 4.148.655l.527-1.405zM76 62.196c-5.791 0-11.012 3.73-12.881 9.148l1.418.49c1.66-4.811 6.31-8.139 11.463-8.139v-1.5zm-12.87 9.121c-1.313 3.382-1.118 7.13.559 10.49l1.342-.669c-1.495-2.995-1.658-6.304-.503-9.278l-1.398-.543z" fill="#E0E9FA"/></svg>