<svg width="61" height="60" viewBox="0 0 61 60" fill="none" xmlns="http://www.w3.org/2000/svg">
<path fill-rule="evenodd" clip-rule="evenodd" d="M18.6369 15.2399C22.6315 11.2452 28.048 9.00072 33.6976 9.00072L33.6981 9C41.3078 9 48.3395 13.0602 52.1455 19.6491C55.9515 26.2404 55.9515 34.3602 52.1455 40.9515C48.3394 47.5405 41.3078 51.6006 33.6981 51.6006V49.214C38.7184 49.2303 43.5382 47.2488 47.0972 43.7089C50.6562 40.1689 52.6606 35.3605 52.6722 30.3402C52.6839 25.32 50.6981 20.5026 47.1532 16.9483C43.6102 13.3917 38.7977 11.3919 33.7773 11.3873C28.7589 11.3826 23.9416 13.373 20.392 16.9203C16.84 20.468 14.8449 25.2806 14.8449 30.3009V30.9582L21.2285 24.6324L22.8997 26.3035L13.9498 35.2534L5 26.3035L6.66878 24.5719L12.3976 30.3007C12.3976 24.651 14.6421 19.2347 18.6369 15.2399ZM31.9077 33.284V20.5746H34.2943V30.8974H42.41V33.284H31.9077Z" fill="#005EB8"/>
</svg>
