<svg width="30" height="30" viewBox="0 0 30 30" fill="none" xmlns="http://www.w3.org/2000/svg">
<path fill-rule="evenodd" clip-rule="evenodd" d="M21.25 0C20.5596 0 20 0.559644 20 1.25V2.5H10V1.25C10 0.559644 9.44036 0 8.75 0C8.05964 0 7.5 0.559644 7.5 1.25V2.5H3.75C1.67893 2.5 0 4.17893 0 6.25V13.75V26.25C0 28.3211 1.67893 30 3.75 30H26.25C28.3211 30 30 28.3211 30 26.25V13.75V6.25C30 4.17893 28.3211 2.5 26.25 2.5H22.5V1.25C22.5 0.559644 21.9404 0 21.25 0ZM22.5 5V2.5H20V5H10V2.5H7.5V5H3.75C3.05964 5 2.5 5.55964 2.5 6.25V12.5H1.25C0.559644 12.5 0 13.0596 0 13.75C0 14.4404 0.559644 15 1.25 15H2.5V26.25C2.5 26.9404 3.05964 27.5 3.75 27.5H26.25C26.9404 27.5 27.5 26.9404 27.5 26.25V15H28.75C29.4404 15 30 14.4404 30 13.75C30 13.0596 29.4404 12.5 28.75 12.5H27.5V6.25C27.5 5.55964 26.9404 5 26.25 5H22.5ZM22.5 5V8.75C22.5 9.44036 21.9404 10 21.25 10C20.5596 10 20 9.44036 20 8.75V5H22.5ZM27.5 12.5H2.5V15H27.5V12.5ZM7.5 5H10V8.75C10 9.44036 9.44036 10 8.75 10C8.05964 10 7.5 9.44036 7.5 8.75V5Z" fill="#005EB8"/>
</svg>
