<svg width="15" height="15" viewBox="0 0 15 15" fill="none" xmlns="http://www.w3.org/2000/svg">
<path fill-rule="evenodd" clip-rule="evenodd" d="M10.625 0C10.2798 0 10 0.279822 10 0.625V1.25H5V0.625C5 0.279822 4.72018 0 4.375 0C4.02982 0 3.75 0.279822 3.75 0.625V1.25H1.875C0.839466 1.25 0 2.08947 0 3.125V6.875V13.125C0 14.1605 0.839466 15 1.875 15H13.125C14.1605 15 15 14.1605 15 13.125V6.875V3.125C15 2.08947 14.1605 1.25 13.125 1.25H11.25V0.625C11.25 0.279822 10.9702 0 10.625 0ZM11.25 2.5V1.25H10V2.5H5V1.25H3.75V2.5H1.875C1.52982 2.5 1.25 2.77982 1.25 3.125V6.25H0.625C0.279822 6.25 0 6.52982 0 6.875C0 7.22018 0.279822 7.5 0.625 7.5H1.25V13.125C1.25 13.4702 1.52982 13.75 1.875 13.75H13.125C13.4702 13.75 13.75 13.4702 13.75 13.125V7.5H14.375C14.7202 7.5 15 7.22018 15 6.875C15 6.52982 14.7202 6.25 14.375 6.25H13.75V3.125C13.75 2.77982 13.4702 2.5 13.125 2.5H11.25ZM11.25 2.5V4.375C11.25 4.72018 10.9702 5 10.625 5C10.2798 5 10 4.72018 10 4.375V2.5H11.25ZM13.75 6.25H1.25V7.5H13.75V6.25ZM3.75 2.5H5V4.375C5 4.72018 4.72018 5 4.375 5C4.02982 5 3.75 4.72018 3.75 4.375V2.5Z" fill="#898F9D"/>
</svg>
