<svg width="52" height="52" viewBox="0 0 52 52" fill="none" xmlns="http://www.w3.org/2000/svg">
<path fill-rule="evenodd" clip-rule="evenodd" d="M46.7105 8.91239H36.2037V1.99972C36.2037 1.44846 35.7553 1 35.204 1H16.7962C16.2449 1 15.7964 1.44844 15.7964 1.99972V8.91239H5.29192C2.9272 8.91239 1.00219 10.7061 1.00219 12.9133V35.823C1.00219 35.8241 1.00164 35.8258 1.00109 35.8274C1.00055 35.829 1 35.8307 1 35.8318V39.9159C1 42.1209 2.92282 43.9168 5.28973 43.9168H21.149L18.7887 49.0006H17.3581C16.8068 49.0006 16.3583 49.449 16.3583 50.0003C16.3583 50.5516 16.8068 51 17.3581 51L34.6414 50.9978C35.1927 50.9978 35.6411 50.5494 35.6411 49.9981C35.6411 49.4468 35.1927 48.9984 34.6414 48.9984H33.2108L30.8505 43.9146H46.7098C49.0745 43.9146 50.9995 42.1209 50.9995 39.9137V35.8406L50.9997 35.8392L51.0003 35.8377L51.0003 35.8377L51.0012 35.8354C51.0015 35.8343 51.0017 35.8332 51.0017 35.8318V12.9132C51.0017 10.7081 49.0767 8.91222 46.7098 8.91222L46.7105 8.91239ZM31.6431 23.562V21.0027H33.3405C32.7827 21.8383 32.2096 22.7024 31.6431 23.562ZM17.7959 2.99932H34.2045V9.90079C34.2045 9.90516 34.2023 9.90954 34.2023 9.91392C34.2023 9.91511 34.2025 9.9163 34.2027 9.91749L34.2034 9.92048C34.204 9.92266 34.2045 9.92485 34.2045 9.92704V19.003H30.641C30.0898 19.003 29.6413 19.4514 29.6413 20.0027V25.8979L17.7962 25.8957L17.7959 2.99932ZM3.00397 12.913C3.00397 11.8105 4.03208 10.9137 5.29427 10.9137H15.7966V26.8978C15.7966 27.4491 16.245 27.8975 16.7963 27.8975L30.6412 27.8953C30.7243 27.8953 30.8053 27.8844 30.8862 27.8647C30.911 27.8589 30.9339 27.8492 30.9567 27.8394C30.9681 27.8346 30.9795 27.8297 30.9912 27.8253C31.0016 27.8215 31.0121 27.8178 31.0226 27.8141L31.0227 27.8141C31.0543 27.8031 31.0858 27.792 31.1137 27.7772C31.1338 27.7665 31.1522 27.7526 31.171 27.7383L31.171 27.7383L31.171 27.7383C31.183 27.7292 31.195 27.7201 31.2078 27.7116L31.2255 27.7002L31.2255 27.7002C31.2567 27.6803 31.2874 27.6608 31.315 27.635C31.3319 27.6194 31.3458 27.6022 31.3597 27.5848C31.3692 27.5731 31.3787 27.5612 31.3893 27.5497C31.3989 27.5387 31.4089 27.5279 31.4191 27.5171L31.4191 27.517C31.4391 27.4956 31.4594 27.4738 31.4768 27.4491C32.8812 25.3403 34.664 22.6541 36.0203 20.5823C36.0236 20.578 36.0269 20.573 36.0302 20.5681L36.0302 20.5681C36.0335 20.5632 36.0367 20.5583 36.04 20.5539V20.5517L36.0403 20.5503L36.0409 20.5491C36.0415 20.5481 36.0422 20.5473 36.0422 20.5473C36.0947 20.4686 36.1319 20.3833 36.1603 20.2958C36.1653 20.2809 36.1674 20.2652 36.1696 20.2497V20.2497L36.1707 20.2413C36.172 20.2323 36.1735 20.2235 36.1756 20.2148C36.1909 20.1492 36.2041 20.0858 36.2041 20.018C36.2041 20.0163 36.2042 20.0147 36.2044 20.0131L36.2052 20.0081L36.2053 20.0075C36.2058 20.0044 36.2062 20.0014 36.2062 19.9983V10.9094H46.713C47.9752 10.9094 49.0033 11.8063 49.0033 12.9088V34.8279L3.00415 34.8322L3.00397 12.913ZM31.0063 48.9985H20.9941L23.3544 43.9147H28.6437L31.0063 48.9985ZM48.9987 39.9158C48.9987 41.0183 47.9727 41.9152 46.7105 41.9152H22.7531H22.7509H5.29001C4.02782 41.9152 3.0019 41.0183 3.0019 39.9158V36.8336H49.0011L48.9987 39.9158ZM44.1227 28.8955L45.7633 27.9986C46.1112 27.8083 46.3146 27.4299 46.2796 27.0339C46.2446 26.638 45.9799 26.3011 45.6059 26.1742L39.0236 23.9407C38.6627 23.8182 38.2645 23.9101 37.9955 24.1814C37.7264 24.4504 37.6324 24.8485 37.7549 25.2095L39.9883 31.7917C40.1152 32.168 40.4543 32.4327 40.848 32.4655C40.8765 32.4677 40.9071 32.4698 40.9355 32.4698C41.2987 32.4698 41.6355 32.273 41.8127 31.9492L42.7096 30.3086L45.374 32.973C45.5687 33.1676 45.8246 33.2661 46.0806 33.2661C46.3365 33.2661 46.5924 33.1676 46.7871 32.973C47.1787 32.5814 47.1787 31.9492 46.7871 31.5598L44.1227 28.8955ZM40.299 26.4849L42.8037 27.3358L41.9921 27.7799C41.8237 27.8717 41.6859 28.0096 41.594 28.178L41.1499 28.9895L40.299 26.4849ZM27.205 40.0821H24.7987C24.2452 40.0821 23.7968 39.6337 23.799 39.0824C23.799 38.5311 24.2475 38.0827 24.7987 38.0827H27.205C27.7563 38.0827 28.2047 38.5311 28.2047 39.0824C28.2047 39.6337 27.7562 40.0821 27.205 40.0821ZM22.473 10.2777H29.5279C30.0792 10.2777 30.5276 9.82923 30.5276 9.27796C30.5276 8.72668 30.0792 8.27824 29.5279 8.27824H22.473C21.9218 8.27824 21.4733 8.72668 21.4733 9.27796C21.4733 9.8314 21.9196 10.2777 22.473 10.2777ZM29.5279 6.24789H22.473C21.9196 6.24789 21.4733 5.79943 21.4733 5.24818C21.4733 4.6969 21.9218 4.24846 22.473 4.24846H29.5279C30.0792 4.24846 30.5276 4.69693 30.5276 5.24818C30.5276 5.79946 30.0792 6.24789 29.5279 6.24789ZM22.473 14.3091H29.5279C30.0792 14.3091 30.5276 13.8607 30.5276 13.3094C30.5276 12.7581 30.0792 12.3097 29.5279 12.3097H22.473C21.9218 12.3097 21.4733 12.7581 21.4733 13.3094C21.4733 13.8607 21.9196 14.3091 22.473 14.3091ZM29.5278 16.339C30.0791 16.339 30.5275 16.7875 30.5275 17.3387C30.5275 17.8922 30.0813 18.3385 29.5278 18.3385H22.4729C21.9216 18.3385 21.4732 17.89 21.4732 17.3387C21.4732 16.7875 21.9216 16.339 22.4729 16.339H29.5278Z" fill="#005EB8"/>
<path d="M36.2037 8.91239H35.9537V9.16239H36.2037V8.91239ZM46.7105 8.91239V9.16239L46.7669 8.66883L46.7105 8.91239ZM15.7964 8.91239V9.16239H16.0464V8.91239H15.7964ZM1.00109 35.8274L0.763926 35.7483L0.763926 35.7483L1.00109 35.8274ZM21.149 43.9168L21.3758 44.0221L21.5407 43.6668H21.149V43.9168ZM18.7887 49.0006V49.2506H18.9483L19.0155 49.1058L18.7887 49.0006ZM17.3581 51L17.3581 51.25L17.3581 51.25L17.3581 51ZM34.6414 50.9978L34.6414 50.7478L34.6414 50.7478L34.6414 50.9978ZM33.2108 48.9984L32.984 49.1037L33.0512 49.2484H33.2108V48.9984ZM30.8505 43.9146V43.6646H30.4588L30.6237 44.0199L30.8505 43.9146ZM50.9995 35.8406L50.7531 35.798L50.7495 35.8191V35.8406H50.9995ZM50.9997 35.8392L50.7663 35.7497L50.7575 35.7725L50.7534 35.7966L50.9997 35.8392ZM51.0003 35.8377L51.2339 35.9274L51.2375 35.9168L51.0003 35.8377ZM51.0003 35.8377L50.7656 35.7512L50.7631 35.7586L51.0003 35.8377ZM51.0012 35.8354L51.2357 35.9218L51.2388 35.9136L51.2412 35.9051L51.0012 35.8354ZM46.7098 8.91222V8.66222L46.6534 9.15577L46.7098 8.91222ZM31.6431 21.0027V20.7527H31.3931V21.0027H31.6431ZM31.6431 23.562H31.3931V24.3957L31.8518 23.6996L31.6431 23.562ZM33.3405 21.0027L33.5485 21.1415L33.808 20.7527H33.3405V21.0027ZM34.2045 2.99932H34.4545V2.74932H34.2045V2.99932ZM17.7959 2.99932V2.74932H17.5459L17.5459 2.99932L17.7959 2.99932ZM34.2027 9.91749L33.9574 9.96624L33.9593 9.97433L34.2027 9.91749ZM34.2034 9.92048L33.9599 9.97733L33.9608 9.98099L34.2034 9.92048ZM34.2045 19.003V19.253H34.4545V19.003H34.2045ZM29.6413 25.8979L29.6413 26.1479L29.8913 26.1479V25.8979H29.6413ZM17.7962 25.8957L17.5462 25.8957L17.5462 26.1456L17.7961 26.1457L17.7962 25.8957ZM3.00397 12.913L2.75397 12.913L2.75397 12.913L3.00397 12.913ZM15.7966 10.9137H16.0466V10.6637H15.7966V10.9137ZM16.7963 27.8975L16.7963 28.1475L16.7963 28.1475L16.7963 27.8975ZM30.6412 27.8953L30.6412 27.6453L30.6412 27.6453L30.6412 27.8953ZM30.8862 27.8647L30.829 27.6214L30.8271 27.6218L30.8862 27.8647ZM30.9567 27.8394L30.8588 27.6094L30.8588 27.6094L30.9567 27.8394ZM30.9912 27.8253L30.9048 27.5907L30.9034 27.5913L30.9912 27.8253ZM31.0226 27.8141L31.1053 28.0501L31.1081 28.0491L31.0226 27.8141ZM31.0227 27.8141L30.9399 27.5782L30.9372 27.5792L31.0227 27.8141ZM31.1137 27.7772L31.2307 27.9982L31.2314 27.9978L31.1137 27.7772ZM31.171 27.7383L31.0256 27.5348L31.0199 27.5391L31.171 27.7383ZM31.171 27.7383L31.3164 27.9418L31.322 27.9375L31.171 27.7383ZM31.2078 27.7116L31.0729 27.5011L31.0691 27.5036L31.2078 27.7116ZM31.2255 27.7002L31.3604 27.9107L31.3642 27.9082L31.2255 27.7002ZM31.2255 27.7002L31.0911 27.4894L31.0869 27.4922L31.2255 27.7002ZM31.315 27.635L31.1454 27.4513L31.1444 27.4523L31.315 27.635ZM31.3597 27.5848L31.5545 27.7416L31.5545 27.7416L31.3597 27.5848ZM31.3893 27.5497L31.5731 27.7194L31.5783 27.7135L31.3893 27.5497ZM31.4191 27.5171L31.2422 27.3402L31.2362 27.3466L31.4191 27.5171ZM31.4191 27.517L31.596 27.6939L31.6019 27.6875L31.4191 27.517ZM31.4768 27.4491L31.6812 27.5933L31.6849 27.5877L31.4768 27.4491ZM36.0203 20.5823L35.8203 20.4323L35.8155 20.4387L35.8111 20.4454L36.0203 20.5823ZM36.0302 20.5681L36.2381 20.7069L36.2382 20.7068L36.0302 20.5681ZM36.0302 20.5681L36.2382 20.7067L36.0302 20.5681ZM36.04 20.5539L36.24 20.7039L36.29 20.6372V20.5539H36.04ZM36.04 20.5517L35.7947 20.5036L35.79 20.5274V20.5517H36.04ZM36.0403 20.5503L35.8154 20.4411L35.8012 20.4703L35.795 20.5022L36.0403 20.5503ZM36.0409 20.5491L35.8262 20.4209L35.8207 20.4302L35.8159 20.4399L36.0409 20.5491ZM36.0422 20.5473L36.219 20.7241L36.2365 20.7066L36.2502 20.686L36.0422 20.5473ZM36.1603 20.2958L35.9231 20.2167L35.9226 20.2185L36.1603 20.2958ZM36.1696 20.2497L36.4172 20.2837L36.4196 20.2668V20.2497H36.1696ZM36.1696 20.2497L35.922 20.2151L35.9196 20.2323V20.2497H36.1696ZM36.1707 20.2413L35.9233 20.2058L35.9232 20.2066L36.1707 20.2413ZM36.1756 20.2148L36.4182 20.2755L36.4191 20.2716L36.1756 20.2148ZM36.2044 20.0131L35.9572 19.9755L35.9563 19.9821L36.2044 20.0131ZM36.2052 20.0081L35.9586 19.9663L35.958 19.9705L36.2052 20.0081ZM36.2053 20.0075L36.4517 20.0494L36.4519 20.0485L36.2053 20.0075ZM36.2062 10.9094V10.6594H35.9562V10.9094H36.2062ZM49.0033 34.8279L49.0033 35.0779L49.2533 35.0778V34.8279H49.0033ZM3.00415 34.8322L2.75415 34.8322L2.75415 35.0823L3.00418 35.0822L3.00415 34.8322ZM20.9941 48.9985L20.7673 48.8932L20.6024 49.2485H20.9941V48.9985ZM31.0063 48.9985V49.2485H31.3982L31.233 48.8931L31.0063 48.9985ZM23.3544 43.9147V43.6647H23.1948L23.1276 43.8094L23.3544 43.9147ZM28.6437 43.9147L28.8705 43.8094L28.8032 43.6647H28.6437V43.9147ZM48.9987 39.9158L48.7487 39.9156V39.9158H48.9987ZM3.0019 36.8336V36.5836H2.7519V36.8336H3.0019ZM49.0011 36.8336L49.2511 36.8338L49.2513 36.5836H49.0011V36.8336ZM45.7633 27.9986L45.8833 28.218L45.8833 28.2179L45.7633 27.9986ZM44.1227 28.8955L44.0028 28.6762L43.7099 28.8363L43.9459 29.0723L44.1227 28.8955ZM46.2796 27.0339L46.5286 27.0119L46.5286 27.0119L46.2796 27.0339ZM45.6059 26.1742L45.5255 26.4109L45.5255 26.4109L45.6059 26.1742ZM39.0236 23.9407L38.9432 24.1775L38.9433 24.1775L39.0236 23.9407ZM37.9955 24.1814L38.1723 24.3581L38.173 24.3574L37.9955 24.1814ZM37.7549 25.2095L37.9916 25.1291L37.9916 25.1291L37.7549 25.2095ZM39.9883 31.7917L40.2252 31.7118L40.2251 31.7114L39.9883 31.7917ZM40.848 32.4655L40.8273 32.7146L40.8288 32.7147L40.848 32.4655ZM41.8127 31.9492L42.032 32.0692L42.0321 32.0691L41.8127 31.9492ZM42.7096 30.3086L42.8864 30.1318L42.6504 29.8958L42.4903 30.1887L42.7096 30.3086ZM45.374 32.973L45.1972 33.1497L45.1972 33.1497L45.374 32.973ZM46.7871 32.973L46.6103 32.7962L46.6103 32.7962L46.7871 32.973ZM46.7871 31.5598L46.6103 31.7366L46.6108 31.7371L46.7871 31.5598ZM42.8037 27.3358L42.9237 27.5551L43.4227 27.2821L42.8841 27.0991L42.8037 27.3358ZM40.299 26.4849L40.3794 26.2482L39.8991 26.085L40.0622 26.5653L40.299 26.4849ZM41.9921 27.7799L42.1118 27.9993L42.1121 27.9992L41.9921 27.7799ZM41.594 28.178L41.8133 28.298L41.8135 28.2977L41.594 28.178ZM41.1499 28.9895L40.9132 29.07L41.0962 29.6085L41.3692 29.1095L41.1499 28.9895ZM23.799 39.0824L24.049 39.0834V39.0824H23.799ZM36.2037 9.16239H46.7105V8.66239H36.2037V9.16239ZM35.9537 1.99972V8.91239H36.4537V1.99972H35.9537ZM35.204 1.25C35.6172 1.25 35.9537 1.58653 35.9537 1.99972H36.4537C36.4537 1.31039 35.8934 0.75 35.204 0.75V1.25ZM16.7962 1.25H35.204V0.75H16.7962V1.25ZM16.0464 1.99972C16.0464 1.58651 16.383 1.25 16.7962 1.25V0.75C16.1068 0.75 15.5464 1.31036 15.5464 1.99972H16.0464ZM16.0464 8.91239V1.99972H15.5464V8.91239H16.0464ZM5.29192 9.16239H15.7964V8.66239H5.29192V9.16239ZM1.25219 12.9133C1.25219 10.8604 3.0485 9.16239 5.29192 9.16239V8.66239C2.80589 8.66239 0.752187 10.5519 0.752187 12.9133H1.25219ZM1.25219 35.823V12.9133H0.752187V35.823H1.25219ZM1.23826 35.9065C1.2383 35.9063 1.23896 35.9044 1.23966 35.9022C1.24038 35.8999 1.24165 35.8959 1.24304 35.8908C1.24451 35.8854 1.25219 35.8582 1.25219 35.823H0.752187C0.752187 35.8037 0.754476 35.7884 0.756022 35.7798C0.757673 35.7706 0.759524 35.7634 0.760653 35.7592C0.762625 35.752 0.764735 35.7459 0.763926 35.7483L1.23826 35.9065ZM1.25 35.8318C1.25 35.8511 1.24771 35.8664 1.24616 35.875C1.24451 35.8842 1.24266 35.8914 1.24153 35.8956C1.23956 35.9028 1.23745 35.9089 1.23826 35.9065L0.763926 35.7483C0.763883 35.7485 0.763229 35.7504 0.762529 35.7526C0.761807 35.7549 0.760533 35.7589 0.759149 35.764C0.757678 35.7694 0.75 35.7966 0.75 35.8318H1.25ZM1.25 39.9159V35.8318H0.75V39.9159H1.25ZM5.28973 43.6668C3.04431 43.6668 1.25 41.9668 1.25 39.9159H0.75C0.75 42.275 2.80134 44.1668 5.28973 44.1668V43.6668ZM21.149 43.6668H5.28973V44.1668H21.149V43.6668ZM19.0155 49.1058L21.3758 44.0221L20.9222 43.8115L18.5619 48.8953L19.0155 49.1058ZM17.3581 49.2506H18.7887V48.7506H17.3581V49.2506ZM16.6083 50.0003C16.6083 49.5871 16.9449 49.2506 17.3581 49.2506V48.7506C16.6687 48.7506 16.1083 49.3109 16.1083 50.0003H16.6083ZM17.3581 50.75C16.9449 50.75 16.6083 50.4135 16.6083 50.0003H16.1083C16.1083 50.6896 16.6687 51.25 17.3581 51.25V50.75ZM34.6414 50.7478L17.358 50.75L17.3581 51.25L34.6415 51.2478L34.6414 50.7478ZM35.3911 49.9981C35.3911 50.4113 35.0546 50.7478 34.6414 50.7478V51.2478C35.3307 51.2478 35.8911 50.6874 35.8911 49.9981H35.3911ZM34.6414 49.2484C35.0546 49.2484 35.3911 49.5849 35.3911 49.9981H35.8911C35.8911 49.3087 35.3308 48.7484 34.6414 48.7484V49.2484ZM33.2108 49.2484H34.6414V48.7484H33.2108V49.2484ZM30.6237 44.0199L32.984 49.1037L33.4375 48.8931L31.0772 43.8093L30.6237 44.0199ZM46.7098 43.6646H30.8505V44.1646H46.7098V43.6646ZM50.7495 39.9137C50.7495 41.9666 48.9532 43.6646 46.7098 43.6646V44.1646C49.1958 44.1646 51.2495 42.2751 51.2495 39.9137H50.7495ZM50.7495 35.8406V39.9137H51.2495V35.8406H50.7495ZM50.7534 35.7966L50.7531 35.798L51.2458 35.8831L51.2461 35.8818L50.7534 35.7966ZM50.7669 35.7482L50.7663 35.7497L51.2331 35.9288L51.2337 35.9273L50.7669 35.7482ZM50.7631 35.7586L50.7631 35.7587L51.2375 35.9168L51.2375 35.9167L50.7631 35.7586ZM50.7666 35.7489L50.7657 35.7512L51.2349 35.9242L51.2357 35.9218L50.7666 35.7489ZM50.7517 35.8318C50.7517 35.8055 50.756 35.783 50.7611 35.7656L51.2412 35.9051C51.2469 35.8857 51.2517 35.8608 51.2517 35.8318H50.7517ZM50.7517 12.9132V35.8318H51.2517V12.9132H50.7517ZM46.7098 9.16222C48.9553 9.16222 50.7517 10.8624 50.7517 12.9132H51.2517C51.2517 10.5539 49.198 8.66222 46.7098 8.66222V9.16222ZM46.7669 8.66883L46.7662 8.66866L46.6534 9.15577L46.6541 9.15594L46.7669 8.66883ZM31.3931 21.0027V23.562H31.8931V21.0027H31.3931ZM33.3405 20.7527H31.6431V21.2527H33.3405V20.7527ZM31.8518 23.6996C32.4181 22.8404 32.9909 21.9767 33.5485 21.1415L33.1326 20.8639C32.5745 21.6999 32.0011 22.5644 31.4343 23.4245L31.8518 23.6996ZM34.2045 2.74932H17.7959V3.24932H34.2045V2.74932ZM34.4545 9.90079V2.99932H33.9545V9.90079H34.4545ZM34.4523 9.91392C34.4523 9.93322 34.4499 9.94838 34.4484 9.95665C34.4476 9.96093 34.4468 9.96425 34.4464 9.96599C34.4461 9.96754 34.4457 9.96879 34.446 9.96794C34.446 9.9677 34.4466 9.96537 34.4472 9.96273C34.4479 9.9599 34.4489 9.95549 34.4499 9.95012C34.4518 9.93966 34.4545 9.9223 34.4545 9.90079H33.9545C33.9545 9.88147 33.9569 9.86629 33.9584 9.85802C33.9592 9.85375 33.96 9.85043 33.9604 9.8487C33.9608 9.84715 33.9611 9.84591 33.9609 9.84676C33.9608 9.84701 33.9602 9.84935 33.9596 9.852C33.9589 9.85483 33.9579 9.85924 33.9569 9.86461C33.955 9.87508 33.9523 9.89243 33.9523 9.91392H34.4523ZM34.4479 9.86876C34.4496 9.87702 34.4523 9.89317 34.4523 9.91392H33.9523C33.9523 9.93705 33.9554 9.95558 33.9575 9.96621L34.4479 9.86876ZM34.4469 9.86363L34.4462 9.86064L33.9593 9.97433L33.96 9.97732L34.4469 9.86363ZM34.4545 9.92704C34.4545 9.90556 34.4519 9.88823 34.4499 9.87778C34.4489 9.87242 34.4479 9.86802 34.4472 9.86519C34.4466 9.86255 34.446 9.86021 34.446 9.85997L33.9608 9.98099C33.9614 9.98336 33.9598 9.9772 33.9584 9.96973C33.9569 9.96147 33.9545 9.94633 33.9545 9.92704H34.4545ZM34.4545 19.003V9.92704H33.9545V19.003H34.4545ZM30.641 19.253H34.2045V18.753H30.641V19.253ZM29.8913 20.0027C29.8913 19.5895 30.2279 19.253 30.641 19.253V18.753C29.9517 18.753 29.3913 19.3134 29.3913 20.0027H29.8913ZM29.8913 25.8979V20.0027H29.3913V25.8979H29.8913ZM17.7961 26.1457L29.6413 26.1479L29.6414 25.6479L17.7962 25.6457L17.7961 26.1457ZM17.5459 2.99932L17.5462 25.8957L18.0462 25.8957L18.0459 2.99932L17.5459 2.99932ZM5.29427 10.6637C3.92704 10.6637 2.75397 11.6416 2.75397 12.913H3.25397C3.25397 11.9794 4.13711 11.1637 5.29427 11.1637V10.6637ZM15.7966 10.6637H5.29427V11.1637H15.7966V10.6637ZM16.0466 26.8978V10.9137H15.5466V26.8978H16.0466ZM16.7963 27.6475C16.3831 27.6475 16.0466 27.311 16.0466 26.8978H15.5466C15.5466 27.5871 16.1069 28.1475 16.7963 28.1475V27.6475ZM30.6412 27.6453L16.7962 27.6475L16.7963 28.1475L30.6412 28.1453L30.6412 27.6453ZM30.8271 27.6218C30.763 27.6374 30.702 27.6453 30.6412 27.6453V28.1453C30.7467 28.1453 30.8475 28.1314 30.9453 28.1076L30.8271 27.6218ZM30.8588 27.6094C30.8466 27.6146 30.8401 27.6173 30.8344 27.6195C30.8293 27.6214 30.828 27.6216 30.829 27.6214L30.9435 28.1081C30.9925 28.0965 31.0347 28.0779 31.0546 28.0695L30.8588 27.6094ZM30.9034 27.5913C30.8858 27.5979 30.8694 27.6049 30.8588 27.6094L31.0546 28.0695C31.0668 28.0643 31.0733 28.0616 31.079 28.0594L30.9034 27.5913ZM30.9399 27.5782C30.9297 27.5818 30.9173 27.5861 30.9048 27.5907L31.0776 28.0599C31.0858 28.0569 31.0945 28.0539 31.1053 28.0501L30.9399 27.5782ZM30.9372 27.5792L30.9372 27.5792L31.1081 28.0491L31.1081 28.0491L30.9372 27.5792ZM30.9967 27.5563C30.9884 27.5607 30.9753 27.5658 30.9399 27.5782L31.1054 28.05C31.1332 28.0403 31.1832 28.0233 31.2307 27.9982L30.9967 27.5563ZM31.0199 27.5391C31.0099 27.5467 31.0045 27.5508 30.9997 27.5541C30.9953 27.5572 30.9945 27.5575 30.9961 27.5566L31.2314 27.9978C31.272 27.9762 31.3061 27.9496 31.322 27.9376L31.0199 27.5391ZM31.0257 27.5349L31.0256 27.5349L31.3163 27.9418L31.3163 27.9417L31.0257 27.5349ZM31.0257 27.5348L31.0257 27.5349L31.3163 27.9417L31.3163 27.9417L31.0257 27.5348ZM31.0691 27.5036C31.049 27.517 31.031 27.5307 31.02 27.539L31.322 27.9375C31.3349 27.9278 31.341 27.9232 31.3465 27.9196L31.0691 27.5036ZM31.0907 27.4897L31.0729 27.5011L31.3426 27.9221L31.3604 27.9107L31.0907 27.4897ZM31.0869 27.4922L31.0869 27.4922L31.3642 27.9082L31.3642 27.9082L31.0869 27.4922ZM31.1444 27.4523C31.1363 27.4598 31.1251 27.4677 31.0911 27.4894L31.36 27.911C31.3883 27.8929 31.4385 27.8617 31.4855 27.8178L31.1444 27.4523ZM31.165 27.4281C31.1575 27.4374 31.1535 27.4423 31.1498 27.4465C31.1465 27.4503 31.1453 27.4514 31.1454 27.4513L31.4845 27.8187C31.5172 27.7886 31.5421 27.7569 31.5545 27.7416L31.165 27.4281ZM31.2056 27.3802C31.1884 27.3989 31.1737 27.4173 31.165 27.4281L31.5545 27.7416C31.5647 27.7288 31.5691 27.7236 31.573 27.7193L31.2056 27.3802ZM31.2362 27.3466C31.2266 27.3569 31.2134 27.3709 31.2004 27.386L31.5783 27.7135C31.5843 27.7064 31.5912 27.699 31.6019 27.6876L31.2362 27.3466ZM31.2423 27.3403L31.2423 27.3403L31.5958 27.6938L31.5958 27.6938L31.2423 27.3403ZM31.2726 27.3049C31.2665 27.3135 31.258 27.3232 31.2362 27.3466L31.6019 27.6875C31.6202 27.668 31.6523 27.6341 31.6811 27.5932L31.2726 27.3049ZM35.8111 20.4454C34.4554 22.5163 32.6731 25.2019 31.2688 27.3105L31.6849 27.5877C33.0894 25.4788 34.8726 22.7919 36.2295 20.7193L35.8111 20.4454ZM35.8222 20.4294C35.8204 20.4321 35.8197 20.4332 35.8191 20.434C35.8186 20.4347 35.8191 20.4339 35.8203 20.4323L36.2203 20.7324C36.2285 20.7214 36.2357 20.7105 36.2381 20.7069L35.8222 20.4294ZM35.8222 20.4294L35.8221 20.4294L36.2382 20.7068L36.2382 20.7067L35.8222 20.4294ZM35.84 20.4039C35.8318 20.4149 35.8246 20.4258 35.8222 20.4294L36.2382 20.7067C36.24 20.704 36.2407 20.703 36.2413 20.7022C36.2418 20.7014 36.2412 20.7022 36.24 20.7039L35.84 20.4039ZM35.79 20.5517V20.5539H36.29V20.5517H35.79ZM35.795 20.5022L35.7947 20.5036L36.2853 20.5998L36.2856 20.5984L35.795 20.5022ZM35.8159 20.4399L35.8154 20.4411L36.2652 20.6594L36.2658 20.6582L35.8159 20.4399ZM36.0422 20.5473C35.8654 20.3706 35.8654 20.3706 35.8654 20.3706C35.8654 20.3706 35.8653 20.3706 35.8653 20.3707C35.8653 20.3707 35.8652 20.3707 35.8652 20.3708C35.8651 20.3708 35.8651 20.3709 35.865 20.371C35.8649 20.3711 35.8647 20.3712 35.8646 20.3714C35.8643 20.3716 35.8641 20.3719 35.8638 20.3722C35.8632 20.3728 35.8626 20.3734 35.8621 20.374C35.8609 20.3752 35.8596 20.3765 35.8583 20.3779C35.8557 20.3807 35.8528 20.3841 35.8496 20.3879C35.8437 20.395 35.835 20.4062 35.8262 20.4209L36.2555 20.6773C36.2473 20.691 36.2393 20.7012 36.2339 20.7078C36.231 20.7113 36.2282 20.7144 36.2258 20.717C36.2246 20.7183 36.2234 20.7196 36.2223 20.7208C36.2217 20.7214 36.2211 20.7219 36.2206 20.7225C36.2203 20.7228 36.22 20.723 36.2198 20.7233C36.2196 20.7234 36.2195 20.7236 36.2194 20.7237C36.2193 20.7238 36.2192 20.7238 36.2192 20.7239C36.2191 20.7239 36.2191 20.724 36.2191 20.724C36.219 20.724 36.219 20.7241 36.219 20.7241C36.219 20.7241 36.219 20.7241 36.0422 20.5473ZM35.9226 20.2185C35.899 20.2908 35.8707 20.3539 35.8342 20.4087L36.2502 20.686C36.3187 20.5833 36.3647 20.4757 36.3981 20.373L35.9226 20.2185ZM35.9219 20.2157C35.9213 20.2198 35.921 20.2223 35.9207 20.2245C35.9203 20.2265 35.9202 20.2274 35.9202 20.2275C35.9201 20.228 35.9208 20.2236 35.9231 20.2167L36.3975 20.3748C36.411 20.3342 36.4156 20.2953 36.4172 20.2837L35.9219 20.2157ZM35.9196 20.2497V20.2497H36.4196V20.2497H35.9196ZM35.9232 20.2066L35.922 20.2151L36.4172 20.2843L36.4183 20.2759L35.9232 20.2066ZM35.9331 20.1542C35.9278 20.1755 35.9249 20.1945 35.9233 20.2058L36.4182 20.2767C36.4186 20.2737 36.4189 20.2725 36.4189 20.2721C36.419 20.2718 36.4188 20.2731 36.4182 20.2755L35.9331 20.1542ZM35.9541 20.018C35.9541 20.0548 35.9471 20.094 35.9322 20.158L36.4191 20.2716C36.4348 20.2044 36.4541 20.1168 36.4541 20.018H35.9541ZM35.9563 19.9821C35.9553 19.9903 35.9541 20.0028 35.9541 20.018H36.4541C36.4541 20.0298 36.4531 20.0391 36.4525 20.0441L35.9563 19.9821ZM35.958 19.9705L35.9572 19.9755L36.4516 20.0507L36.4523 20.0457L35.958 19.9705ZM35.9588 19.9657L35.9587 19.9663L36.4516 20.05L36.4517 20.0494L35.9588 19.9657ZM35.9562 19.9983C35.9562 19.987 35.9571 19.9782 35.9577 19.9732C35.9583 19.9686 35.9589 19.9652 35.9586 19.9666L36.4519 20.0485C36.4522 20.0467 36.4562 20.0246 36.4562 19.9983H35.9562ZM35.9562 10.9094V19.9983H36.4562V10.9094H35.9562ZM46.713 10.6594H36.2062V11.1594H46.713V10.6594ZM49.2533 12.9088C49.2533 11.6374 48.0802 10.6594 46.713 10.6594V11.1594C47.8702 11.1594 48.7533 11.9753 48.7533 12.9088H49.2533ZM49.2533 34.8279V12.9088H48.7533V34.8279H49.2533ZM3.00418 35.0822L49.0033 35.0779L49.0033 34.5779L3.00413 34.5822L3.00418 35.0822ZM2.75397 12.913L2.75415 34.8322L3.25415 34.8322L3.25397 12.913L2.75397 12.913ZM20.9941 49.2485H31.0063V48.7485H20.9941V49.2485ZM23.1276 43.8094L20.7673 48.8932L21.2208 49.1038L23.5811 44.02L23.1276 43.8094ZM28.6437 43.6647H23.3544V44.1647H28.6437V43.6647ZM31.233 48.8931L28.8705 43.8094L28.417 44.0201L30.7796 49.1038L31.233 48.8931ZM46.7105 42.1652C48.0781 42.1652 49.2487 41.187 49.2487 39.9158H48.7487C48.7487 40.8497 47.8674 41.6652 46.7105 41.6652V42.1652ZM22.7531 42.1652H46.7105V41.6652H22.7531V42.1652ZM22.7509 42.1652H22.7531V41.6652H22.7509V42.1652ZM5.29001 42.1652H22.7509V41.6652H5.29001V42.1652ZM2.7519 39.9158C2.7519 41.1869 3.92245 42.1652 5.29001 42.1652V41.6652C4.13319 41.6652 3.2519 40.8496 3.2519 39.9158H2.7519ZM2.7519 36.8336V39.9158H3.2519V36.8336H2.7519ZM49.0011 36.5836H3.0019V37.0836H49.0011V36.5836ZM49.2487 39.916L49.2511 36.8338L48.7511 36.8334L48.7487 39.9156L49.2487 39.916ZM45.6434 27.7793L44.0028 28.6762L44.2426 29.1149L45.8833 28.218L45.6434 27.7793ZM46.0306 27.0559C46.0568 27.3526 45.9044 27.6365 45.6433 27.7793L45.8833 28.2179C46.318 27.9801 46.5724 27.5072 46.5286 27.0119L46.0306 27.0559ZM45.5255 26.4109C45.8054 26.5059 46.0043 26.7583 46.0306 27.0559L46.5286 27.0119C46.4849 26.5176 46.1544 26.0963 45.6862 25.9374L45.5255 26.4109ZM38.9433 24.1775L45.5255 26.4109L45.6862 25.9374L39.1039 23.704L38.9433 24.1775ZM38.173 24.3574C38.3741 24.1546 38.672 24.0854 38.9432 24.1775L39.1039 23.704C38.6533 23.551 38.1549 23.6656 37.818 24.0053L38.173 24.3574ZM37.9916 25.1291C37.8999 24.8588 37.9701 24.5603 38.1723 24.3581L37.8187 24.0046C37.4827 24.3406 37.3649 24.8382 37.5181 25.2898L37.9916 25.1291ZM40.2251 31.7114L37.9916 25.1291L37.5181 25.2898L39.7516 31.8721L40.2251 31.7114ZM40.8688 32.2163C40.5743 32.1918 40.3202 31.9936 40.2252 31.7118L39.7514 31.8716C39.9102 32.3424 40.3342 32.6735 40.8273 32.7146L40.8688 32.2163ZM40.9355 32.2198C40.9179 32.2198 40.8962 32.2184 40.8672 32.2162L40.8288 32.7147C40.8567 32.7169 40.8963 32.7198 40.9355 32.7198V32.2198ZM41.5934 31.8292C41.4603 32.0724 41.2078 32.2198 40.9355 32.2198V32.7198C41.3895 32.7198 41.8107 32.4736 42.032 32.0692L41.5934 31.8292ZM42.4903 30.1887L41.5934 31.8293L42.0321 32.0691L42.929 30.4285L42.4903 30.1887ZM45.5508 32.7962L42.8864 30.1318L42.5328 30.4853L45.1972 33.1497L45.5508 32.7962ZM46.0806 33.0161C45.8886 33.0161 45.697 32.9424 45.5508 32.7962L45.1972 33.1497C45.4404 33.3929 45.7606 33.5161 46.0806 33.5161V33.0161ZM46.6103 32.7962C46.4641 32.9424 46.2725 33.0161 46.0806 33.0161V33.5161C46.4005 33.5161 46.7207 33.3929 46.9639 33.1497L46.6103 32.7962ZM46.6108 31.7371C46.9038 32.0285 46.9045 32.502 46.6103 32.7962L46.9639 33.1497C47.4528 32.6608 47.4535 31.87 46.9634 31.3826L46.6108 31.7371ZM43.9459 29.0723L46.6103 31.7366L46.9639 31.3831L44.2995 28.7187L43.9459 29.0723ZM42.8841 27.0991L40.3794 26.2482L40.2185 26.7216L42.7233 27.5725L42.8841 27.0991ZM42.1121 27.9992L42.9237 27.5551L42.6837 27.1165L41.8721 27.5605L42.1121 27.9992ZM41.8135 28.2977C41.8824 28.1714 41.9855 28.0682 42.1118 27.9993L41.8724 27.5604C41.6618 27.6752 41.4894 27.8477 41.3745 28.0583L41.8135 28.2977ZM41.3692 29.1095L41.8133 28.298L41.3747 28.058L40.9306 28.8695L41.3692 29.1095ZM40.0622 26.5653L40.9132 29.07L41.3866 28.9091L40.5357 26.4044L40.0622 26.5653ZM24.7987 40.3321H27.205V39.8321H24.7987V40.3321ZM23.549 39.0814C23.5463 39.7721 24.1077 40.3321 24.7987 40.3321V39.8321C24.3828 39.8321 24.0474 39.4953 24.049 39.0834L23.549 39.0814ZM24.7987 37.8327C24.1094 37.8327 23.549 38.3931 23.549 39.0824H24.049C24.049 38.6692 24.3855 38.3327 24.7987 38.3327V37.8327ZM27.205 37.8327H24.7987V38.3327H27.205V37.8327ZM28.4547 39.0824C28.4547 38.3931 27.8943 37.8327 27.205 37.8327V38.3327C27.6182 38.3327 27.9547 38.6692 27.9547 39.0824H28.4547ZM27.205 40.3321C27.8943 40.3321 28.4547 39.7718 28.4547 39.0824H27.9547C27.9547 39.4956 27.6182 39.8321 27.205 39.8321V40.3321ZM29.5279 10.0277H22.473V10.5277H29.5279V10.0277ZM30.2776 9.27796C30.2776 9.69116 29.9411 10.0277 29.5279 10.0277V10.5277C30.2172 10.5277 30.7776 9.96731 30.7776 9.27796H30.2776ZM29.5279 8.52824C29.9411 8.52824 30.2776 8.86475 30.2776 9.27796H30.7776C30.7776 8.58861 30.2173 8.02824 29.5279 8.02824V8.52824ZM22.473 8.52824H29.5279V8.02824H22.473V8.52824ZM21.7233 9.27796C21.7233 8.86475 22.0598 8.52824 22.473 8.52824V8.02824C21.7837 8.02824 21.2233 8.5886 21.2233 9.27796H21.7233ZM22.473 10.0277C22.0576 10.0277 21.7233 9.69333 21.7233 9.27796H21.2233C21.2233 9.96946 21.7815 10.5277 22.473 10.5277V10.0277ZM22.473 6.49789H29.5279V5.99789H22.473V6.49789ZM21.2233 5.24818C21.2233 5.93715 21.7811 6.49789 22.473 6.49789V5.99789C22.058 5.99789 21.7233 5.66172 21.7233 5.24818H21.2233ZM22.473 3.99846C21.7837 3.99846 21.2233 4.55883 21.2233 5.24818H21.7233C21.7233 4.83498 22.0598 4.49846 22.473 4.49846V3.99846ZM29.5279 3.99846H22.473V4.49846H29.5279V3.99846ZM30.7776 5.24818C30.7776 4.55886 30.2173 3.99846 29.5279 3.99846V4.49846C29.9411 4.49846 30.2776 4.835 30.2776 5.24818H30.7776ZM29.5279 6.49789C30.2172 6.49789 30.7776 5.93753 30.7776 5.24818H30.2776C30.2776 5.66138 29.9411 5.99789 29.5279 5.99789V6.49789ZM29.5279 14.0591H22.473V14.5591H29.5279V14.0591ZM30.2776 13.3094C30.2776 13.7226 29.9411 14.0591 29.5279 14.0591V14.5591C30.2172 14.5591 30.7776 13.9988 30.7776 13.3094H30.2776ZM29.5279 12.5597C29.9411 12.5597 30.2776 12.8962 30.2776 13.3094H30.7776C30.7776 12.6201 30.2173 12.0597 29.5279 12.0597V12.5597ZM22.473 12.5597H29.5279V12.0597H22.473V12.5597ZM21.7233 13.3094C21.7233 12.8962 22.0598 12.5597 22.473 12.5597V12.0597C21.7837 12.0597 21.2233 12.6201 21.2233 13.3094H21.7233ZM22.473 14.0591C22.058 14.0591 21.7233 13.723 21.7233 13.3094H21.2233C21.2233 13.9984 21.7811 14.5591 22.473 14.5591V14.0591ZM30.7775 17.3387C30.7775 16.6494 30.2172 16.089 29.5278 16.089V16.589C29.941 16.589 30.2775 16.9256 30.2775 17.3387H30.7775ZM29.5278 18.5885C30.2193 18.5885 30.7775 18.0303 30.7775 17.3387H30.2775C30.2775 17.7541 29.9432 18.0885 29.5278 18.0885V18.5885ZM22.4729 18.5885H29.5278V18.0885H22.4729V18.5885ZM21.2232 17.3387C21.2232 18.0281 21.7836 18.5885 22.4729 18.5885V18.0885C22.0597 18.0885 21.7232 17.7519 21.7232 17.3387H21.2232ZM22.4729 16.089C21.7836 16.089 21.2232 16.6494 21.2232 17.3387H21.7232C21.7232 16.9255 22.0597 16.589 22.4729 16.589V16.089ZM29.5278 16.089H22.4729V16.589H29.5278V16.089Z" fill="#EEF2F4"/>
</svg>
