<?xml version="1.0" encoding="UTF-8"?>
<svg width="65px" height="64px" viewBox="0 0 65 64" version="1.1" xmlns="http://www.w3.org/2000/svg" xmlns:xlink="http://www.w3.org/1999/xlink">
    <!-- Generator: Sketch 53 (72520) - https://sketchapp.com -->
    <title>icon</title>
    <desc>Created with Sketch.</desc>
    <g id="Mockups" stroke="none" stroke-width="1" fill="none" fill-rule="evenodd">
        <g id="Cancel-Appointment" transform="translate(-468.000000, -167.000000)">
            <g id="Left" transform="translate(41.000000, 166.000000)">
                <g id="icon" transform="translate(427.000000, 0.500000)">
                    <g id="Group-5" transform="translate(0.000000, 0.500000)">
                        <rect id="Rectangle" x="0" y="0" width="65" height="65"></rect>
                        <path d="M46.5742587,6.30726464 L43.1454003,6.30726464 L43.1454003,11.6729086 C43.1454003,13.863334 41.3700065,15.6386434 39.1796655,15.6386434 C36.9893245,15.6386434 35.2139307,13.8632496 35.2139307,11.6729086 L35.2139307,6.30726464 L19.7889585,6.30726464 L19.7889585,11.6729086 C19.7889585,13.863334 18.0168532,15.6386434 15.8265122,15.6386434 C13.6360869,15.6386434 11.8607774,13.8632496 11.8607774,11.6729086 L11.8607774,6.30726464 L8.43191901,6.30726464 C4.17299759,6.30726464 0.717830801,9.76251575 0.717830801,14.0213529 L0.717830801,54.0935638 C0.717830801,58.3557737 4.17308191,61.807652 8.43191901,61.807652 L37.4799083,61.804355 C34.5418023,58.6620218 32.7401001,54.4459358 32.7401001,49.8053743 C32.7401001,40.1016307 40.6057144,32.2327279 50.3093736,32.2327279 C51.6796016,32.2327279 53.0102826,32.3941281 54.2883469,32.6905695 L54.2916439,14.0175246 C54.2916439,9.75860322 50.8363928,6.30672498 46.5742671,6.30672498 L46.5742587,6.30726464 Z M23.2179855,48.893106 L6.71959785,48.893106 C5.71170033,48.893106 4.89808006,48.0762393 4.89808006,47.0715882 C4.89808006,46.0636907 5.71164974,45.2500704 6.71959785,45.2500704 L23.2179855,45.2500704 C24.2258831,45.2500704 25.0395033,46.0669371 25.0395033,47.0715882 C25.0395033,48.0761972 24.2259337,48.893106 23.2179855,48.893106 Z M23.2179855,37.1639548 L6.71959785,37.1639548 C5.71170033,37.1639548 4.89808006,36.3470881 4.89808006,35.342437 C4.89808006,34.3345395 5.71164974,33.5209192 6.71959785,33.5209192 L23.2179855,33.5209192 C24.2258831,33.5209192 25.0395033,34.3377859 25.0395033,35.342437 C25.0395033,36.347046 24.2259337,37.1639548 23.2179855,37.1639548 Z M48.2902057,24.6244718 L6.71875463,24.6244718 C5.71085712,24.6244718 4.89723684,23.8109021 4.89723684,22.802954 C4.89723684,21.7983451 5.71080652,20.9814362 6.71875463,20.9814362 L48.2902057,20.9814362 C49.2948147,20.9814362 50.1117235,21.7950059 50.1117235,22.802954 C50.1117235,23.8108516 49.2948568,24.6244718 48.2902057,24.6244718 Z" id="Fill-1" fill="#5C6373"></path>
                        <path d="M18.1848221,10.9120738 C18.1848221,12.2131579 17.127512,13.2704679 15.8264279,13.2704679 C14.5253438,13.2704679 13.4680337,12.2164464 13.4680337,10.9120738 L13.4680337,2.9838927 C13.4680337,1.68280856 14.5253438,0.625498517 15.8264279,0.625498517 C17.127512,0.625498517 18.1848221,1.67952001 18.1848221,2.9838927 L18.1848221,10.9120738 Z" id="Fill-2" fill="#5C6373"></path>
                        <path d="M41.5419385,10.9120738 C41.5419385,12.2131579 40.487917,13.2704679 39.1835443,13.2704679 C37.8824602,13.2704679 36.8284387,12.2164464 36.8284387,10.9120738 L36.8284387,2.9838927 C36.8284387,1.68280856 37.8824602,0.625498517 39.1835443,0.625498517 C40.4846284,0.625498517 41.5419385,1.67952001 41.5419385,2.9838927 L41.5419385,10.9120738 Z" id="Fill-3" fill="#5C6373"></path>
                        <path d="M50.39268,35.8038454 C42.6129393,35.8038454 36.310619,42.1091345 36.310619,49.8884511 C36.310619,57.6648838 42.615908,63.9705121 50.39268,63.9705121 C58.1724207,63.9705121 64.4772856,57.6652231 64.4772856,49.8884511 C64.4772856,42.1120184 58.1686886,35.8038454 50.39268,35.8038454 Z" id="Fill-4" fill="#FF2020"></path>
                        <path d="M44.8259985,44.8271193 C45.3732686,44.2798491 46.2598681,44.2798491 46.8071382,44.8271193 L50.3733188,48.3932998 L53.9394993,44.8271193 C54.4867694,44.2798491 55.3733689,44.2798491 55.9206391,44.8271193 C56.4679092,45.3743894 56.4679092,46.2609889 55.9206391,46.8082591 L52.3544586,50.3744396 L55.9206391,53.9406201 C56.4679092,54.4878903 56.4679092,55.3744898 55.9206391,55.9217599 C55.3733689,56.46903 54.4867694,56.46903 53.9394993,55.9217599 L50.3744396,52.3567002 L46.8082591,55.9228807 C46.2609889,56.4701509 45.3743894,56.4701509 44.8271193,55.9228807 C44.2798491,55.3756106 44.2798491,54.4890111 44.8271193,53.9417409 L48.3932998,50.3755604 L44.8271193,46.8093799 C44.2798491,46.2621097 44.2798491,45.3755102 44.8271193,44.8282401 L44.8259985,44.8271193 Z" id="Fill-1" fill="#FFFFFF"></path>
                    </g>
                </g>
            </g>
        </g>
    </g>
</svg>