<svg width="42" height="42" viewBox="0 0 42 42" fill="none" xmlns="http://www.w3.org/2000/svg">
<path fill-rule="evenodd" clip-rule="evenodd" d="M21 41C9.97086 41 1 32.0291 1 21C1 9.97086 9.97086 1 21 1C26.2009 1 31.1137 3 34.828 6.60046C34.9999 6.7143 35.1137 6.88617 35.1717 7.05805C35.1717 7.11608 35.1717 7.11608 35.2298 7.17189C35.2298 7.22992 35.2878 7.34376 35.2878 7.39957V7.57144V7.74331C35.2878 7.80135 35.2878 7.85715 35.2298 7.91519V7.97322C35.1717 8.08706 35.1717 8.1451 35.1159 8.25894V8.31697L23.1159 25.2878C22.6584 25.9173 21.915 26.3726 21.174 26.4307H20.8883C20.203 26.4307 19.5178 26.145 19.0021 25.6874L13.2855 20.4285C12.7721 19.9151 12.7141 19.0579 13.2275 18.5423C13.7409 18.0289 14.598 17.9709 15.1137 18.4843L20.7141 23.7409H20.7722C20.8302 23.7409 20.8302 23.7409 20.8302 23.6829L32.1451 7.6829C29.0022 5.05342 25.1159 3.56907 20.9439 3.56907C11.4016 3.56907 3.62906 11.3416 3.62906 20.8839C3.62906 30.4285 11.4571 38.3148 20.9993 38.3148C30.5416 38.3148 38.3142 30.5422 38.3142 20.9999C38.3142 20.2566 38.8856 19.6852 39.6289 19.6852C40.428 19.6852 40.9995 20.2566 40.9995 20.9999C41 32.0291 32.0291 41 21 41Z" fill="white" stroke="#005EB8" stroke-width="0.6"/>
</svg>
