<svg width="52" height="50" viewBox="0 0 52 50" fill="none" xmlns="http://www.w3.org/2000/svg">
<path fill-rule="evenodd" clip-rule="evenodd" d="M25 1C11.7645 1 1 11.7642 1 25C1 38.2355 11.7642 49 25 49C38.2358 49 49 38.2358 49 25C49 11.7645 38.2358 1 25 1ZM44.4085 16.6018C43.5959 15.9459 42.6786 15.3281 41.6617 14.7579C40.3025 13.9927 38.8102 13.3321 37.2135 12.7809C36.6622 11.1841 36.0064 9.6918 35.2365 8.33273C34.6662 7.31572 34.0484 6.40332 33.3926 5.58588C38.3161 7.72917 42.2701 11.6831 44.4086 16.6019L44.4085 16.6018ZM25 46.1471C21.5165 46.1471 18.3371 43.0105 16.2462 38.1963C18.9977 38.8236 21.9585 39.1515 25 39.1515C28.0415 39.1515 31.0023 38.8236 33.7538 38.1963C31.6627 43.0104 28.4835 46.1471 25 46.1471ZM25 36.3001C21.4405 36.3001 18.0521 35.8011 15.0722 34.9267C14.2026 31.9469 13.6988 28.5585 13.6988 24.9989C13.6988 21.4394 14.1978 18.051 15.0722 15.0712C18.052 14.2015 21.4405 13.6977 25 13.6977C28.5595 13.6977 31.9479 14.1967 34.9278 15.0712C35.7974 18.0509 36.3012 21.4394 36.3012 24.9989C36.3012 28.5585 35.8022 31.9468 34.9278 34.9267C31.948 35.8011 28.5595 36.3001 25 36.3001ZM11.8023 33.7528C6.98814 31.6617 3.85148 28.4824 3.85148 24.9989C3.85148 21.5154 6.98802 18.336 11.8023 16.2451C11.1749 18.9967 10.847 21.9574 10.847 24.9989C10.847 28.0404 11.1797 31.0012 11.8023 33.7528ZM25 3.851C28.4835 3.851 31.6629 6.98753 33.7538 11.8018C31.0023 11.1745 28.0415 10.8465 25 10.8465C21.9585 10.8465 18.9977 11.1744 16.2462 11.8018C18.3373 6.98765 21.5165 3.851 25 3.851ZM38.1978 16.2458C43.0119 18.3369 46.1485 21.5161 46.1485 24.9996C46.1485 28.4831 43.012 31.6625 38.1978 33.7535C38.8251 31.0019 39.153 28.0412 39.153 24.9996C39.153 21.9581 38.8203 18.9974 38.1978 16.2458ZM16.603 5.59099C15.9472 6.40364 15.3293 7.32088 14.7591 8.33784C13.994 9.69703 13.3334 11.1893 12.7821 12.786C11.1853 13.3373 9.69302 13.9978 8.33395 14.763C7.31694 15.3333 6.40453 15.9511 5.58709 16.6069C7.73039 11.6834 11.6844 7.72942 16.6031 5.59087L16.603 5.59099ZM5.59172 33.3965C6.40437 34.0524 7.32161 34.6702 8.33857 35.2404C9.69776 36.0056 11.1901 36.6662 12.7867 37.2174C13.338 38.8142 13.9938 40.3065 14.7637 41.6656C15.334 42.6826 15.9518 43.595 16.6076 44.4124C11.6841 42.2691 7.73015 38.3152 5.5916 33.3964L5.59172 33.3965ZM33.3973 44.4078C34.0531 43.5951 34.6709 42.6779 35.2411 41.6609C36.0063 40.3018 36.6669 38.8095 37.2181 37.2128C38.8149 36.6615 40.3072 36.0009 41.6663 35.2358C42.6833 34.6655 43.5957 34.0477 44.4131 33.3919C42.2699 38.3154 38.3159 42.2694 33.3971 44.4079L33.3973 44.4078Z" fill="white"/>
<path d="M44.4085 16.6018L44.8681 16.1421L44.8437 16.1177L44.8167 16.0959L44.4085 16.6018ZM41.6617 14.7579L41.3428 15.3243L41.3438 15.3248L41.6617 14.7579ZM37.2135 12.7809L36.5991 12.993L36.7023 13.2921L37.0014 13.3953L37.2135 12.7809ZM35.2365 8.33273L34.6696 8.65065L34.671 8.65311L35.2365 8.33273ZM33.3926 5.58588L33.6521 4.9899L32.8856 5.99263L33.3926 5.58588ZM44.4086 16.6019L43.949 17.0615L45.0047 16.3427L44.4086 16.6019ZM16.2462 38.1963L16.3906 37.5625L15.1382 37.277L15.65 38.4552L16.2462 38.1963ZM33.7538 38.1963L34.35 38.4553L34.8618 37.277L33.6094 37.5625L33.7538 38.1963ZM15.0722 34.9267L14.4483 35.1088L14.5479 35.4502L14.8892 35.5504L15.0722 34.9267ZM15.0722 15.0712L14.8901 14.4472L14.5487 14.5468L14.4485 14.8881L15.0722 15.0712ZM34.9278 15.0712L35.5517 14.889L35.4521 14.5476L35.1108 14.4475L34.9278 15.0712ZM34.9278 34.9267L35.1108 35.5504L35.4515 35.4504L35.5515 35.1097L34.9278 34.9267ZM11.8023 33.7528L11.5433 34.3489L12.7191 34.8597L12.4362 33.6093L11.8023 33.7528ZM11.8023 16.2451L12.436 16.3895L12.7215 15.1371L11.5433 15.6489L11.8023 16.2451ZM33.7538 11.8018L33.6094 12.4355L34.8618 12.721L34.35 11.5428L33.7538 11.8018ZM16.2462 11.8018L15.65 11.5428L15.1382 12.721L16.3906 12.4355L16.2462 11.8018ZM38.1978 16.2458L38.4567 15.6496L37.2809 15.1388L37.5638 16.3892L38.1978 16.2458ZM38.1978 33.7535L37.564 33.609L37.2785 34.8614L38.4567 34.3497L38.1978 33.7535ZM16.603 5.59099L16.1423 5.1324L16.1184 5.15641L16.0972 5.18278L16.603 5.59099ZM14.7591 8.33784L15.3255 8.6567L15.326 8.65574L14.7591 8.33784ZM12.7821 12.786L12.9942 13.4004L13.2933 13.2972L13.3965 12.9981L12.7821 12.786ZM8.33395 14.763L8.65186 15.3299L8.65283 15.3294L8.33395 14.763ZM5.58709 16.6069L4.99112 16.3474L5.99384 17.1139L5.58709 16.6069ZM16.6031 5.59087L17.0638 6.04945L16.3439 4.99477L16.6031 5.59087ZM5.59172 33.3965L5.1321 33.8562L5.15657 33.8806L5.18351 33.9024L5.59172 33.3965ZM8.33857 35.2404L8.65743 34.674L8.65647 34.6735L8.33857 35.2404ZM12.7867 37.2174L13.4011 37.0053L13.2979 36.7062L12.9989 36.603L12.7867 37.2174ZM14.7637 41.6656L15.3307 41.3476L15.3293 41.3452L14.7637 41.6656ZM16.6076 44.4124L16.3482 45.0084L17.1146 44.0057L16.6076 44.4124ZM5.5916 33.3964L6.05121 32.9368L4.9955 33.6556L5.5916 33.3964ZM33.3973 44.4078L33.8559 44.8684L33.8809 44.8435L33.9031 44.816L33.3973 44.4078ZM35.2411 41.6609L34.6747 41.3421L34.6742 41.343L35.2411 41.6609ZM37.2181 37.2128L37.006 36.5984L36.707 36.7016L36.6037 37.0007L37.2181 37.2128ZM41.6663 35.2358L41.3484 34.6688L41.3474 34.6694L41.6663 35.2358ZM44.4131 33.3919L45.0091 33.6514L44.0064 32.8849L44.4131 33.3919ZM33.3971 44.4079L32.9386 43.9473L33.6563 45.004L33.3971 44.4079ZM25 0.35C11.4056 0.35 0.35 11.4052 0.35 25H1.65C1.65 12.1232 12.1235 1.65 25 1.65V0.35ZM0.35 25C0.35 38.5944 11.4052 49.65 25 49.65V48.35C12.1232 48.35 1.65 37.8765 1.65 25H0.35ZM25 49.65C38.5948 49.65 49.65 38.5948 49.65 25H48.35C48.35 37.8768 37.8768 48.35 25 48.35V49.65ZM49.65 25C49.65 11.4056 38.5948 0.35 25 0.35V1.65C37.8768 1.65 48.35 12.1235 48.35 25H49.65ZM44.8167 16.0959C43.9735 15.4154 43.0256 14.7775 41.9796 14.1909L41.3438 15.3248C42.3316 15.8787 43.2183 16.4765 44.0003 17.1076L44.8167 16.0959ZM41.9805 14.1915C40.5838 13.4052 39.0553 12.7291 37.4256 12.1665L37.0014 13.3953C38.5651 13.9352 40.0212 14.5803 41.3428 15.3243L41.9805 14.1915ZM37.8279 12.5688C37.2657 10.9402 36.5943 9.41085 35.8021 8.01236L34.671 8.65311C35.4185 9.97275 36.0588 11.428 36.5991 12.993L37.8279 12.5688ZM35.8035 8.01482C35.2163 6.96767 34.5786 6.02542 33.8996 5.17913L32.8856 5.99263C33.5183 6.78121 34.1162 7.66378 34.6696 8.65065L35.8035 8.01482ZM33.1332 6.18186C37.9061 8.2596 41.7397 12.0933 43.8125 16.8611L45.0047 16.3427C42.8005 11.273 38.7262 7.19875 33.6521 4.9899L33.1332 6.18186ZM44.8683 16.1423L44.8681 16.1421L43.9489 17.0614L43.949 17.0615L44.8683 16.1423ZM25 45.4971C21.9265 45.4971 18.9082 42.6937 16.8423 37.9373L15.65 38.4552C17.7661 43.3274 21.1064 46.7971 25 46.7971V45.4971ZM16.1017 38.83C18.9032 39.4687 21.9125 39.8015 25 39.8015V38.5015C22.0045 38.5015 19.0923 38.1785 16.3906 37.5625L16.1017 38.83ZM25 39.8015C28.0875 39.8015 31.0968 39.4687 33.8983 38.83L33.6094 37.5625C30.9077 38.1785 27.9955 38.5015 25 38.5015V39.8015ZM33.1577 37.9373C31.0917 42.6936 28.0735 45.4971 25 45.4971V46.7971C28.8936 46.7971 32.2338 43.3272 34.35 38.4553L33.1577 37.9373ZM25 35.6501C21.4997 35.6501 18.1732 35.1592 15.2553 34.303L14.8892 35.5504C17.931 36.443 21.3812 36.9501 25 36.9501V35.6501ZM15.6962 34.7445C14.8443 31.8256 14.3488 28.4985 14.3488 24.9989H13.0488C13.0488 28.6184 13.5609 32.0683 14.4483 35.1088L15.6962 34.7445ZM14.3488 24.9989C14.3488 21.4986 14.8397 18.1721 15.6959 15.2542L14.4485 14.8881C13.5559 17.9299 13.0488 21.3801 13.0488 24.9989H14.3488ZM15.2544 15.6951C18.1733 14.8432 21.5004 14.3477 25 14.3477V13.0477C21.3805 13.0477 17.9306 13.5598 14.8901 14.4472L15.2544 15.6951ZM25 14.3477C28.5003 14.3477 31.8268 14.8386 34.7447 15.6949L35.1108 14.4475C32.069 13.5548 28.6188 13.0477 25 13.0477V14.3477ZM34.3038 15.2533C35.1557 18.1722 35.6512 21.4993 35.6512 24.9989H36.9512C36.9512 21.3794 36.4391 17.9295 35.5517 14.889L34.3038 15.2533ZM35.6512 24.9989C35.6512 28.4992 35.1603 31.8258 34.3041 34.7436L35.5515 35.1097C36.4441 32.0679 36.9512 28.6177 36.9512 24.9989H35.6512ZM34.7447 34.303C31.827 35.1592 28.5003 35.6501 25 35.6501V36.9501C28.6188 36.9501 32.0691 36.443 35.1108 35.5504L34.7447 34.303ZM12.0612 33.1566C7.30497 31.0906 4.50148 28.0724 4.50148 24.9989H3.20148C3.20148 28.8925 6.67131 32.2327 11.5433 34.3489L12.0612 33.1566ZM4.50148 24.9989C4.50148 21.9254 7.30487 18.9071 12.0612 16.8412L11.5433 15.6489C6.67117 17.765 3.20148 21.1054 3.20148 24.9989H4.50148ZM11.1685 16.1006C10.5298 18.9021 10.197 21.9114 10.197 24.9989H11.497C11.497 22.0034 11.8201 19.0912 12.436 16.3895L11.1685 16.1006ZM10.197 24.9989C10.197 28.0871 10.5347 31.096 11.1683 33.8962L12.4362 33.6093C11.8246 30.9063 11.497 27.9937 11.497 24.9989H10.197ZM25 4.501C28.0735 4.501 31.0918 7.30438 33.1577 12.0607L34.35 11.5428C32.2339 6.67068 28.8936 3.201 25 3.201V4.501ZM33.8983 11.168C31.0968 10.5293 28.0875 10.1965 25 10.1965V11.4965C27.9955 11.4965 30.9077 11.8196 33.6094 12.4355L33.8983 11.168ZM25 10.1965C21.9125 10.1965 18.9032 10.5293 16.1017 11.168L16.3906 12.4355C19.0923 11.8196 22.0045 11.4965 25 11.4965V10.1965ZM16.8423 12.0607C18.9083 7.30448 21.9265 4.501 25 4.501V3.201C21.1064 3.201 17.7662 6.67082 15.65 11.5428L16.8423 12.0607ZM37.9388 16.842C42.695 18.9079 45.4985 21.9262 45.4985 24.9996H46.7985C46.7985 21.1061 43.3287 17.7658 38.4567 15.6496L37.9388 16.842ZM45.4985 24.9996C45.4985 28.0731 42.6951 31.0915 37.9388 33.1573L38.4567 34.3497C43.3288 32.2335 46.7985 28.8932 46.7985 24.9996H45.4985ZM38.8315 33.898C39.4702 31.0965 39.803 28.0871 39.803 24.9996H38.503C38.503 27.9952 38.1799 30.9073 37.564 33.609L38.8315 33.898ZM39.803 24.9996C39.803 21.9114 39.4653 18.9025 38.8317 16.1023L37.5638 16.3892C38.1754 19.0923 38.503 22.0048 38.503 24.9996H39.803ZM16.0972 5.18278C15.4166 6.02605 14.7787 6.97387 14.1921 8.01994L15.326 8.65574C15.88 7.66789 16.4777 6.78124 17.1088 5.9992L16.0972 5.18278ZM14.1927 8.01898C13.4064 9.41572 12.7303 10.9442 12.1677 12.5739L13.3965 12.9981C13.9364 11.4344 14.5815 9.97834 15.3255 8.6567L14.1927 8.01898ZM12.57 12.1716C10.9402 12.7342 9.41171 13.4103 8.01507 14.1966L8.65283 15.3294C9.97433 14.5854 11.4304 13.9403 12.9942 13.4004L12.57 12.1716ZM8.01603 14.196C6.96888 14.7832 6.02663 15.4209 5.18034 16.0999L5.99384 17.1139C6.78243 16.4812 7.66499 15.8833 8.65186 15.3299L8.01603 14.196ZM6.18307 16.8663C8.26081 12.0934 12.0945 8.25986 16.8623 6.18696L16.3439 4.99477C11.2742 7.19898 7.19997 11.2734 4.99112 16.3474L6.18307 16.8663ZM16.1425 5.13228L16.1423 5.1324L17.0636 6.04958L17.0638 6.04945L16.1425 5.13228ZM5.18351 33.9024C6.02678 34.5829 6.9746 35.2208 8.02067 35.8074L8.65647 34.6735C7.66862 34.1196 6.78197 33.5218 5.99993 32.8907L5.18351 33.9024ZM8.01971 35.8068C9.41645 36.5931 10.945 37.2692 12.5746 37.8318L12.9989 36.603C11.4351 36.0631 9.97907 35.418 8.65743 34.674L8.01971 35.8068ZM12.1723 37.4295C12.7345 39.0581 13.4059 40.5874 14.1982 41.9859L15.3293 41.3452C14.5817 40.0255 13.9414 38.5703 13.4011 37.0053L12.1723 37.4295ZM14.1968 41.9835C14.784 43.0306 15.4217 43.9729 16.1006 44.8192L17.1146 44.0057C16.482 43.2171 15.884 42.3345 15.3307 41.3477L14.1968 41.9835ZM16.867 43.8164C12.0941 41.7387 8.26059 37.905 6.18769 33.1372L4.9955 33.6556C7.19971 38.7253 11.2741 42.7995 16.3482 45.0084L16.867 43.8164ZM5.13198 33.856L5.1321 33.8562L6.05134 32.9369L6.05121 32.9368L5.13198 33.856ZM33.9031 44.816C34.5836 43.9727 35.2216 43.0249 35.8081 41.9788L34.6742 41.343C34.1203 42.3309 33.5226 43.2175 32.8914 43.9996L33.9031 44.816ZM35.8076 41.9798C36.5938 40.5831 37.2699 39.0546 37.8326 37.4249L36.6037 37.0007C36.0639 38.5644 35.4187 40.0204 34.6747 41.3421L35.8076 41.9798ZM37.4303 37.8272C39.06 37.2646 40.5885 36.5885 41.9852 35.8022L41.3474 34.6694C40.0259 35.4134 38.5699 36.0585 37.006 36.5984L37.4303 37.8272ZM41.9842 35.8027C43.0314 35.2156 43.9736 34.5779 44.8199 33.8989L44.0064 32.8849C43.2178 33.5176 42.3352 34.1155 41.3484 34.6688L41.9842 35.8027ZM43.8172 33.1325C41.7394 37.9054 37.9057 41.7389 33.138 43.8118L33.6563 45.004C38.7261 42.7998 42.8003 38.7254 45.0091 33.6514L43.8172 33.1325ZM33.8557 44.8686L33.8559 44.8684L32.9387 43.9472L32.9386 43.9473L33.8557 44.8686Z" fill="#005EB8"/>
<path fill-rule="evenodd" clip-rule="evenodd" d="M49.7276 40.2186L38.3636 37.0104C38.2818 36.9828 38.1735 37.0104 38.0917 37.0921C38.0099 37.1739 37.9834 37.2557 38.0099 37.364L41.1363 48.8099C41.1639 48.9182 41.2723 49 41.3806 49H41.4082C41.5165 49 41.6259 48.9182 41.6524 48.8365L43.9356 42.9373L49.7529 40.7348C49.8613 40.6807 49.943 40.5989 49.9165 40.463C49.8899 40.327 49.8358 40.2463 49.7274 40.2187L49.7276 40.2186Z" fill="white" stroke="#005EB8" stroke-width="1.3"/>
</svg>
