<svg width="60" height="60" viewBox="0 0 60 60" fill="none" xmlns="http://www.w3.org/2000/svg">
<path fill-rule="evenodd" clip-rule="evenodd" d="M50.9756 52.2439C50.9756 53.2134 50.189 54 49.2195 54C48.25 54 47.4634 53.2134 47.4634 52.2439C47.4634 43.9573 41.3445 39.9512 30.4878 39.9512C19.6311 39.9512 13.5122 43.9573 13.5122 52.2439C13.5122 53.2134 12.7256 54 11.7561 54C10.7866 54 10 53.2134 10 52.2439C10 41.625 17.9253 36.439 30.4878 36.439C43.0503 36.439 50.9756 41.625 50.9756 52.2439ZM30.4878 34.0976C24.0123 34.0976 19.3659 26.9268 19.3659 19.4634C19.3659 12.2423 23.9482 6 30.4878 6C37.0274 6 41.6098 12.2423 41.6098 19.4634C41.6098 26.9268 36.9634 34.0976 30.4878 34.0976ZM30.4878 30.5854C34.6266 30.5854 38.0976 25.2211 38.0976 19.4634C38.0976 13.9893 34.8094 9.5122 30.4878 9.5122C26.1662 9.5122 22.878 13.9893 22.878 19.4634C22.878 25.2211 26.349 30.5854 30.4878 30.5854Z" fill="#005EB8"/>
<path d="M50.6256 52.2439C50.6256 53.0201 49.9957 53.65 49.2195 53.65V54.35C50.3823 54.35 51.3256 53.4067 51.3256 52.2439H50.6256ZM49.2195 53.65C48.4433 53.65 47.8134 53.0201 47.8134 52.2439H47.1134C47.1134 53.4067 48.0567 54.35 49.2195 54.35V53.65ZM47.8134 52.2439C47.8134 48.0024 46.2404 44.8155 43.2487 42.7041C40.2775 40.6073 35.9496 39.6012 30.4878 39.6012V40.3012C35.8827 40.3012 40.0426 41.2982 42.845 43.2761C45.627 45.2394 47.1134 48.1989 47.1134 52.2439H47.8134ZM30.4878 39.6012C25.026 39.6012 20.6981 40.6073 17.7269 42.7041C14.7352 44.8155 13.1622 48.0024 13.1622 52.2439H13.8622C13.8622 48.1989 15.3486 45.2394 18.1306 43.2761C20.933 41.2982 25.0929 40.3012 30.4878 40.3012V39.6012ZM13.1622 52.2439C13.1622 53.0201 12.5323 53.65 11.7561 53.65V54.35C12.9189 54.35 13.8622 53.4067 13.8622 52.2439H13.1622ZM11.7561 53.65C10.9799 53.65 10.35 53.0201 10.35 52.2439H9.65C9.65 53.4067 10.5933 54.35 11.7561 54.35V53.65ZM10.35 52.2439C10.35 47.0326 12.2885 43.1914 15.7409 40.6409C19.2096 38.0784 24.247 36.789 30.4878 36.789V36.089C24.1661 36.089 18.9596 37.3927 15.325 40.0779C11.6741 42.7751 9.65 46.8364 9.65 52.2439H10.35ZM30.4878 36.789C36.7286 36.789 41.7661 38.0784 45.2347 40.6409C48.6871 43.1914 50.6256 47.0326 50.6256 52.2439H51.3256C51.3256 46.8364 49.3015 42.7751 45.6506 40.0779C42.016 37.3927 36.8095 36.089 30.4878 36.089V36.789ZM30.4878 33.7476C27.3909 33.7476 24.7061 32.0346 22.7821 29.3742C20.8573 26.7125 19.7159 23.1269 19.7159 19.4634H19.0159C19.0159 23.2634 20.1976 26.9948 22.2149 29.7844C24.233 32.5751 27.1092 34.4476 30.4878 34.4476V33.7476ZM19.7159 19.4634C19.7159 12.3574 24.2114 6.35 30.4878 6.35V5.65C23.685 5.65 19.0159 12.1273 19.0159 19.4634H19.7159ZM30.4878 6.35C36.7642 6.35 41.2598 12.3574 41.2598 19.4634H41.9598C41.9598 12.1273 37.2906 5.65 30.4878 5.65V6.35ZM41.2598 19.4634C41.2598 23.1269 40.1183 26.7125 38.1935 29.3742C36.2696 32.0346 33.5848 33.7476 30.4878 33.7476V34.4476C33.8664 34.4476 36.7426 32.5751 38.7607 29.7844C40.778 26.9948 41.9598 23.2634 41.9598 19.4634H41.2598ZM30.4878 30.9354C32.7169 30.9354 34.7136 29.4939 36.1352 27.3788C37.561 25.2574 38.4476 22.4083 38.4476 19.4634H37.7476C37.7476 22.2762 36.8986 24.988 35.5542 26.9883C34.2057 28.9947 32.3975 30.2354 30.4878 30.2354V30.9354ZM38.4476 19.4634C38.4476 16.659 37.6057 14.095 36.1926 12.2241C34.778 10.3512 32.7794 9.1622 30.4878 9.1622V9.8622C32.5179 9.8622 34.3241 10.9117 35.634 12.646C36.9453 14.3821 37.7476 16.7937 37.7476 19.4634H38.4476ZM30.4878 9.1622C28.1962 9.1622 26.1976 10.3512 24.783 12.2241C23.3699 14.095 22.528 16.659 22.528 19.4634H23.228C23.228 16.7937 24.0303 14.3821 25.3416 12.646C26.6515 10.9117 28.4578 9.8622 30.4878 9.8622V9.1622ZM22.528 19.4634C22.528 22.4083 23.4146 25.2574 24.8404 27.3788C26.262 29.4939 28.2587 30.9354 30.4878 30.9354V30.2354C28.5781 30.2354 26.7699 28.9947 25.4214 26.9883C24.077 24.988 23.228 22.2762 23.228 19.4634H22.528Z" fill="white"/>
</svg>
