<svg width="60" height="60" viewBox="0 0 60 60" fill="none" xmlns="http://www.w3.org/2000/svg">
<path fill-rule="evenodd" clip-rule="evenodd" d="M13.0285 14.0285C17.5289 9.52856 23.6358 7 30 7L30.0001 7.00011C36.3644 7.00878 42.4629 9.53723 46.9629 14.0372C51.4629 18.5377 53.9914 24.6358 54 31C54 37.3645 51.472 43.4717 46.9715 47.9715C42.4711 52.4714 36.3645 55 30 55C23.6355 55 17.5283 52.472 13.0285 47.9715C8.52856 43.4711 6 37.3645 6 31C6 24.6355 8.52801 18.5283 13.0285 14.0285ZM15.4542 45.5453C19.3115 49.4024 24.5443 51.571 30 51.571L30.0001 51.5709C35.4559 51.5666 40.6844 49.3938 44.5415 45.541C48.3943 41.6838 50.5672 36.4553 50.5715 30.9996C50.5715 25.5437 48.4029 20.3109 44.5458 16.4538C40.6885 12.5967 35.4558 10.4281 30 10.4281C24.5442 10.4281 19.3113 12.5967 15.4542 16.4538C11.5971 20.3111 9.42854 25.5437 9.42854 30.9996C9.42854 36.4554 11.5971 41.6883 15.4542 45.5453ZM35.1434 17.2851V25.8564L43.7148 25.8564C44.1691 25.8564 44.6062 26.0363 44.9277 26.3578C45.2491 26.6792 45.4291 27.1164 45.4291 27.5707V34.4277C45.4291 34.882 45.2491 35.3192 44.9277 35.6406C44.6062 35.962 44.1691 36.142 43.7148 36.142H35.1434V44.7134C35.1434 45.1677 34.9635 45.6048 34.642 45.9263C34.3205 46.2477 33.8834 46.4277 33.4291 46.4277H26.572C26.1177 46.4277 25.6806 46.2477 25.3592 45.9263C25.0377 45.6048 24.8577 45.1677 24.8577 44.7134V36.142H16.2864C15.8321 36.142 15.3949 35.9621 15.0735 35.6406C14.7521 35.3192 14.5721 34.882 14.5721 34.4277V27.5707C14.5721 26.6235 15.3392 25.8564 16.2864 25.8564H24.8577V17.285C24.8577 16.3379 25.6248 15.5708 26.572 15.5708H33.4291C33.8834 15.5708 34.3205 15.7507 34.6419 16.0722C34.9634 16.3937 35.1434 16.8308 35.1434 17.2851ZM33.4291 32.7135H42.0004L42.0005 29.2849H33.4291C32.9748 29.2849 32.5377 29.105 32.2162 28.7835C31.8948 28.462 31.7148 28.0249 31.7148 27.5706V18.9993H28.2863V27.5706C28.2863 28.0249 28.1063 28.4621 27.7849 28.7835C27.4634 29.1049 27.0263 29.2849 26.572 29.2849H18.0006V32.7135H26.572C27.0263 32.7135 27.4634 32.8934 27.7849 33.2149C28.1063 33.5364 28.2863 33.9735 28.2863 34.4278V42.9991H31.7148V34.4278C31.7148 33.4806 32.482 32.7135 33.4291 32.7135Z" fill="#005EB8"/>
<path d="M30 7L30.4225 6.57398L30.2471 6.4H30V7ZM13.0285 14.0285L12.6042 13.6042V13.6042L13.0285 14.0285ZM30.0001 7.00011L29.5776 7.42613L29.7527 7.59977L29.9993 7.60011L30.0001 7.00011ZM46.9629 14.0372L47.3872 13.613L47.3871 13.613L46.9629 14.0372ZM54 31H54.6L54.6 30.9992L54 31ZM13.0285 47.9715L12.6042 48.3958L13.0285 47.9715ZM30 51.571V52.171H30.2516L30.4279 51.9916L30 51.571ZM15.4542 45.5453L15.0299 45.9696L15.03 45.9696L15.4542 45.5453ZM30.0001 51.5709L29.9996 50.9709L29.7483 50.9711L29.5722 51.1504L30.0001 51.5709ZM44.5415 45.541L44.9655 45.9655L44.966 45.965L44.5415 45.541ZM50.5715 30.9996L51.1715 31V30.9996H50.5715ZM44.5458 16.4538L44.9701 16.0295L44.97 16.0295L44.5458 16.4538ZM15.4542 16.4538L15.0299 16.0295L15.0299 16.0295L15.4542 16.4538ZM35.1434 25.8564H34.5434V26.4564L35.1434 26.4564L35.1434 25.8564ZM43.7148 25.8564V25.2564H43.7148L43.7148 25.8564ZM35.1434 36.142V35.542H34.5434V36.142H35.1434ZM34.642 45.9263L34.2178 45.502H34.2178L34.642 45.9263ZM25.3592 45.9263L25.7834 45.502L25.7834 45.502L25.3592 45.9263ZM24.8577 36.142H25.4577V35.542H24.8577V36.142ZM15.0735 35.6406L15.4978 35.2164H15.4978L15.0735 35.6406ZM24.8577 25.8564V26.4564H25.4577V25.8564H24.8577ZM34.6419 16.0722L35.0662 15.6479L35.0662 15.6479L34.6419 16.0722ZM42.0004 32.7135V33.3135H42.6004L42.6004 32.7135L42.0004 32.7135ZM42.0005 29.2849L42.6005 29.2849L42.6005 28.6849H42.0005V29.2849ZM32.2162 28.7835L31.792 29.2077L32.2162 28.7835ZM31.7148 18.9993H32.3148V18.3993H31.7148V18.9993ZM28.2863 18.9993V18.3993H27.6863V18.9993H28.2863ZM27.7849 28.7835L28.2091 29.2078L27.7849 28.7835ZM18.0006 29.2849V28.6849H17.4006V29.2849H18.0006ZM18.0006 32.7135H17.4006V33.3135H18.0006V32.7135ZM27.7849 33.2149L27.3606 33.6391L27.7849 33.2149ZM28.2863 42.9991H27.6863V43.5991H28.2863V42.9991ZM31.7148 42.9991V43.5991H32.3148V42.9991H31.7148ZM30 6.4C23.4767 6.4 17.2172 8.99173 12.6042 13.6042L13.4527 14.4527C17.8406 10.0654 23.7948 7.6 30 7.6V6.4ZM30.4226 6.57409L30.4225 6.57398L29.5775 7.42602L29.5776 7.42613L30.4226 6.57409ZM47.3871 13.613C42.7747 9.00053 36.5239 6.40899 30.0009 6.40011L29.9993 7.60011C36.2049 7.60856 42.1511 10.0739 46.5386 14.4615L47.3871 13.613ZM54.6 30.9992C54.5912 24.4762 51.9996 18.2258 47.3872 13.613L46.5386 14.4615C50.9262 18.8495 53.3916 24.7953 53.4 31.0008L54.6 30.9992ZM47.3958 48.3958C52.0089 43.7833 54.6 37.5235 54.6 31H53.4C53.4 37.2055 50.9351 43.16 46.5473 47.5473L47.3958 48.3958ZM30 55.6C36.5235 55.6 42.7828 53.0083 47.3958 48.3958L46.5473 47.5473C42.1594 51.9346 36.2054 54.4 30 54.4V55.6ZM12.6042 48.3958C17.2167 53.0089 23.4765 55.6 30 55.6V54.4C23.7945 54.4 17.84 51.9351 13.4527 47.5473L12.6042 48.3958ZM5.4 31C5.4 37.5235 7.99173 43.7828 12.6042 48.3958L13.4527 47.5473C9.06539 43.1594 6.6 37.2054 6.6 31H5.4ZM12.6042 13.6042C7.99115 18.2167 5.4 24.4765 5.4 31H6.6C6.6 24.7945 9.06488 18.84 13.4527 14.4527L12.6042 13.6042ZM30 50.971C24.7035 50.971 19.6233 48.8657 15.8785 45.1211L15.03 45.9696C18.9997 49.9392 24.3851 52.171 30 52.171V50.971ZM29.5722 51.1504L29.5721 51.1505L30.4279 51.9916L30.428 51.9915L29.5722 51.1504ZM44.1175 45.1165C40.3725 48.8573 35.2962 50.9668 29.9996 50.9709L30.0006 52.1709C35.6157 52.1665 40.9964 49.9302 44.9655 45.9655L44.1175 45.1165ZM49.9715 30.9991C49.9673 36.2955 47.8578 41.3718 44.117 45.1169L44.966 45.965C48.9308 41.9957 51.167 36.615 51.1715 31L49.9715 30.9991ZM44.1215 16.878C47.8661 20.6226 49.9715 25.7029 49.9715 30.9996H51.1715C51.1715 25.3845 48.9396 19.9991 44.9701 16.0295L44.1215 16.878ZM30 11.0281C35.2966 11.0281 40.3767 13.1334 44.1215 16.8781L44.97 16.0295C41.0003 12.06 35.615 9.8281 30 9.8281V11.0281ZM15.8785 16.878C19.6231 13.1334 24.7034 11.0281 30 11.0281V9.8281C24.385 9.8281 18.9995 12.06 15.0299 16.0295L15.8785 16.878ZM10.0285 30.9996C10.0285 25.7029 12.1339 20.6229 15.8785 16.878L15.0299 16.0295C11.0604 19.9993 8.82854 25.3845 8.82854 30.9996H10.0285ZM15.8785 45.1211C12.1339 41.3765 10.0285 36.2962 10.0285 30.9996H8.82854C8.82854 36.6146 11.0604 42.0001 15.0299 45.9696L15.8785 45.1211ZM35.7434 25.8564V17.2851H34.5434V25.8564H35.7434ZM43.7148 25.2564L35.1434 25.2564L35.1434 26.4564L43.7148 26.4564L43.7148 25.2564ZM45.3519 25.9335C44.9173 25.4989 44.3273 25.2564 43.7148 25.2564V26.4564C44.0109 26.4564 44.2951 26.5738 44.5034 26.782L45.3519 25.9335ZM46.0291 27.5707C46.0291 26.9582 45.7865 26.3681 45.3519 25.9335L44.5034 26.782C44.7117 26.9903 44.8291 27.2746 44.8291 27.5707H46.0291ZM46.0291 34.4277V27.5707H44.8291V34.4277H46.0291ZM45.3519 36.0649C45.7866 35.6303 46.0291 35.0402 46.0291 34.4277H44.8291C44.8291 34.7239 44.7117 35.0081 44.5034 35.2163L45.3519 36.0649ZM43.7148 36.742C44.3273 36.742 44.9173 36.4995 45.3519 36.0649L44.5034 35.2163C44.2951 35.4246 44.0108 35.542 43.7148 35.542V36.742ZM35.1434 36.742H43.7148V35.542H35.1434V36.742ZM35.7434 44.7134V36.142H34.5434V44.7134H35.7434ZM35.0662 46.3506C35.5009 45.9159 35.7434 45.3259 35.7434 44.7134H34.5434C34.5434 45.0095 34.426 45.2938 34.2178 45.502L35.0662 46.3506ZM33.4291 47.0277C34.0416 47.0277 34.6316 46.7851 35.0662 46.3506L34.2178 45.502C34.0094 45.7103 33.7252 45.8277 33.4291 45.8277V47.0277ZM26.572 47.0277H33.4291V45.8277H26.572V47.0277ZM24.9349 46.3505C25.3695 46.7852 25.9595 47.0277 26.572 47.0277V45.8277C26.2759 45.8277 25.9917 45.7103 25.7834 45.502L24.9349 46.3505ZM24.2577 44.7134C24.2577 45.3259 24.5003 45.9159 24.9349 46.3505L25.7834 45.502C25.5752 45.2937 25.4577 45.0094 25.4577 44.7134H24.2577ZM24.2577 36.142V44.7134H25.4577V36.142H24.2577ZM16.2864 36.742H24.8577V35.542H16.2864V36.742ZM14.6492 36.0649C15.0838 36.4995 15.6739 36.742 16.2864 36.742V35.542C15.9903 35.542 15.706 35.4246 15.4978 35.2164L14.6492 36.0649ZM13.9721 34.4277C13.9721 35.0402 14.2147 35.6302 14.6492 36.0649L15.4978 35.2164C15.2895 35.0081 15.1721 34.7238 15.1721 34.4277H13.9721ZM13.9721 27.5707V34.4277H15.1721V27.5707H13.9721ZM16.2864 25.2564C15.0079 25.2564 13.9721 26.2922 13.9721 27.5707H15.1721C15.1721 26.9549 15.6706 26.4564 16.2864 26.4564V25.2564ZM24.8577 25.2564H16.2864V26.4564H24.8577V25.2564ZM24.2577 17.285V25.8564H25.4577V17.285H24.2577ZM26.572 14.9708C25.2935 14.9708 24.2577 16.0065 24.2577 17.285H25.4577C25.4577 16.6693 25.9562 16.1708 26.572 16.1708V14.9708ZM33.4291 14.9708H26.572V16.1708H33.4291V14.9708ZM35.0662 15.6479C34.6316 15.2133 34.0416 14.9708 33.4291 14.9708V16.1708C33.7252 16.1708 34.0094 16.2882 34.2177 16.4964L35.0662 15.6479ZM35.7434 17.2851C35.7434 16.6726 35.5008 16.0826 35.0662 15.6479L34.2177 16.4964C34.4259 16.7047 34.5434 16.989 34.5434 17.2851H35.7434ZM42.0004 32.1135H33.4291V33.3135H42.0004V32.1135ZM41.4005 29.2849L41.4004 32.7135L42.6004 32.7135L42.6005 29.2849L41.4005 29.2849ZM33.4291 29.8849H42.0005V28.6849H33.4291V29.8849ZM31.792 29.2077C32.2266 29.6424 32.8166 29.8849 33.4291 29.8849V28.6849C33.133 28.6849 32.8488 28.5675 32.6405 28.3593L31.792 29.2077ZM31.1148 27.5706C31.1148 28.1831 31.3574 28.7731 31.792 29.2077L32.6405 28.3593C32.4322 28.151 32.3148 27.8667 32.3148 27.5706H31.1148ZM31.1148 18.9993V27.5706H32.3148V18.9993H31.1148ZM28.2863 19.5993H31.7148V18.3993H28.2863V19.5993ZM28.8863 27.5706V18.9993H27.6863V27.5706H28.8863ZM28.2091 29.2078C28.6438 28.7732 28.8863 28.1831 28.8863 27.5706H27.6863C27.6863 27.8668 27.5689 28.151 27.3606 28.3592L28.2091 29.2078ZM26.572 29.8849C27.1845 29.8849 27.7745 29.6424 28.2091 29.2078L27.3606 28.3592C27.1523 28.5675 26.868 28.6849 26.572 28.6849V29.8849ZM18.0006 29.8849H26.572V28.6849H18.0006V29.8849ZM18.6006 32.7135V29.2849H17.4006V32.7135H18.6006ZM26.572 32.1135H18.0006V33.3135H26.572V32.1135ZM28.2091 32.7906C27.7745 32.356 27.1845 32.1135 26.572 32.1135V33.3135C26.8681 33.3135 27.1523 33.4309 27.3606 33.6391L28.2091 32.7906ZM28.8863 34.4278C28.8863 33.8153 28.6437 33.2253 28.2091 32.7906L27.3606 33.6391C27.5689 33.8474 27.6863 34.1317 27.6863 34.4278H28.8863ZM28.8863 42.9991V34.4278H27.6863V42.9991H28.8863ZM31.7148 42.3991H28.2863V43.5991H31.7148V42.3991ZM31.1148 34.4278V42.9991H32.3148V34.4278H31.1148ZM33.4291 32.1135C32.1506 32.1135 31.1148 33.1493 31.1148 34.4278H32.3148C32.3148 33.812 32.8133 33.3135 33.4291 33.3135V32.1135Z" fill="white"/>
</svg>
