<svg width="60" height="60" viewBox="0 0 60 60" fill="none" xmlns="http://www.w3.org/2000/svg">
<path fill-rule="evenodd" clip-rule="evenodd" d="M30.4783 5C28.2683 5 26.417 6.35658 25.57 8.26087H20.6957V10.4348H12V55H48.9565V10.4348H40.2609V8.26087H35.3865C34.5395 6.35658 32.6883 5 30.4783 5ZM30.4783 7.17391C32.1087 7.17391 33.7391 8.26087 33.7391 10.4348H38.087V13.6957H22.8696V10.4348H27.2174C27.2174 8.26087 28.8478 7.17391 30.4783 7.17391ZM14.1739 12.6087H20.6957V15.8696H40.2609V12.6087H46.7826V52.8261H14.1739V12.6087ZM19.6087 21.9203V24.0942H41.3478V21.9203H19.6087ZM19.6087 29.2029V31.3768H41.3478V29.2029H19.6087ZM19.6087 36.4855V38.6594H41.3478V36.4855H19.6087ZM19.6087 43.7681V45.942H33.7391V43.7681H19.6087Z" fill="#005EB8"/>
</svg>
