<svg width="60" height="60" viewBox="0 0 60 60" fill="none" xmlns="http://www.w3.org/2000/svg">
<rect width="60" height="60" fill="#EEF2F4"/>
<path fill-rule="evenodd" clip-rule="evenodd" d="M49.2246 48.3262C49.9238 48.627 49.7246 49.7246 49.0254 49.8262C46.7246 50.2246 43.5254 49.8262 40.4238 47.5254C32.7246 52.0254 22.6228 51.0254 15.9238 44.4238C8.0254 36.5254 8.0254 23.8218 15.9238 15.9238C23.8222 8.0254 36.5258 8.0254 44.4238 15.9238C52.0254 23.5254 52.3222 35.6228 45.2246 43.5258L45.0254 43.725C45.8261 45.3266 47.127 47.3266 49.2246 48.3266L49.2246 48.3262ZM31.0175 17.7242C32.8183 17.7242 34.3183 19.2242 34.2167 21.025C34.2167 22.8258 32.7167 24.3258 30.9159 24.3258C29.1151 24.3258 27.6151 22.8258 27.6151 21.025C27.7166 19.1227 29.2167 17.7242 31.0174 17.7242H31.0175ZM25.4198 25.8258C25.619 25.8258 25.9198 25.7242 26.119 25.7242H29.119H32.3182C33.119 25.7242 33.5174 26.1227 33.5174 26.8258C33.5174 27.4274 33.4158 28.1266 33.3182 28.7242C32.9197 31.025 32.4197 33.4234 32.0174 35.7242C31.9158 36.525 31.7166 37.3258 31.6189 38.025C31.6189 38.4235 31.6189 38.8258 31.7205 39.1266C31.822 39.6266 32.2205 39.9274 32.7205 39.8259C33.1189 39.8259 33.5213 39.6266 33.9197 39.5251C34.2205 39.4235 34.5212 39.2243 34.8181 39.0251C35.3181 38.8259 35.7166 39.1266 35.5173 39.6266C35.4158 39.9274 35.3181 40.2282 35.0173 40.4274C33.8181 41.6266 32.4157 42.3258 30.7165 42.4274C29.9158 42.4274 29.1149 42.4274 28.3181 42.3259C27.0173 42.1266 25.3181 40.5251 25.6189 38.8259C25.8182 37.6267 25.9197 36.4275 26.1189 35.3259C26.4197 33.2243 26.8182 31.2243 27.2205 29.1267V28.7282C27.2205 27.8298 26.9198 27.529 26.1189 27.4274C25.7205 27.3259 25.4197 27.3259 25.0173 27.2282C24.6189 27.029 24.4158 26.7282 24.4158 26.4274C24.7166 26.1227 24.9197 25.9235 25.4197 25.8259L25.4198 25.8258Z" fill="#005EB8"/>
</svg>
