<svg width="33" height="50" viewBox="0 0 33 50" fill="none" xmlns="http://www.w3.org/2000/svg">
<path fill-rule="evenodd" clip-rule="evenodd" d="M16.4998 44.2709C16.0933 44.2709 15.7086 44.0945 15.444 43.7907C14.8138 43.0664 0 25.9276 0 16.4062C0 7.35968 7.40178 0 16.5 0C25.5982 0 33 7.35968 33 16.4062C33 20.2527 30.3782 26.0526 25.2085 33.6449C21.4355 39.1842 17.6077 43.7303 17.5693 43.7741C17.3046 44.086 16.92 44.2678 16.5108 44.2705H16.4998L16.4998 44.2709ZM16.4998 2.77805C8.94297 2.77805 2.79344 8.89239 2.79344 16.4064C2.79344 23.5356 13.0894 36.591 16.4858 40.7007C17.8636 38.9918 20.3981 35.7556 22.9079 32.0689C27.6822 25.0536 30.2057 19.6398 30.2057 16.4057C30.2057 8.8919 24.0563 2.77735 16.4993 2.77735L16.4998 2.77805ZM16.4996 50C12.432 50 8.58814 49.5388 5.67719 48.7006C2.14147 47.6806 0.349067 46.2213 0.349067 44.3577C0.349067 42.3259 2.4661 40.7797 6.64023 39.7597C7.39046 39.5753 8.14615 40.0337 8.32899 40.7769C8.51178 41.5229 8.05345 42.2743 7.30596 42.4561C4.19585 43.2157 3.26277 44.1108 3.14824 44.3577C3.522 45.3478 8.4818 47.2222 16.4998 47.2222C24.5178 47.2222 29.4777 45.3478 29.8513 44.3604C29.7313 44.0973 28.7219 43.1451 25.328 42.372C24.575 42.2011 24.1058 41.4551 24.2777 40.7092C24.4495 39.9605 25.1998 39.4939 25.9527 39.6648C30.3369 40.663 32.6532 42.2852 32.6532 44.3577C32.6532 46.2186 30.8608 47.6807 27.325 48.7006C24.4113 49.5388 20.5673 50 16.4996 50ZM9.39833 15.1613C9.39833 19.054 12.5848 22.2224 16.4998 22.2224C20.4147 22.2224 23.6012 19.054 23.6012 15.1613C23.6012 11.2686 20.4147 8.10024 16.4998 8.10024C12.5848 8.10024 9.39833 11.2686 9.39833 15.1613ZM12.192 15.1641C12.192 12.8013 14.1263 10.8808 16.4998 10.8808C18.8761 10.8808 20.8076 12.8014 20.8076 15.1614C20.8076 17.5241 18.876 19.4447 16.4998 19.4447C14.1262 19.4447 12.192 17.5241 12.192 15.1641Z" fill="#005EB8"/>
</svg>
