<svg width="180" height="50" viewBox="0 0 180 50" fill="none" xmlns="http://www.w3.org/2000/svg">
<path fill-rule="evenodd" clip-rule="evenodd" d="M22.8148 44.4074C23.3227 44.6588 23.9188 44.6588 24.4267 44.4074C25.3511 43.9451 47.0667 32.9614 47.0667 18.8488C47.0667 12.837 44.0474 8.25032 38.7704 6.25625C33.6711 4.32736 27.6267 5.34662 23.6593 8.62662C19.8756 5.4444 13.7274 4.40736 8.5363 6.29477C3.11111 8.25921 0 12.837 0 18.8518C0 32.8903 21.8756 43.9451 22.8148 44.4074ZM14.0237 8.97625C12.5772 8.96917 11.1404 9.2138 9.77778 9.69921L9.77481 9.70514C7.47556 10.5377 3.6237 12.8251 3.6237 18.8637C3.6237 24.9022 9.18519 30.6029 13.8459 34.3333C16.9163 36.7508 20.1874 38.9018 23.6237 40.7629C27.0494 38.9045 30.308 36.7533 33.363 34.3333C37.9674 30.6148 43.4578 24.9259 43.4578 18.8696C43.4578 12.8133 39.7304 10.5022 37.5111 9.66069C33.7926 8.25329 29.28 8.93477 26.317 11.1925C28.8859 13.7733 33.7926 19.5837 32.9956 25.6074C32.4652 29.6281 29.5881 32.8933 24.4415 35.3081L23.7333 35.64L23.0044 35.3437C22.6993 35.2222 15.5141 32.2918 14.3289 25.7407C13.52 21.2251 15.7807 16.3303 21.04 11.1688C19.2 9.76144 16.6459 8.97625 14.0237 8.97625ZM27.9289 25.6014L24.7348 28.1822L24.7289 28.1881V31.0562C27.5289 29.3792 29.1052 27.394 29.4015 25.1303C30.003 20.6148 25.7778 15.7703 23.6622 13.6459C19.2919 17.9066 17.2859 21.8355 17.8785 25.0948C18.397 27.9837 20.8652 29.9837 22.5956 31.0533V28.1851L19.4874 25.7051L19.437 25.6666C19.1449 25.42 19.0065 25.0362 19.074 24.6599C19.1415 24.2835 19.4047 23.9718 19.7644 23.8421C20.1241 23.7124 20.5256 23.7844 20.8178 24.0311L22.5956 25.4444V23.8118L20.8741 22.3125C20.5867 22.0617 20.4549 21.6765 20.5285 21.3022C20.6021 20.9278 20.8698 20.6212 21.2307 20.4977C21.5917 20.3743 21.9911 20.4528 22.2785 20.7037L22.5956 20.9792V18.1674C22.5747 17.7723 22.7737 17.3981 23.1127 17.1943C23.4518 16.9905 23.8756 16.9905 24.2147 17.1943C24.5538 17.3981 24.7527 17.7723 24.7319 18.1674V21.0829L25.2622 20.6622C25.7253 20.3207 26.3752 20.4042 26.7369 20.8516C27.0987 21.299 27.0442 21.952 26.6133 22.3333L24.7526 23.8148V25.4237L26.5837 23.9422C27.0438 23.6092 27.6839 23.694 28.0416 24.1351C28.3993 24.5763 28.3498 25.2201 27.9289 25.6014ZM124.196 30.8103H125.298C125.53 30.8261 125.715 31.0108 125.73 31.2429V44.1703C125.721 44.4054 125.533 44.5938 125.298 44.6029H124.196C123.958 44.5997 123.766 44.4079 123.763 44.1703V31.2429C123.772 31.0079 123.961 30.8194 124.196 30.8103ZM129.535 35.5007H128.441C128.203 35.5052 128.009 35.6949 128 35.9333V44.1703C128.003 44.4079 128.195 44.5997 128.433 44.6029H129.535C129.77 44.5938 129.958 44.4054 129.967 44.1703V35.9333C129.952 35.7012 129.767 35.5165 129.535 35.5007ZM130.323 32.2177C130.323 32.9541 129.726 33.5511 128.99 33.5511C128.253 33.5511 127.656 32.9541 127.656 32.2177C127.656 31.4814 128.253 30.8844 128.99 30.8844C129.726 30.8844 130.323 31.4814 130.323 32.2177ZM139.357 31.5214C138.629 30.9269 137.716 30.6061 136.776 30.6148C134.569 30.6148 133.407 32.0133 133.407 34.4666V35.5185H132.222C132.112 35.5137 132.005 35.5528 131.924 35.6273C131.842 35.7018 131.794 35.8055 131.79 35.9155V35.9511V36.917C131.791 37.1552 131.984 37.348 132.222 37.3496H133.407V44.1881C133.417 44.4231 133.605 44.6116 133.84 44.6207H134.945C135.18 44.6116 135.369 44.4231 135.378 44.1881V37.3318H137.959C138.194 37.3227 138.382 37.1343 138.391 36.8992V35.9333C138.393 35.8209 138.351 35.7122 138.273 35.6311C138.196 35.5499 138.089 35.503 137.976 35.5007H135.378V34.4548C135.378 33.3111 135.793 32.4844 136.818 32.4844C137.34 32.4743 137.851 32.6333 138.276 32.9377C138.359 33.0194 138.476 33.058 138.591 33.0423C138.707 33.0267 138.809 32.9586 138.868 32.8577L139.44 32.0311C139.543 31.8637 139.509 31.6465 139.36 31.5185L139.357 31.5214ZM143.224 35.3022C140.486 35.3022 138.693 37.4888 138.693 40.0429C138.693 42.597 140.471 44.8103 143.244 44.8103C144.464 44.8414 145.656 44.4441 146.613 43.6874C146.718 43.6248 146.786 43.5144 146.794 43.3923C146.801 43.2703 146.748 43.1522 146.652 43.077L146.121 42.2503C145.964 42.0133 145.787 42.0725 145.588 42.2118C144.956 42.7147 144.171 42.9856 143.363 42.9792C141.939 43.0111 140.741 41.9176 140.643 40.4963H146.93C147.149 40.4908 147.329 40.3205 147.345 40.1022C147.366 39.9451 147.384 39.6281 147.384 39.4711C147.417 38.3964 147.022 37.3525 146.286 36.569C145.55 35.7854 144.532 35.3266 143.458 35.2933H143.236L143.224 35.3022ZM140.741 39.0474C140.877 37.9037 141.745 36.9733 143.185 36.9733C143.755 36.9476 144.312 37.1495 144.734 37.5346C145.155 37.9197 145.406 38.4564 145.431 39.0266V39.0474H140.741Z" fill="#39B54A"/>
<path fill-rule="evenodd" clip-rule="evenodd" d="M107.422 12.1111C107.028 11.56 105.766 11.4445 104.776 11.4445C103.077 11.4034 101.434 12.0559 100.225 13.2519L100.009 12.363C99.9351 12.0127 99.6231 11.7641 99.2652 11.7704H98.7437C98.3024 11.7871 97.9486 12.141 97.9319 12.5822V26.1289C97.9382 26.5746 98.298 26.9344 98.7437 26.9408H99.7156C100.157 26.924 100.511 26.5702 100.527 26.1289V15.7882C100.67 15.5778 101.849 13.9482 104.477 13.9482C105.018 13.9642 105.548 14.1009 106.03 14.3482H106.056C106.252 14.4546 106.484 14.4719 106.693 14.3956C106.879 14.3034 107.016 14.1345 107.067 13.9333L107.487 12.7659C107.577 12.5464 107.549 12.2966 107.413 12.1022L107.422 12.1111ZM52.4948 19.3556C52.4948 15.4267 55.0222 11.4474 59.8518 11.4474L59.8607 11.4504C63.843 11.4504 66.7318 14.3541 66.7318 18.3541C66.7268 18.6612 66.705 18.9678 66.6667 19.2726C66.6344 19.6849 66.2921 20.0041 65.8785 20.0074H55.0963C55.2267 22.9141 57.7067 24.9289 59.8844 24.9289C61.3108 24.95 62.7081 24.5253 63.8815 23.7141L63.8849 23.7117C64.162 23.5201 64.4039 23.3528 64.643 23.4C64.8637 23.4725 65.0462 23.6304 65.1496 23.8385L65.5644 24.4311C65.8607 24.8933 65.9793 25.1156 65.3867 25.56C64.32 26.4074 62.3022 27.2963 59.8518 27.2963C55.52 27.2963 52.4948 24.0311 52.4948 19.3556ZM55.1437 17.8948H64.1215C64.0169 15.613 62.1361 13.817 59.8518 13.8178C57.4909 13.8273 55.4906 15.5594 55.1437 17.8948ZM81.5022 12.0696C81.3501 11.8607 81.0987 11.748 80.8415 11.7733H79.8044C79.5019 11.7768 79.2335 11.9684 79.1318 12.2533L74.2667 23.1333L69.6918 12.2593C69.5706 11.9435 69.2556 11.7456 68.9185 11.7733H67.7837C67.5285 11.7501 67.2799 11.8626 67.1289 12.0696C67.009 12.281 67.009 12.5398 67.1289 12.7511L73.443 26.8341C73.5583 27.121 73.8422 27.3039 74.1511 27.2904H74.3467C74.6548 27.3134 74.9414 27.1315 75.0518 26.843L81.4993 12.7482C81.6179 12.5323 81.6179 12.2707 81.4993 12.0548L81.5022 12.0696ZM88.8652 11.4474C84.0356 11.4474 81.5081 15.4267 81.5081 19.3556C81.5081 24.0311 84.5333 27.2963 88.8652 27.2963C91.3156 27.2963 93.3333 26.4074 94.4 25.56C94.9926 25.1156 94.8741 24.8933 94.5778 24.4311L94.163 23.8385C94.0596 23.6304 93.8771 23.4725 93.6563 23.4C93.4173 23.3528 93.1753 23.5201 92.8982 23.7117L92.8948 23.7141C91.719 24.5271 90.3182 24.9519 88.8889 24.9289C86.7111 24.9289 84.2311 22.9141 84.1007 20.0074H94.883C95.2931 19.9995 95.6303 19.6816 95.6622 19.2726C95.7006 18.9678 95.7223 18.6612 95.7274 18.3541C95.7274 14.3541 92.8385 11.4504 88.8563 11.4504L88.8652 11.4474ZM93.1319 17.8948H84.1481C84.4954 15.5572 86.499 13.8244 88.8622 13.8178C91.1465 13.817 93.0273 15.613 93.1319 17.8948ZM120.237 11.7733H119.781C119.333 11.7733 119.147 12.043 118.975 12.3659L118.791 12.9111C117.505 11.9778 115.96 11.4683 114.37 11.4533C110.326 11.4533 107.259 14.8519 107.259 19.3615C107.259 23.8711 110.353 27.3022 114.453 27.3022C115.893 27.2881 117.298 26.8592 118.501 26.0667V26.9556C118.501 30.837 116.281 31.6519 114.421 31.6519C113.188 31.6519 111.979 31.1393 110.729 30.0904C110.555 29.9088 110.31 29.8133 110.059 29.8296C109.873 29.8565 109.707 29.9651 109.609 30.1259L108.963 31.0741C108.778 31.4083 108.85 31.8266 109.138 32.0785C110.636 33.3122 112.507 34.0025 114.447 34.037C118.596 34.037 121.09 31.3704 121.09 26.9259V12.5852C121.06 12.1375 120.695 11.7861 120.246 11.7733H120.237ZM114.794 24.8933C112.006 24.8933 109.905 22.4993 109.905 19.323C109.905 16.6563 111.561 13.8504 114.646 13.8504C116.839 13.8504 118.299 15.3822 118.498 15.6045V23.7111C117.399 24.4361 116.122 24.846 114.806 24.8963L114.794 24.8933ZM133.227 12.1111C132.833 11.56 131.57 11.4445 130.581 11.4445C128.882 11.4042 127.24 12.0567 126.033 13.2519L125.816 12.363C125.742 12.0127 125.43 11.7641 125.073 11.7704H124.554C124.113 11.7871 123.759 12.141 123.742 12.5822V26.1289C123.749 26.5746 124.108 26.9344 124.554 26.9408H125.526C125.967 26.924 126.321 26.5702 126.338 26.1289V15.7882C126.48 15.5778 127.659 13.9482 130.287 13.9482C130.832 13.9624 131.367 14.0991 131.852 14.3482H131.879C132.074 14.4546 132.306 14.4719 132.516 14.3956C132.701 14.303 132.837 14.1343 132.889 13.9333L133.31 12.7659C133.4 12.5465 133.372 12.2964 133.236 12.1022L133.227 12.1111ZM140.548 11.4474C135.719 11.4474 133.191 15.4267 133.191 19.3556C133.191 24.0311 136.216 27.2963 140.548 27.2963C142.999 27.2963 145.016 26.4074 146.083 25.56C146.676 25.1156 146.557 24.8933 146.261 24.4311L145.846 23.8385C145.743 23.6304 145.56 23.4725 145.339 23.4C145.1 23.3528 144.858 23.5201 144.581 23.7117L144.578 23.7141C143.404 24.5253 142.007 24.95 140.581 24.9289C138.403 24.9289 135.923 22.9141 135.793 20.0074H146.575C146.985 19.9995 147.322 19.6816 147.354 19.2726C147.392 18.9678 147.414 18.6612 147.419 18.3541C147.419 14.3541 144.53 11.4504 140.548 11.4504V11.4474ZM144.818 17.8948H135.834C136.181 15.5572 138.185 13.8244 140.548 13.8178C142.832 13.817 144.713 15.613 144.818 17.8948ZM148.963 19.3556C148.963 15.4267 151.49 11.4474 156.32 11.4474V11.4504C160.302 11.4504 163.191 14.3541 163.191 18.3541C163.186 18.6612 163.164 18.9678 163.126 19.2726C163.094 19.6816 162.757 19.9995 162.347 20.0074H151.564C151.695 22.9141 154.175 24.9289 156.353 24.9289C157.779 24.95 159.176 24.5253 160.35 23.7141L160.353 23.7117C160.63 23.5201 160.872 23.3528 161.111 23.4C161.332 23.4725 161.514 23.6304 161.618 23.8385L162.033 24.4311C162.329 24.8933 162.447 25.1156 161.855 25.56C160.788 26.4074 158.77 27.2963 156.32 27.2963C151.988 27.2963 148.963 24.0311 148.963 19.3556ZM151.606 17.8948H160.593C160.488 15.6118 158.605 13.8154 156.32 13.8178C153.957 13.8244 151.953 15.5572 151.606 17.8948ZM172.317 11.4474C172.317 11.4474 172.317 11.4474 172.317 11.4474H172.314C172.315 11.4474 172.316 11.4474 172.317 11.4474ZM172.317 11.4474C170.498 11.458 168.74 12.1047 167.348 13.2756L167.07 12.3037C167.029 11.9691 166.726 11.7304 166.391 11.7704H165.87C165.428 11.7871 165.075 12.141 165.058 12.5822V26.1259C165.07 26.567 165.428 26.9198 165.87 26.9259H166.841C167.283 26.9092 167.637 26.5553 167.653 26.1141V15.8296C167.873 15.5896 169.588 13.8178 172.154 13.8178C174.281 13.8178 175.23 15.077 175.23 17.8978V26.1259C175.242 26.567 175.6 26.9198 176.041 26.9259H177.013C177.455 26.9092 177.808 26.5553 177.825 26.1141V18.2208C177.825 15.0688 177.2 11.4488 172.317 11.4474Z" fill="#706F6F"/>
</svg>
