<svg width="50" height="50" viewBox="0 0 50 50" fill="none" xmlns="http://www.w3.org/2000/svg">
<path fill-rule="evenodd" clip-rule="evenodd" d="M24.9635 2.00001C24.8204 1.99376 13.1207 9.11121 13.1207 9.11121C13.1139 9.11596 13.1113 9.12052 13.1126 9.12492H7.45498V12.5489L7.45492 12.5489L0 17.2364V48.4715C0 48.5447 48.5179 48.4737 49.9669 48.4715L50 48.4715V17.2364L43.1421 12.8721V9.12492H36.7789C36.7788 9.12479 36.7787 9.12466 36.7786 9.12454C36.7284 9.06741 36.6675 9.01629 36.5959 8.97319C36.5959 8.97319 25.0862 2.00536 24.9635 2.00001ZM33.8978 9.12492L33.8918 9.12121L24.9559 3.64651C24.9559 3.64651 18.0676 7.79204 15.8479 9.12492H33.8978ZM25.037 27.539L8.97688 20.6273V10.6468H41.6202V20.4244L25.037 27.539ZM48.0946 17.6466L43.1421 19.7714V14.6632L48.0946 17.6466ZM2.05096 17.6466L7.45498 14.3512V19.9723L2.05096 17.6466ZM1.5188 19.0912L23.5088 28.5255L1.5188 46.105V19.0912ZM24.9569 29.3641L47.1021 46.9436H2.96384L24.9569 29.3641ZM26.4788 28.5288L48.5463 19.0945V46.1083L26.4788 28.5288ZM13.7686 14.7544V16.2763H37.2066C37.2065 16.2763 37.2066 15.1589 37.2066 14.839V14.8104L37.2066 14.7544H13.7686ZM13.7686 20.1587V18.6368H37.2066V20.1587H13.7686Z" fill="#005EB8"/>
</svg>
