<svg xmlns="http://www.w3.org/2000/svg" width="60" height="60" viewBox="0 0 60 60">
    <g fill="none" fill-rule="evenodd">
        <path fill="#5C6373" d="M15.039 28.651a3.35 3.35 0 0 1-3.36-3.344 3.351 3.351 0 0 1 3.36-3.346 3.353 3.353 0 0 1 3.359 3.346 3.352 3.352 0 0 1-3.36 3.344m18.623 29.97c-3.016-1.637-5.068-4.825-5.068-8.478v-2.339a4.477 4.477 0 0 1-3.997-3.979c-.075-.656.024-1.32.232-1.945L29.21 28.72c2.002-7.348 8.445-12.431 15.905-12.9C43.38 7.363 36.24.877 27.445.08 17.692-.786 8 5.373 5.502 14.763L.083 33.357a1.583 1.583 0 0 0 .224 1.445c.307.422.784.667 1.307.667H5.61v7.843c0 4.88 3.99 8.852 8.893 8.852l2.818-.01c.526.017 1.02.19 1.393.551.37.365.58.86.58 1.378v5.916h15.18c0-.573-.307-1.104-.812-1.377"/>
        <path fill="#005EB8" d="M59.926 31.9v.002c.169 1.672.044 3.317-.38 4.922-.146.56-.305 1.114-.42 1.682-.669 3.286-2.898 14.945-2.343 21.494H41.067c.107 0-.073-2.67-.175-2.909-.385-.914-1.695-1.146-2.596-1.146-3.216 0-5.83-2.604-5.83-5.802v-6.171h-3.412a.593.593 0 0 1-.492-.25.589.589 0 0 1-.083-.545s4.43-13.294 4.45-13.367c1.721-6.476 7.857-10.729 14.598-10.125 6.53.593 11.743 5.729 12.399 12.216zm-19.557 7.55a2.863 2.863 0 0 0 2.87-2.854 2.862 2.862 0 0 0-2.87-2.854 2.86 2.86 0 0 0-2.867 2.854 2.861 2.861 0 0 0 2.867 2.854z"/>
    </g>
</svg>
