<svg width="60" height="60" viewBox="0 0 60 60" fill="none" xmlns="http://www.w3.org/2000/svg">
<path fill-rule="evenodd" clip-rule="evenodd" d="M36.4288 9.6416H33.2155V10.7127C33.2155 11.3057 32.735 11.7838 32.1444 11.7838H8.57338C7.98276 11.7838 7.50226 11.3057 7.50226 10.7127V9.6416H4.28662V52.4972C4.28662 52.4972 30.0494 52.4972 30.047 52.4878C29.515 49.2933 31.308 46.5089 32.8173 43.8724C33.9962 41.8123 35.1752 39.7521 36.354 37.6942C36.3704 37.6661 36.429 37.5981 36.429 37.563V9.64198L36.4288 9.6416ZM8.5732 34.2836H17.1442C17.7348 34.2836 18.2153 34.7617 18.2153 35.3547C18.2153 35.9477 17.7349 36.4258 17.1442 36.4258H8.5732C7.98258 36.4258 7.50208 35.9477 7.50208 35.3547C7.50208 34.7617 7.98021 34.2836 8.5732 34.2836ZM8.5732 39.6414H21.4312C22.0218 39.6414 22.5023 40.1196 22.5023 40.7125C22.5023 41.3055 22.0219 41.7837 21.4312 41.7837H8.5732C7.98258 41.7837 7.50208 41.3055 7.50208 40.7125C7.50208 40.1196 7.98021 39.6414 8.5732 39.6414ZM25.7152 47.139H8.5732C7.98258 47.139 7.50208 46.6609 7.50208 46.0679C7.50208 45.4749 7.98255 44.9968 8.5732 44.9968H25.7152C26.3058 44.9968 26.7863 45.4749 26.7863 46.0679C26.7863 46.6609 26.3059 47.139 25.7152 47.139ZM20.3574 31.068C15.6324 31.068 11.7864 27.2219 11.7864 22.497C11.7864 17.7721 15.6325 13.926 20.3574 13.926C25.0823 13.926 28.9284 17.7721 28.9284 22.497C28.9284 27.2244 25.0847 31.068 20.3574 31.068Z" fill="#005EB8"/>
<path fill-rule="evenodd" clip-rule="evenodd" d="M31.3546 56.7844C31.3242 56.7305 31.3031 56.6719 31.2726 56.6157C31.1249 56.3391 30.989 56.0579 30.8671 55.7696C30.8179 55.6571 30.7687 55.5469 30.7242 55.4321C30.6234 55.1719 30.539 54.9071 30.4593 54.6422L3.21572 54.6399C2.6251 54.6399 2.1446 54.1618 2.1446 53.5688V8.56877C2.1446 7.9758 2.62507 7.49765 3.21572 7.49765H7.50242V5.35547H0.553223C0.248537 5.35547 0.00244141 5.60156 0.00244141 5.9086V56.2474C0.00244141 56.5427 0.243845 56.7841 0.539159 56.7841L31.3546 56.7844Z" fill="#5C6373"/>
<path fill-rule="evenodd" clip-rule="evenodd" d="M21.4288 5.35566C21.4288 6.78534 19.2866 6.78534 19.2866 5.35566C19.2866 3.92832 21.4288 3.92832 21.4288 5.35566" fill="#5C6373"/>
<path fill-rule="evenodd" clip-rule="evenodd" d="M20.3582 16.0713C16.8145 16.0713 13.9292 18.9541 13.9292 22.5003C13.9292 26.0465 16.8144 28.9293 20.3582 28.9293C23.9043 28.9293 26.7872 26.0465 26.7872 22.5003C26.7872 18.9541 23.902 16.0713 20.3582 16.0713ZM23.5738 23.5713H21.4317V25.7135C21.4317 26.3064 20.9512 26.7846 20.3605 26.7846C19.7699 26.7846 19.2894 26.3065 19.2894 25.7135V23.5713H17.1472C16.5566 23.5713 16.0761 23.0932 16.0761 22.5002C16.0761 21.9072 16.5566 21.429 17.1472 21.429H19.2894V19.2869C19.2894 18.6939 19.7699 18.2157 20.3605 18.2157C20.9512 18.2157 21.4317 18.6939 21.4317 19.2869V21.429H23.5738C24.1645 21.429 24.645 21.9072 24.645 22.5002C24.645 23.0908 24.1645 23.5713 23.5738 23.5713Z" fill="#005EB8"/>
<path fill-rule="evenodd" clip-rule="evenodd" d="M11.2828 3.2133C10.3782 3.2133 9.64453 3.94926 9.64453 4.8516V9.6399H31.0735V4.8516C31.0735 3.94692 30.3376 3.2133 29.4352 3.2133H26.6931C25.2189 3.2133 23.8102 2.49846 22.9314 1.30314C22.322 0.4758 21.3845 0 20.3626 0C19.3384 0 18.4033 0.475782 17.7939 1.30314C16.9126 2.49846 15.5064 3.2133 14.0322 3.2133H11.2828ZM20.3578 2.14218C22.1297 2.14218 23.5711 3.58356 23.5711 5.35548C23.5711 7.1274 22.1298 8.56878 20.3578 8.56878C18.586 8.56878 17.1445 7.1274 17.1445 5.35548C17.1445 3.58356 18.5859 2.14218 20.3578 2.14218Z" fill="#5C6373"/>
<path fill-rule="evenodd" clip-rule="evenodd" d="M37.5002 7.49745C38.0908 7.49745 38.5713 7.97558 38.5713 8.56857V33.8154L40.7135 30.0701L40.7158 5.90625C40.7158 5.60156 40.4674 5.35547 40.165 5.35547H33.2158V7.49765H37.5025L37.5002 7.49745Z" fill="#5C6373"/>
<path fill-rule="evenodd" clip-rule="evenodd" d="M55.8443 24.6935C53.9318 23.5802 51.7029 23.2779 49.5677 23.8545C47.4185 24.4287 45.6208 25.8185 44.5075 27.7615L42.7169 30.8928L39.4263 36.642L53.8473 44.955L58.884 36.1518C61.1785 32.144 59.8144 27.0042 55.8441 24.693L55.8443 24.6935ZM51.513 27.8552C50.1255 27.8552 48.9419 28.5818 48.1872 29.9037L44.9786 34.8654C44.7747 35.1818 44.4278 35.3552 44.0786 35.3552C43.8794 35.3552 43.6778 35.299 43.4974 35.1841C43.0005 34.8631 42.8575 34.1998 43.181 33.7029L46.3591 28.7904C47.4677 26.8544 49.3568 25.7154 51.5154 25.7154C52.106 25.7154 52.5865 26.1935 52.5865 26.7865C52.5841 27.3771 52.106 27.8552 51.513 27.8552L51.513 27.8552Z" fill="#5C6373"/>
<path fill-rule="evenodd" clip-rule="evenodd" d="M35.8681 58.8328C37.7806 59.9461 40.0095 60.2485 42.1447 59.6719C44.2939 59.0976 46.0916 57.7078 47.2049 55.7648L48.9955 52.6336L52.2861 46.8844L37.8651 38.5714L32.8284 47.3746C30.5339 51.3824 31.898 56.5222 35.8683 58.8334L35.8681 58.8328ZM40.1994 55.6711C41.5869 55.6711 42.7705 54.9446 43.5252 53.6227L46.7338 48.661C46.9377 48.3446 47.2846 48.1711 47.6338 48.1711C47.833 48.1711 48.0346 48.2274 48.215 48.3422C48.7119 48.6633 48.8549 49.3266 48.5314 49.8235L45.3533 54.736C44.2447 56.672 42.3556 57.811 40.197 57.811C39.6064 57.811 39.1259 57.3329 39.1259 56.7399C39.1283 56.1492 39.6064 55.6712 40.1994 55.6712L40.1994 55.6711Z" fill="#5C6373"/>
</svg>
