<svg xmlns="http://www.w3.org/2000/svg" width="86" height="60" viewBox="0 0 86 60">
    <g fill="none" fill-rule="evenodd">
        <path fill="#5C6373" d="M51.432 53.031c.451-1.725 1.35-3.375 2.4-4.725-1.275-4.049-4.726-6.9-9-7.5l-3.976-.6-1.201-3.525c.225-.226.524-.375.826-.525 3.9-.6 8.1-1.423 10.726-2.85.451-.3.6-.9.299-1.5-1.275-2.1-2.25-5.326-2.924-7.577.375-.826.674-1.875.674-3.225 0-2.775-.451-4.424-1.35-5.327-.226-.225-.376-.375-.601-.45C46.555 6.6 39.805 0 31.329 0c-8.473-.07-15.223 6.53-15.973 15.155-.226.15-.375.225-.6.451-.976.976-1.424 2.625-1.424 5.4 0 1.35.298 2.399.673 3.225-.6 2.25-1.649 5.476-2.923 7.576-.226.525-.15 1.202.299 1.5 2.548 1.424 6.826 2.25 10.725 2.851l.75.524-1.2 3.525-3.977.524c-4.5.6-8.1 3.75-9.225 8.174L6.807 55.28c-.15.75 0 1.424.375 2.024.375.525 1.049.826 1.799.826h39.75c-.15-.45-.226-.899-.226-1.35 0-1.875 1.275-3.299 2.927-3.75zm-26.25-15.076c1.875.9 3.976 1.424 6.15 1.424 2.1 0 4.2-.525 6.076-1.35l1.2 3.524a12.5 12.5 0 0 1-14.627.003l1.201-3.601zm6.524-4.726c-6.076 0-11.326-4.725-12.6-11.173-.077-.451-.452-.9-.976-.976-.15 0-1.799-.524-1.799-3.673 0-2.625.451-3.3.674-3.525 0 0 .15 0 .15-.076.45.976 1.2 2.4 1.423 4.049 2.55-3.6 2.775-7.275 3.077-10.274l.899 2.326c.15.375.524.674.976.674h16.277c.45 0 .826-.226.975-.674l.9-2.326c.375 3 .524 6.673 3.076 10.274.226-1.576.9-3 1.35-3.976.077 0 .226 0 .3.076.149.15.6.827.6 3.452 0 3.076-1.576 3.6-1.726 3.673-.524.15-.899.525-.975.976-1.201 6.451-6.451 11.173-12.601 11.173z"/>
        <path fill="#005EB8" d="M76.63 55.358h-1.125c-.6-5.025-4.576-9-9.673-9.674V43.66h1.649c.75 0 1.35-.6 1.35-1.35 0-.75-.6-1.351-1.35-1.351h-6c-.75 0-1.35.6-1.35 1.35 0 .75.6 1.351 1.35 1.351h1.65v2.024c-5.025.601-9 4.577-9.674 9.674h-1.125c-.75 0-1.35.6-1.35 1.35 0 .75.6 1.351 1.35 1.351h24.375c.75 0 1.35-.6 1.35-1.35-.076-.677-.676-1.351-1.426-1.351zM64.404 37.056c.75 0 1.35-.601 1.35-1.351v-3.9c0-.75-.6-1.35-1.35-1.35-.75 0-1.35.6-1.35 1.35v3.9c.003.75.6 1.35 1.35 1.35zM58.557 38.705c.3.299.6.375.976.375.375 0 .674-.15.976-.375.524-.525.524-1.424 0-1.951l-2.775-2.775c-.524-.524-1.424-.524-1.951 0-.525.525-.525 1.424 0 1.951l2.774 2.775zM69.356 39.156c.375 0 .674-.149.975-.375l2.775-2.774c.524-.524.524-1.424 0-1.951-.525-.525-1.424-.525-1.951 0L68.38 36.83c-.524.525-.524 1.424 0 1.951.302.226.6.375.976.375z"/>
        <path fill="#005EB8" d="M0 57h85.5v3H0z"/>
    </g>
</svg>
