<svg width="50" height="50" viewBox="0 0 50 50" fill="none" xmlns="http://www.w3.org/2000/svg">
<path fill-rule="evenodd" clip-rule="evenodd" d="M3.72701 0C1.66456 0 0 1.66671 0 3.72916V46.2708C0 48.3333 1.66241 50 3.72701 50H46.2704C48.3328 50 49.9974 48.3333 49.9974 46.2708V3.72916C49.9974 1.66671 48.3349 0 46.2704 0H3.72701ZM3.72899 1.40437H46.2703C47.5435 1.40437 48.593 2.45384 48.593 3.72706V12.1985H1.40629V3.72706C1.40629 2.4539 2.45577 1.40437 3.72899 1.40437ZM7.40246 6.04971C6.69524 6.04971 6.14864 6.59254 6.14864 7.29971C6.14864 8.00309 6.69148 8.54971 7.40246 8.54971C8.10967 8.54971 8.65246 8.0107 8.65246 7.29971C8.65246 6.58872 8.11345 6.04971 7.40246 6.04971ZM13.4481 6.04971C12.7409 6.04971 12.1981 6.58872 12.1981 7.29971C12.1981 8.0107 12.7371 8.54971 13.4481 8.54971C14.1553 8.54971 14.6981 8.0107 14.6981 7.29971C14.6981 6.58872 14.1591 6.04971 13.4481 6.04971ZM19.4955 6.04971C18.7883 6.04971 18.2455 6.58872 18.2455 7.29971C18.2455 8.0107 18.7845 8.54971 19.4955 8.54971C20.2027 8.54971 20.7455 8.0107 20.7455 7.29971C20.7455 6.58872 20.2065 6.04971 19.4955 6.04971ZM1.40624 13.6028H48.593V46.2708C48.593 47.544 47.5435 48.5935 46.2703 48.5935H3.72695C2.45378 48.5935 1.40425 47.544 1.40425 46.2708V14.4138L1.40624 13.6028ZM24.5 18C17.6065 18 12 23.6063 12 30.5C12 37.3935 17.6063 43 24.5 43C31.3937 43 37 37.3937 37 30.5C37 23.6065 31.3937 18 24.5 18ZM34.6086 26.1259C34.1853 25.7843 33.7076 25.4626 33.178 25.1656C32.47 24.7671 31.6928 24.423 30.8612 24.1359C30.5741 23.3042 30.2325 22.527 29.8315 21.8191C29.5345 21.2894 29.2127 20.8142 28.8712 20.3885C31.4355 21.5048 33.4948 23.5641 34.6087 26.126L34.6086 26.1259ZM24.5 41.5141C22.6857 41.5141 21.0298 39.8805 19.9407 37.3731C21.3738 37.6998 22.9159 37.8706 24.5 37.8706C26.0841 37.8706 27.6262 37.6998 29.0593 37.3731C27.9702 39.8804 26.3143 41.5141 24.5 41.5141ZM24.5 36.3855C22.6461 36.3855 20.8813 36.1256 19.3293 35.6701C18.8763 34.1182 18.614 32.3534 18.614 30.4994C18.614 28.6455 18.8739 26.8807 19.3293 25.3287C20.8812 24.8758 22.6461 24.6134 24.5 24.6134C26.3539 24.6134 28.1187 24.8733 29.6707 25.3287C30.1237 26.8807 30.386 28.6455 30.386 30.4994C30.386 32.3534 30.1261 34.1181 29.6707 35.6701C28.1188 36.1256 26.3539 36.3855 24.5 36.3855ZM17.6262 35.0587C15.1188 33.9696 13.4851 32.3138 13.4851 30.4994C13.4851 28.6851 15.1188 27.0292 17.6262 25.9401C17.2994 27.3733 17.1287 28.9153 17.1287 30.4994C17.1287 32.0836 17.3019 33.6256 17.6262 35.0587ZM24.5 19.4849C26.3143 19.4849 27.9702 21.1185 29.0593 23.6259C27.6262 23.2992 26.0841 23.1284 24.5 23.1284C22.9159 23.1284 21.3738 23.2992 19.9407 23.6259C21.0298 21.1186 22.6857 19.4849 24.5 19.4849ZM31.3738 25.9405C33.8812 27.0296 35.5149 28.6855 35.5149 30.4998C35.5149 32.3141 33.8812 33.9701 31.3738 35.0591C31.7006 33.626 31.8713 32.0839 31.8713 30.4998C31.8713 28.9157 31.6981 27.3736 31.3738 25.9405ZM20.1266 20.3911C19.785 20.8144 19.4632 21.2921 19.1662 21.8218C18.7677 22.5297 18.4236 23.3069 18.1365 24.1385C17.3048 24.4257 16.5276 24.7697 15.8198 25.1682C15.2901 25.4652 14.8149 25.787 14.3891 26.1286C15.5054 23.5643 17.5648 21.5049 20.1266 20.3911L20.1266 20.3911ZM14.3915 34.8732C14.8148 35.2148 15.2925 35.5366 15.8222 35.8336C16.5301 36.2321 17.3073 36.5761 18.1389 36.8632C18.426 37.6949 18.7676 38.4721 19.1686 39.18C19.4656 39.7097 19.7874 40.1849 20.129 40.6106C17.5646 39.4943 15.5053 37.435 14.3915 34.8731L14.3915 34.8732ZM28.8736 40.6082C29.2151 40.185 29.5369 39.7072 29.8339 39.1776C30.2324 38.4697 30.5765 37.6924 30.8636 36.8608C31.6953 36.5737 32.4725 36.2297 33.1804 35.8311C33.7101 35.5341 34.1853 35.2123 34.611 34.8708C33.4947 37.4351 31.4354 39.4945 28.8735 40.6083L28.8736 40.6082ZM37.2424 37.0069L44.8184 39.1457L44.8183 39.1458C44.8905 39.1642 44.9266 39.218 44.9443 39.3086C44.962 39.3993 44.9075 39.4538 44.8353 39.4899L40.9571 40.9582L39.435 44.891C39.4173 44.9455 39.3443 45 39.2721 45H39.2537C39.1815 45 39.1093 44.9455 39.0909 44.8733L37.0066 37.2427C36.9889 37.1705 37.0066 37.1159 37.0611 37.0614C37.1156 37.0069 37.1879 36.9885 37.2424 37.0069Z" fill="#005EB8"/>
</svg>
