<svg width="92" height="60" viewBox="0 0 92 60" fill="none" xmlns="http://www.w3.org/2000/svg">
<path fill-rule="evenodd" clip-rule="evenodd" d="M60.7139 15C60.7139 23.2852 53.9991 30 45.7139 30C37.4287 30 30.7139 23.2852 30.7139 15C30.7139 6.7148 37.4287 0 45.7139 0C53.9991 0 60.7139 6.7148 60.7139 15Z" fill="#005EB8"/>
<path fill-rule="evenodd" clip-rule="evenodd" d="M20.7139 60C20.7139 46 31.7139 35 45.7139 35C59.7139 35 70.7139 46 70.7139 60H20.7139Z" fill="#005EB8"/>
<path fill-rule="evenodd" clip-rule="evenodd" d="M82.2861 25C82.2861 30.5234 77.8095 35 72.2861 35C66.7627 35 62.2861 30.5234 62.2861 25C62.2861 19.4766 66.7627 15 72.2861 15C77.8095 15 82.2861 19.4766 82.2861 25Z" fill="#5C6373"/>
<path fill-rule="evenodd" clip-rule="evenodd" d="M91.4287 60.0001H76.4287C76.4287 52.5001 73.9287 45.5001 70.4287 40.0001C79.9287 39.0001 91.4287 47.5001 91.4287 60.0001Z" fill="#5C6373"/>
<path fill-rule="evenodd" clip-rule="evenodd" d="M29.1426 25C29.1426 30.5234 24.666 35 19.1426 35C13.6192 35 9.14258 30.5234 9.14258 25C9.14258 19.4766 13.6192 15 19.1426 15C24.666 15 29.1426 19.4766 29.1426 25Z" fill="#5C6373"/>
<path fill-rule="evenodd" clip-rule="evenodd" d="M0 60.0001H15C15 52.5001 17.5 45.5001 21.5 40.0001C11.5 39.0001 0 47.5001 0 60.0001Z" fill="#5C6373"/>
<path fill-rule="evenodd" clip-rule="evenodd" d="M50.9531 48.3812H47.6192V45.0473C47.6192 44.2469 47.0865 43.7142 46.2861 43.7142C45.4858 43.7142 44.9531 44.247 44.9531 45.0473V48.3812H41.6192C40.8188 48.3812 40.2861 48.9139 40.2861 49.7142C40.2861 50.5146 40.8189 51.0473 41.6192 51.0473H44.9531V54.3812C44.9531 55.1815 45.4858 55.7142 46.2861 55.7142C47.0865 55.7142 47.6192 55.1815 47.6192 54.3812V51.0473H50.9531C51.7534 51.0473 52.2861 50.5146 52.2861 49.7142C52.2886 48.9139 51.6208 48.3812 50.9531 48.3812Z" fill="white"/>
</svg>
