<svg xmlns="http://www.w3.org/2000/svg" width="20" height="20" viewBox="0 0 20 20">
    <g fill="none" fill-rule="evenodd">
        <path d="M0 0h20v20H0z"/>
        <path fill="#005EB8" d="M10 1c-4.963 0-9 4.037-9 9s4.037 9 9 9 9-4.037 9-9-4.037-9-9-9zm0 1.2c4.315 0 7.8 3.485 7.8 7.8 0 4.315-3.485 7.8-7.8 7.8A7.791 7.791 0 0 1 2.2 10c0-4.315 3.485-7.8 7.8-7.8zm4.731 3.794a.601.601 0 0 0-.356.181L8 12.55l-2.375-2.375a.598.598 0 0 0-.875-.031.603.603 0 0 0 .025.875l2.8 2.8a.599.599 0 0 0 .85 0l6.8-6.8a.6.6 0 0 0-.494-1.025z"/>
    </g>
</svg>
