<svg xmlns="http://www.w3.org/2000/svg" width="20" height="20" viewBox="0 0 20 20">
    <g fill="none" fill-rule="evenodd">
        <path d="M0 0h20v20H0z"/>
        <path fill="#005EB8" d="M16.325 3.65c1.6 1.6 2.475 3.7 2.498 5.975a8.34 8.34 0 0 1-2.475 5.95 8.343 8.343 0 0 1-7.85 2.25l-.375.75a.482.482 0 0 1-.825.075l-1.8-2.5a.487.487 0 0 1 .375-.775l3.075-.1a.477.477 0 0 1 .45.7l-.35.7a7.66 7.66 0 0 0 1.326.126c3.95 0 7.175-3.225 7.175-7.175 0-3.95-3.225-7.175-7.175-7.175-1.375 0-2.7.4-3.85 1.125-.3.175-.7.1-.875-.2-.175-.3-.1-.7.2-.875a8.257 8.257 0 0 1 4.526-1.325c2.25 0 4.35.875 5.95 2.474zm-5.95-.45c.35 0 .625.275.625.625l.004 5.408 3.05 2.3c.275.2.325.599.125.874a.584.584 0 0 1-.5.25.742.742 0 0 1-.375-.125l-3.3-2.474-.026-.026-.05-.05-.026-.026c-.025 0-.025-.025-.025-.025l-.025-.026c-.026 0-.026-.025-.026-.025-.025 0-.025-.025-.025-.025-.026 0-.026-.026-.026-.026-.025 0-.025-.025-.025-.025V3.825a.62.62 0 0 1 .625-.625zM3.959 5.201c.692.4.093 1.439-.6 1.04-.693-.401-.093-1.44.6-1.04zM3.2 9.6c0 .8-1.2.8-1.2 0s1.2-.8 1.2 0zm.964 3.576c.4.693-.638 1.293-1.039.6-.4-.693.639-1.293 1.04-.6z"/>
    </g>
</svg>
