<svg width="73" height="71" viewBox="0 0 73 71" fill="none" xmlns="http://www.w3.org/2000/svg">
<path fill-rule="evenodd" clip-rule="evenodd" d="M64.5001 16.6301C65.105 16.9975 65.71 17.1168 66.4379 17.1168C68.735 17.1168 70.5499 15.2847 70.5499 12.9659C70.5499 10.6472 68.8532 8.81508 66.556 8.81508C64.2589 8.81508 62.4441 10.6472 62.4441 12.9659C62.4441 13.5766 62.567 14.3114 62.9262 14.798L61.5933 16.1436C56.5123 11.6253 49.9756 8.81508 42.7153 8.57178V3.44282H47.0731C47.801 3.44282 48.2831 2.95616 48.2831 2.22141C48.2831 1.48666 47.801 1 47.0731 1H36.0604C35.3325 1 34.8504 1.48666 34.8504 2.22141C34.8504 2.95616 35.3325 3.44282 36.0604 3.44282H40.2953V8.57178C32.3076 8.93915 24.9299 12.236 19.3616 18.219C18.8795 18.7056 18.8795 19.4404 19.3616 19.927C19.8437 20.4137 20.5715 20.4137 21.0536 19.927C26.4985 14.1873 33.7583 11.0097 41.4997 11.0097C48.8825 11.0097 55.6552 13.9391 60.7359 18.7056C66.1808 23.8345 69.5696 31.1628 69.5696 39.2265C69.5696 54.8618 56.9883 67.5621 41.4995 67.5621C33.9986 67.5621 26.9798 64.6326 21.6583 59.2555C21.1762 58.7688 20.4484 58.7688 19.9663 59.2555C19.4842 59.7421 19.4842 60.4769 19.9663 60.9635C25.7752 66.8273 33.3994 70 41.5051 70C58.3261 70.0095 72 56.2066 72 39.2265C72 30.9247 68.734 23.3482 63.2892 17.8518L64.5001 16.6301ZM68.2481 12.9659C68.2481 13.944 67.5202 14.6739 66.556 14.6739C66.1921 14.6739 65.8282 14.5499 65.469 14.3065C65.469 14.1825 65.2232 13.9391 65.105 13.9391C64.864 13.6958 64.864 13.3284 64.864 12.9611C64.864 11.9925 65.5871 11.2578 66.556 11.2578C67.525 11.2579 68.2481 11.9926 68.2481 12.9659ZM2.24346 29H23.7565C24.5046 29 25 28.6016 25 28C25 27.3984 24.5046 27 23.7565 27H2.24346C1.49544 27 1 27.3984 1 28C1 28.5977 1.50029 29 2.24346 29ZM51.9314 27.3639C52.4202 26.8787 53.1582 26.8787 53.6471 27.3639L53.6471 27.3639C54.136 27.8538 54.136 28.5816 53.5273 29.1952L46.7797 35.8924C47.6375 36.8675 48.0065 38.204 48.0065 39.5454C48.0065 41.2482 47.2685 42.8321 46.0416 44.0498C44.8148 45.2675 43.2189 46 41.5033 46C39.7876 46 38.1918 45.2674 36.9649 44.0498C35.738 42.8321 35 41.2482 35 39.5454C35 37.8426 35.7381 36.2587 36.9649 35.041C38.1918 33.8233 39.7876 33.0908 41.5033 33.0908C42.8498 33.0908 43.9569 33.4523 45.0592 34.1848L51.9314 27.3639ZM38.6805 42.3424C40.2764 43.8026 42.9745 43.8026 44.4457 42.3424C45.179 41.6146 45.548 40.6396 45.6726 39.5408C45.6726 38.5657 45.1838 37.4717 44.4457 36.7392C42.8498 35.279 40.1518 35.279 38.6805 36.7392C37.8227 37.4717 37.4537 38.4468 37.4537 39.5408C37.4537 40.5159 37.9425 41.6099 38.6805 42.3424ZM8.24346 40C7.49544 40 7 39.6016 7 39C7 38.3984 7.49544 38 8.24346 38H29.7565C30.5046 38 31 38.3984 31 39C31 39.6016 30.5046 40 29.7565 40H8.24346ZM23.7565 48C24.5046 48 25 48.3984 25 49C25 49.6016 24.5046 50 23.7565 50H2.24346C1.49544 50 1 49.6016 1 49C1 48.3984 1.49544 48 2.24346 48H23.7565ZM26.9458 60.5081C26.337 60.1477 26.2134 59.4172 26.5796 58.8101L26.5795 58.8099C26.9458 58.3261 27.6782 58.2027 28.4058 58.5585C32.177 61.2289 36.6857 62.5666 41.4322 62.5666C54.2162 62.5666 64.5652 52.2452 64.5652 39.4952C64.5652 26.7452 54.2162 16.4237 41.4322 16.4237C36.5616 16.4237 31.8103 17.8848 27.9152 20.7971C27.3065 21.1623 26.5788 21.039 26.2126 20.5552C25.8464 20.0714 25.97 19.2224 26.4551 18.8571C30.8404 15.6981 36.0768 14 41.4319 14C55.5572 14 67 25.4119 67 39.5C67 53.5877 55.5577 65 41.4319 65C36.201 65 31.2071 63.4205 26.9458 60.5081Z" fill="#005EB8"/>
<path d="M64.5001 16.6301L64.6298 16.4164L64.4613 16.3141L64.3225 16.4541L64.5001 16.6301ZM62.9262 14.798L63.1038 14.974L63.2545 14.8219L63.1273 14.6496L62.9262 14.798ZM61.5933 16.1436L61.4271 16.3304L61.6042 16.4878L61.7709 16.3195L61.5933 16.1436ZM42.7153 8.57178H42.4653V8.81354L42.7069 8.82164L42.7153 8.57178ZM42.7153 3.44282V3.19282H42.4653V3.44282H42.7153ZM40.2953 3.44282H40.5453V3.19282H40.2953V3.44282ZM40.2953 8.57178L40.3068 8.82151L40.5453 8.81054V8.57178H40.2953ZM19.3616 18.219L19.5393 18.395L19.5446 18.3893L19.3616 18.219ZM19.3616 19.927L19.5392 19.7511L19.5392 19.751L19.3616 19.927ZM21.0536 19.927L21.2313 20.103L21.235 20.0991L21.0536 19.927ZM60.7359 18.7056L60.9073 18.5236L60.9069 18.5233L60.7359 18.7056ZM21.6583 59.2555L21.836 59.0796L21.836 59.0795L21.6583 59.2555ZM19.9663 59.2555L20.1439 59.4314L20.1439 59.4314L19.9663 59.2555ZM19.9663 60.9635L20.1439 60.7876L20.1439 60.7875L19.9663 60.9635ZM41.5051 70L41.5052 69.75H41.5051V70ZM63.2892 17.8518L63.1116 17.6758L62.9372 17.8518L63.1116 18.0278L63.2892 17.8518ZM65.469 14.3065H65.219V14.4391L65.3287 14.5135L65.469 14.3065ZM65.105 13.9391L64.9274 14.1151L65.0008 14.1891H65.105V13.9391ZM66.556 11.2578L66.556 11.0078H66.556V11.2578ZM53.6471 27.3639L53.8383 27.2028L53.8311 27.1943L53.8232 27.1864L53.6471 27.3639ZM51.9314 27.3639L52.1076 27.5413L52.1076 27.5413L51.9314 27.3639ZM53.6471 27.3639L53.4559 27.525L53.4627 27.5331L53.4702 27.5405L53.6471 27.3639ZM53.5273 29.1952L53.7034 29.3726L53.7048 29.3713L53.5273 29.1952ZM46.7797 35.8924L46.6036 35.7149L46.4365 35.8808L46.592 36.0575L46.7797 35.8924ZM36.9649 35.041L37.141 35.2184L37.141 35.2184L36.9649 35.041ZM45.0592 34.1848L44.9208 34.393L45.0906 34.5058L45.2353 34.3622L45.0592 34.1848ZM44.4457 42.3424L44.6218 42.5199L44.6218 42.5198L44.4457 42.3424ZM38.6805 42.3424L38.5043 42.52L38.5118 42.5269L38.6805 42.3424ZM45.6726 39.5408L45.921 39.569L45.9226 39.5549V39.5408H45.6726ZM44.4457 36.7392L44.622 36.5616L44.6145 36.5548L44.4457 36.7392ZM38.6805 36.7392L38.8429 36.9293L38.85 36.9232L38.8566 36.9166L38.6805 36.7392ZM26.5796 58.8101L26.7937 58.9392L26.8481 58.849L26.8215 58.7471L26.5796 58.8101ZM26.9458 60.5081L27.0869 60.3017L27.0802 60.2971L27.0732 60.293L26.9458 60.5081ZM26.5795 58.8099L26.3802 58.659L26.3071 58.7556L26.3376 58.8729L26.5795 58.8099ZM28.4058 58.5585L28.5503 58.3545L28.5338 58.3428L28.5156 58.3339L28.4058 58.5585ZM27.9152 20.7971L28.0438 21.0115L28.0547 21.0049L28.0649 20.9973L27.9152 20.7971ZM26.2126 20.5552L26.4119 20.4043L26.4119 20.4043L26.2126 20.5552ZM26.4551 18.8571L26.309 18.6543L26.3048 18.6574L26.4551 18.8571ZM66.4379 16.8668C65.7414 16.8668 65.185 16.7535 64.6298 16.4164L64.3703 16.8438C65.0251 17.2414 65.6787 17.3668 66.4379 17.3668V16.8668ZM70.2999 12.9659C70.2999 15.1488 68.5947 16.8668 66.4379 16.8668V17.3668C68.8752 17.3668 70.7999 15.4205 70.7999 12.9659H70.2999ZM66.556 9.06508C68.7034 9.06508 70.2999 10.7733 70.2999 12.9659H70.7999C70.7999 10.5211 69.0029 8.56508 66.556 8.56508V9.06508ZM62.6941 12.9659C62.6941 10.783 64.3992 9.06508 66.556 9.06508V8.56508C64.1186 8.56508 62.1941 10.5114 62.1941 12.9659H62.6941ZM63.1273 14.6496C62.8155 14.2271 62.6941 13.5575 62.6941 12.9659H62.1941C62.1941 13.5958 62.3184 14.3957 62.725 14.9465L63.1273 14.6496ZM61.7709 16.3195L63.1038 14.974L62.7486 14.6221L61.4157 15.9676L61.7709 16.3195ZM42.7069 8.82164C49.9062 9.0629 56.3878 11.8491 61.4271 16.3304L61.7594 15.9567C56.6369 11.4015 50.045 8.56727 42.7236 8.32192L42.7069 8.82164ZM42.4653 3.44282V8.57178H42.9653V3.44282H42.4653ZM47.0731 3.19282H42.7153V3.69282H47.0731V3.19282ZM48.0331 2.22141C48.0331 2.53309 47.9319 2.77179 47.7734 2.93171C47.6152 3.09141 47.3799 3.19282 47.0731 3.19282V3.69282C47.4941 3.69282 47.8638 3.55091 48.1286 3.28359C48.3932 3.01649 48.5331 2.64449 48.5331 2.22141H48.0331ZM47.0731 1.25C47.3799 1.25 47.6152 1.35141 47.7734 1.51112C47.9319 1.67103 48.0331 1.90974 48.0331 2.22141H48.5331C48.5331 1.79833 48.3932 1.42633 48.1286 1.15923C47.8638 0.891916 47.4941 0.75 47.0731 0.75V1.25ZM36.0604 1.25H47.0731V0.75H36.0604V1.25ZM35.1004 2.22141C35.1004 1.90974 35.2017 1.67103 35.3601 1.51112C35.5183 1.35141 35.7536 1.25 36.0604 1.25V0.75C35.6394 0.75 35.2697 0.891916 35.0049 1.15923C34.7403 1.42633 34.6004 1.79833 34.6004 2.22141H35.1004ZM36.0604 3.19282C35.7536 3.19282 35.5183 3.09141 35.3601 2.93171C35.2017 2.77179 35.1004 2.53309 35.1004 2.22141H34.6004C34.6004 2.64449 34.7403 3.01649 35.0049 3.28359C35.2697 3.55091 35.6394 3.69282 36.0604 3.69282V3.19282ZM40.2953 3.19282H36.0604V3.69282H40.2953V3.19282ZM40.5453 8.57178V3.44282H40.0453V8.57178H40.5453ZM19.5446 18.3893C25.0671 12.4555 32.3827 9.18596 40.3068 8.82151L40.2838 8.32204C32.2324 8.69234 24.7926 12.0165 19.1786 18.0487L19.5446 18.3893ZM19.5392 19.751C19.1536 19.3619 19.1536 18.7841 19.5392 18.3949L19.184 18.043C18.6053 18.6271 18.6053 19.5189 19.184 20.1029L19.5392 19.751ZM20.876 19.7511C20.4918 20.139 19.9235 20.139 19.5392 19.7511L19.184 20.1029C19.7639 20.6883 20.6513 20.6883 21.2312 20.1029L20.876 19.7511ZM41.4997 10.7597C33.6877 10.7597 26.3629 13.967 20.8722 19.7549L21.235 20.0991C26.6341 14.4076 33.829 11.2597 41.4997 11.2597V10.7597ZM60.9069 18.5233C55.7828 13.7161 48.95 10.7597 41.4997 10.7597V11.2597C48.815 11.2597 55.5276 14.1622 60.5648 18.8879L60.9069 18.5233ZM69.8196 39.2265C69.8196 31.0917 66.4007 23.6983 60.9073 18.5236L60.5645 18.8876C65.9608 23.9708 69.3196 31.2338 69.3196 39.2265H69.8196ZM41.4995 67.8121C57.1286 67.8121 69.8196 54.9977 69.8196 39.2265H69.3196C69.3196 54.726 56.8481 67.3121 41.4995 67.3121V67.8121ZM21.4807 59.4313C26.8488 64.8557 33.9315 67.8121 41.4995 67.8121V67.3121C34.0657 67.3121 27.1108 64.4095 21.836 59.0796L21.4807 59.4313ZM20.1439 59.4314C20.5282 59.0435 21.0965 59.0435 21.4807 59.4314L21.836 59.0795C21.256 58.4941 20.3686 58.4941 19.7887 59.0795L20.1439 59.4314ZM20.1439 60.7875C19.7584 60.3984 19.7583 59.8206 20.1439 59.4314L19.7887 59.0795C19.2101 59.6636 19.2101 60.5554 19.7887 61.1395L20.1439 60.7875ZM41.5051 69.75C33.4667 69.75 25.9062 66.6043 20.1439 60.7876L19.7887 61.1394C25.6441 67.0502 33.3322 70.25 41.5051 70.25V69.75ZM71.75 39.2265C71.75 56.0708 58.1858 69.7594 41.5052 69.75L41.5049 70.25C58.4664 70.2596 72.25 56.3424 72.25 39.2265H71.75ZM63.1116 18.0278C68.5105 23.4778 71.75 30.9913 71.75 39.2265H72.25C72.25 30.8581 68.9575 23.2186 63.4668 17.6759L63.1116 18.0278ZM64.3225 16.4541L63.1116 17.6758L63.4667 18.0278L64.6776 16.8061L64.3225 16.4541ZM66.556 14.9239C67.66 14.9239 68.4981 14.0803 68.4981 12.9659H67.9981C67.9981 13.8076 67.3804 14.4239 66.556 14.4239V14.9239ZM65.3287 14.5135C65.7206 14.779 66.1325 14.9239 66.556 14.9239V14.4239C66.2517 14.4239 65.9357 14.3207 65.6092 14.0995L65.3287 14.5135ZM65.105 14.1891C65.0913 14.1891 65.081 14.1874 65.0752 14.1861C65.0692 14.1848 65.0659 14.1836 65.0653 14.1833C65.0646 14.1831 65.0693 14.1849 65.0794 14.1912C65.0997 14.2039 65.1268 14.2253 65.1544 14.253C65.182 14.2806 65.2034 14.3077 65.2161 14.3283C65.2223 14.3384 65.2242 14.3433 65.2241 14.343C65.2239 14.3425 65.2228 14.3395 65.2216 14.334C65.2205 14.3286 65.219 14.3192 65.219 14.3065H65.719C65.719 14.2048 65.6736 14.1174 65.6414 14.0653C65.6043 14.0054 65.5569 13.9484 65.5082 13.8997C65.4596 13.851 65.4031 13.8038 65.3441 13.767C65.2939 13.7357 65.2068 13.6891 65.105 13.6891V14.1891ZM64.614 12.9611C64.614 13.1398 64.6132 13.3466 64.648 13.5407C64.6837 13.7396 64.7596 13.9457 64.9274 14.1151L65.2826 13.7632C65.2094 13.6892 65.1648 13.59 65.1402 13.4525C65.1147 13.3103 65.114 13.1497 65.114 12.9611H64.614ZM66.556 11.0078C65.4468 11.0078 64.614 11.8567 64.614 12.9611H65.114C65.114 12.1284 65.7274 11.5078 66.556 11.5078V11.0078ZM68.4981 12.9659C68.4981 11.8572 67.6657 11.0079 66.556 11.0078L66.556 11.5078C67.3842 11.5078 67.9981 12.128 67.9981 12.9659H68.4981ZM23.7565 28.75H2.24346V29.25H23.7565V28.75ZM24.75 28C24.75 28.2258 24.6599 28.4039 24.5021 28.5308C24.3394 28.6616 24.0883 28.75 23.7565 28.75V29.25C24.1728 29.25 24.5434 29.1392 24.8154 28.9204C25.0924 28.6977 25.25 28.3758 25.25 28H24.75ZM23.7565 27.25C24.0883 27.25 24.3394 27.3384 24.5021 27.4692C24.6599 27.5961 24.75 27.7742 24.75 28H25.25C25.25 27.6242 25.0924 27.3023 24.8154 27.0796C24.5434 26.8608 24.1728 26.75 23.7565 26.75V27.25ZM2.24346 27.25H23.7565V26.75H2.24346V27.25ZM1.25 28C1.25 27.7742 1.34009 27.5961 1.4979 27.4692C1.66057 27.3384 1.91167 27.25 2.24346 27.25V26.75C1.82723 26.75 1.45661 26.8608 1.18455 27.0796C0.907636 27.3023 0.75 27.6242 0.75 28H1.25ZM2.24346 28.75C1.91498 28.75 1.66355 28.6611 1.49972 28.5293C1.3404 28.4012 1.25 28.2227 1.25 28H0.75C0.75 28.375 0.909745 28.6965 1.18637 28.9189C1.45848 29.1378 1.82877 29.25 2.24346 29.25V28.75ZM53.8232 27.1864C53.2369 26.6045 52.3416 26.6045 51.7553 27.1864L52.1076 27.5413C52.4989 27.1529 53.0796 27.1529 53.471 27.5413L53.8232 27.1864ZM53.8384 27.2029L53.8383 27.2028L53.4558 27.5249L53.4559 27.525L53.8384 27.2029ZM53.7048 29.3713C54.0438 29.0295 54.2301 28.6382 54.2485 28.2449C54.267 27.8494 54.1142 27.4781 53.8241 27.1874L53.4702 27.5405C53.6689 27.7396 53.7605 27.9772 53.749 28.2215C53.7375 28.4679 53.6195 28.7473 53.3498 29.0191L53.7048 29.3713ZM46.9558 36.0698L53.7034 29.3726L53.3512 29.0178L46.6036 35.7149L46.9558 36.0698ZM48.2565 39.5454C48.2565 38.1627 47.8766 36.7608 46.9674 35.7272L46.592 36.0575C47.3984 36.9742 47.7565 38.2453 47.7565 39.5454H48.2565ZM46.2177 44.2272C47.4857 42.9686 48.2565 41.323 48.2565 39.5454H47.7565C47.7565 41.1734 47.0512 42.6955 45.8655 43.8723L46.2177 44.2272ZM41.5033 46.25C43.2924 46.25 44.9497 45.4858 46.2177 44.2272L45.8655 43.8723C44.6798 45.0492 43.1454 45.75 41.5033 45.75V46.25ZM36.7888 44.2272C38.0569 45.4858 39.7141 46.25 41.5033 46.25V45.75C39.8612 45.75 38.3267 45.0491 37.141 43.8723L36.7888 44.2272ZM34.75 39.5454C34.75 41.323 35.5207 42.9687 36.7888 44.2272L37.141 43.8723C35.9553 42.6955 35.25 41.1734 35.25 39.5454H34.75ZM36.7888 34.8635C35.5208 36.1221 34.75 37.7678 34.75 39.5454H35.25C35.25 37.9174 35.9553 36.3953 37.141 35.2184L36.7888 34.8635ZM41.5033 32.8408C39.7141 32.8408 38.0568 33.6049 36.7888 34.8635L37.141 35.2184C38.3267 34.0416 39.8611 33.3408 41.5033 33.3408V32.8408ZM45.1975 33.9766C44.057 33.2186 42.9023 32.8408 41.5033 32.8408V33.3408C42.7974 33.3408 43.8568 33.6859 44.9208 34.393L45.1975 33.9766ZM51.7553 27.1864L44.883 34.0073L45.2353 34.3622L52.1076 27.5413L51.7553 27.1864ZM44.2696 42.165C42.8996 43.5247 40.3537 43.5345 38.8493 42.158L38.5118 42.5269C40.1991 44.0708 43.0494 44.0806 44.6218 42.5199L44.2696 42.165ZM45.4242 39.5126C45.3038 40.5741 44.9506 41.4891 44.2696 42.165L44.6218 42.5198C45.4074 41.7402 45.7922 40.705 45.921 39.569L45.4242 39.5126ZM44.2696 36.9166C44.9657 37.6075 45.4226 38.6395 45.4226 39.5408H45.9226C45.9226 38.4919 45.4018 37.3359 44.6218 36.5618L44.2696 36.9166ZM38.8566 36.9166C40.2266 35.5569 42.7725 35.5471 44.277 36.9236L44.6145 36.5548C42.9272 35.0109 40.0769 35.001 38.5044 36.5618L38.8566 36.9166ZM37.7037 39.5408C37.7037 38.5077 38.0493 37.6069 38.8429 36.9293L38.5182 36.5491C37.5961 37.3365 37.2037 38.3859 37.2037 39.5408H37.7037ZM38.8566 42.165C38.1606 41.4741 37.7037 40.4421 37.7037 39.5408H37.2037C37.2037 40.5897 37.7244 41.7457 38.5044 42.5199L38.8566 42.165ZM6.75 39C6.75 39.3758 6.90764 39.6977 7.18455 39.9204C7.45661 40.1392 7.82723 40.25 8.24346 40.25V39.75C7.91167 39.75 7.66057 39.6616 7.4979 39.5308C7.34009 39.4039 7.25 39.2258 7.25 39H6.75ZM8.24346 37.75C7.82723 37.75 7.45661 37.8608 7.18455 38.0796C6.90764 38.3023 6.75 38.6242 6.75 39H7.25C7.25 38.7742 7.34009 38.5961 7.4979 38.4692C7.66057 38.3384 7.91167 38.25 8.24346 38.25V37.75ZM29.7565 37.75H8.24346V38.25H29.7565V37.75ZM31.25 39C31.25 38.6242 31.0924 38.3023 30.8154 38.0796C30.5434 37.8608 30.1728 37.75 29.7565 37.75V38.25C30.0883 38.25 30.3394 38.3384 30.5021 38.4692C30.6599 38.5961 30.75 38.7742 30.75 39H31.25ZM29.7565 40.25C30.1728 40.25 30.5434 40.1392 30.8154 39.9204C31.0924 39.6977 31.25 39.3758 31.25 39H30.75C30.75 39.2258 30.6599 39.4039 30.5021 39.5308C30.3394 39.6616 30.0883 39.75 29.7565 39.75V40.25ZM8.24346 40.25H29.7565V39.75H8.24346V40.25ZM25.25 49C25.25 48.6242 25.0924 48.3023 24.8154 48.0796C24.5434 47.8608 24.1728 47.75 23.7565 47.75V48.25C24.0883 48.25 24.3394 48.3384 24.5021 48.4692C24.6599 48.5961 24.75 48.7742 24.75 49H25.25ZM23.7565 50.25C24.1728 50.25 24.5434 50.1392 24.8154 49.9204C25.0924 49.6977 25.25 49.3758 25.25 49H24.75C24.75 49.2258 24.6599 49.4039 24.5021 49.5308C24.3394 49.6616 24.0883 49.75 23.7565 49.75V50.25ZM2.24346 50.25H23.7565V49.75H2.24346V50.25ZM0.75 49C0.75 49.3758 0.907636 49.6977 1.18455 49.9204C1.45661 50.1392 1.82723 50.25 2.24346 50.25V49.75C1.91167 49.75 1.66057 49.6616 1.4979 49.5308C1.34009 49.4039 1.25 49.2258 1.25 49H0.75ZM2.24346 47.75C1.82723 47.75 1.45661 47.8608 1.18455 48.0796C0.907636 48.3023 0.75 48.6242 0.75 49H1.25C1.25 48.7742 1.34009 48.5961 1.4979 48.4692C1.66057 48.3384 1.91167 48.25 2.24346 48.25V47.75ZM23.7565 47.75H2.24346V48.25H23.7565V47.75ZM26.3655 58.6809C25.9395 59.3872 26.0712 60.2809 26.8184 60.7232L27.0732 60.293C26.6029 60.0146 26.4872 59.4472 26.7937 58.9392L26.3655 58.6809ZM26.3376 58.8729L26.3377 58.8731L26.8215 58.7471L26.8215 58.7469L26.3376 58.8729ZM28.5156 58.3339C27.7167 57.9433 26.8404 58.051 26.3802 58.659L26.7789 58.9608C27.0511 58.6011 27.6396 58.4621 28.296 58.7831L28.5156 58.3339ZM41.4322 62.3166C36.7332 62.3166 32.2758 60.9926 28.5503 58.3545L28.2614 58.7625C32.0782 61.4653 36.6383 62.8166 41.4322 62.8166V62.3166ZM64.3152 39.4952C64.3152 52.1065 54.0787 62.3166 41.4322 62.3166V62.8166C54.3536 62.8166 64.8152 52.3839 64.8152 39.4952H64.3152ZM41.4322 16.6737C54.0787 16.6737 64.3152 26.8839 64.3152 39.4952H64.8152C64.8152 26.6065 54.3536 16.1737 41.4322 16.1737V16.6737ZM28.0649 20.9973C31.9135 18.1198 36.6113 16.6737 41.4322 16.6737V16.1737C36.5118 16.1737 31.7071 17.6498 27.7655 20.5969L28.0649 20.9973ZM26.0132 20.7061C26.4676 21.3064 27.3421 21.4325 28.0438 21.0115L27.7865 20.5827C27.2708 20.8922 26.69 20.7717 26.4119 20.4043L26.0132 20.7061ZM26.3048 18.6574C25.9977 18.8886 25.82 19.2585 25.7672 19.6261C25.7143 19.9937 25.7806 20.3988 26.0133 20.7061L26.4119 20.4043C26.2783 20.2279 26.2234 19.9665 26.2621 19.6973C26.3008 19.4282 26.4275 19.1909 26.6055 19.0569L26.3048 18.6574ZM41.4319 13.75C36.0238 13.75 30.7364 15.4649 26.309 18.6543L26.6013 19.06C30.9444 15.9313 36.1297 14.25 41.4319 14.25V13.75ZM67.25 39.5C67.25 25.2732 55.6946 13.75 41.4319 13.75V14.25C55.4198 14.25 66.75 25.5506 66.75 39.5H67.25ZM41.4319 65.25C55.6951 65.25 67.25 53.7264 67.25 39.5H66.75C66.75 53.449 55.4202 64.75 41.4319 64.75V65.25ZM26.8047 60.7145C31.107 63.6548 36.1498 65.25 41.4319 65.25V64.75C36.2521 64.75 31.3073 63.1861 27.0869 60.3017L26.8047 60.7145Z" fill="#EEF2F4"/>
</svg>
