<svg width="24" height="24" viewBox="0 0 24 24" fill="none" xmlns="http://www.w3.org/2000/svg">
<path fill-rule="evenodd" clip-rule="evenodd" d="M11.4545 20.7274C15.9732 20.7274 19.6363 17.0643 19.6363 12.5456C19.6363 8.02689 15.9732 4.36377 11.4545 4.36377C6.93583 4.36377 3.27271 8.02689 3.27271 12.5456C3.27271 17.0643 6.93583 20.7274 11.4545 20.7274Z" fill="#005EB8"/>
<path fill-rule="evenodd" clip-rule="evenodd" d="M12 0C5.37195 0 0 5.3731 0 12C0 18.6272 5.3731 24 12 24C18.628 24 24 18.6269 24 12C24 5.37282 18.628 0 12 0ZM16.4683 12.6614L9.5426 16.6598C9.4367 16.7207 9.3184 16.7511 9.20122 16.7511C9.08292 16.7511 8.96575 16.7207 8.85871 16.6598C8.64803 16.5381 8.51733 16.3117 8.51733 16.0672V8.07114C8.51733 7.82665 8.64802 7.60132 8.85871 7.47851C9.07053 7.35682 9.33078 7.35682 9.5426 7.47851L16.4672 11.477C16.679 11.5986 16.8097 11.8251 16.8085 12.0696C16.8097 12.313 16.679 12.5394 16.4683 12.6611L16.4683 12.6614Z" fill="white"/>
</svg>
